<svg id="레이어_1" data-name="레이어 1" xmlns="http://www.w3.org/2000/svg" viewBox="0 0 315.54 627.74"><defs><style>.cls-1{fill:#fff;stroke:#231815;stroke-linecap:round;stroke-linejoin:round;stroke-width:1.02px;}.cls-2{font-size:7.12px;letter-spacing:0.06em;}.cls-2,.cls-6{font-family:RIDIBatang-KSCpc-EUC-H, RIDIBatang;}.cls-3{font-size:6.44px;letter-spacing:0.06em;}.cls-4{fill:none;}.cls-4,.cls-5{stroke:#000;stroke-miterlimit:10;}.cls-5{stroke-width:0.18px;}.cls-6{writing-mode:tb;text-orientation:upright;glyph-orientation-vertical:0deg;font-size:15.85px;letter-spacing:0.06em;}.cls-7{letter-spacing:0.06em;}.cls-8{letter-spacing:0.06em;}</style></defs><title>PIndexBg</title><text x="-27.15" y="-122.16"></text><polyline class="cls-1" points="154.04 565.18 151.3 572.15 129.66 627.19 61.6 627.23 86.26 565.3 86.26 565.3 11.33 565.43 11.26 438.99 153.97 438.92 154.03 559.18 154.04 565.18"/><path d="M183.49,532.23,190.83,516a5.39,5.39,0,0,0,.41-1.56,7.49,7.49,0,0,0,0-1.77,6.8,6.8,0,0,0-.44-1.72,4.74,4.74,0,0,0-4.87-3.07,4.06,4.06,0,0,0-2,.39,6,6,0,0,0-1.43,1.17,5.67,5.67,0,0,0-1.4,4H175a10.34,10.34,0,0,1,3.07-7.6,11.08,11.08,0,0,1,7.86-3,14.54,14.54,0,0,1,4.61.73,10.58,10.58,0,0,1,3.83,2.18,8.85,8.85,0,0,1,1.84,2.42,10.88,10.88,0,0,1,1.07,3,11.47,11.47,0,0,1,.18,3.2,8.55,8.55,0,0,1-.8,3l-6.51,14.89Zm6.45,10.15h-6.82v-6h6.82Z" transform="translate(-27.15 -122.16)"/><text class="cls-2" transform="translate(65.83 398.51)">내일이 의미가 있는가<tspan class="cls-3"><tspan x="-2.34" y="18.3">“어디에 말할 데도 없어”</tspan></tspan></text><path class="cls-4" d="M336.11,311.53H184.25V174.21H336.11Z" transform="translate(-27.15 -122.16)"/><path class="cls-5" d="M342.61,122.25v27.24h-7.28V122.25Zm-.3,36.36h-6.59V152.7h6.59Z" transform="translate(-27.15 -122.16)"/><text class="cls-2" transform="translate(223.79 12.18)">내일이 의미가 있는가<tspan class="cls-3"><tspan x="-15.37" y="17.62">“아무도 날 필요로 하지않아”</tspan></tspan></text><text class="cls-6" transform="translate(31.65 6.96)">곰곰히<tspan class="cls-7" x="0" y="50.41"> </tspan><tspan class="cls-8" x="0" y="55.96">생각해보자</tspan><tspan x="-23.72" y="0">당장</tspan><tspan class="cls-7" x="-23.72" y="33.61"> </tspan><tspan x="-23.72" y="39.15">내일이</tspan><tspan class="cls-7" x="-23.72" y="89.56"> </tspan><tspan x="-23.72" y="95.11">의미가</tspan><tspan class="cls-7" x="-23.72" y="145.52"> </tspan><tspan x="-23.72" y="151.07">있는가</tspan></text></svg>