<svg id="레이어_1" data-name="레이어 1" xmlns="http://www.w3.org/2000/svg" xmlns:xlink="http://www.w3.org/1999/xlink" viewBox="0 0 1424.34 716.63"><defs><style>.cls-1,.cls-16,.cls-46,.cls-49,.cls-55,.cls-56{fill:none;}.cls-2,.cls-6{font-size:40.95px;}.cls-11,.cls-15,.cls-17,.cls-2,.cls-20,.cls-22,.cls-26,.cls-29,.cls-33,.cls-37,.cls-40,.cls-43,.cls-50,.cls-6,.cls-7{fill:#040000;}.cls-11,.cls-15,.cls-17,.cls-2,.cls-20,.cls-22,.cls-26,.cls-29,.cls-33,.cls-37,.cls-40,.cls-43,.cls-50,.cls-7{font-family:RIDIBatang-KSCpc-EUC-H, RIDIBatang;}.cls-3{letter-spacing:0.06em;}.cls-4{letter-spacing:0.06em;}.cls-5{letter-spacing:0.06em;}.cls-6{font-family:BMHANNAPro, BM HANNA Pro;}.cls-11,.cls-15,.cls-7{font-size:21.01px;}.cls-15,.cls-8{letter-spacing:0.06em;}.cls-9{letter-spacing:0.06em;}.cls-10,.cls-11{letter-spacing:0.06em;}.cls-12{letter-spacing:0.06em;}.cls-13{letter-spacing:0em;}.cls-14{letter-spacing:0.06em;}.cls-16,.cls-49,.cls-56{stroke:#231815;}.cls-16,.cls-46,.cls-49,.cls-55,.cls-56{stroke-linecap:round;stroke-linejoin:round;}.cls-16{stroke-width:2.63px;}.cls-17,.cls-20{font-size:15.67px;}.cls-18,.cls-20{letter-spacing:0.06em;}.cls-19{letter-spacing:0.06em;}.cls-21{letter-spacing:0em;}.cls-22{font-size:15.67px;}.cls-23{letter-spacing:0.06em;}.cls-24{letter-spacing:0.06em;}.cls-25{letter-spacing:0.06em;}.cls-26{font-size:32.03px;}.cls-27{letter-spacing:0.06em;}.cls-28{letter-spacing:0.06em;}.cls-29{font-size:29.17px;}.cls-30{letter-spacing:0.06em;}.cls-31{letter-spacing:0.06em;}.cls-32{letter-spacing:0.06em;}.cls-33{font-size:29.17px;}.cls-34{letter-spacing:0.06em;}.cls-35{letter-spacing:0.06em;}.cls-36{letter-spacing:0.06em;}.cls-37{font-size:15.67px;letter-spacing:0.06em;}.cls-38{letter-spacing:0.06em;}.cls-39{letter-spacing:0em;}.cls-40{font-size:29.17px;letter-spacing:0.06em;}.cls-41{letter-spacing:0.06em;}.cls-42{letter-spacing:0em;}.cls-43{font-size:11.38px;}.cls-44{letter-spacing:0.06em;}.cls-45{letter-spacing:0.06em;}.cls-46,.cls-55{stroke:#e9e9e9;}.cls-46,.cls-49{stroke-width:1.75px;}.cls-47{clip-path:url(#clip-path);}.cls-48{fill:#231815;}.cls-50{font-size:26.27px;letter-spacing:0.06em;}.cls-51{letter-spacing:0.06em;}.cls-52{letter-spacing:0.06em;}.cls-53{letter-spacing:0.06em;}.cls-54{letter-spacing:0em;}.cls-55,.cls-56{stroke-width:3.36px;}.cls-57{fill:#898989;}.cls-58{fill:#fff;}</style><clipPath id="clip-path" transform="translate(-11.06 -52.34)"><rect class="cls-1" width="1450" height="820"/></clipPath></defs><title>CallNumber</title><text class="cls-2" transform="translate(0.88 32.76)"><tspan class="cls-3">너</tspan><tspan class="cls-4" x="40.17" y="0">에</tspan><tspan x="82.03" y="0">게</tspan></text><text class="cls-2" transform="translate(0.88 85.3)"><tspan class="cls-4">필요</tspan><tspan class="cls-5" x="80.84" y="0">한 건</tspan><tspan x="176.71" y="0"> </tspan></text><text class="cls-6" transform="translate(192.04 85.3)">‘</text><text class="cls-2" transform="translate(206.5 85.3)"><tspan class="cls-4">우</tspan><tspan x="41.03" y="0">리</tspan></text><text class="cls-6" transform="translate(287.34 85.3)">’</text><text class="cls-7" transform="translate(7.88 468.04)"><tspan class="cls-8">비록</tspan><tspan class="cls-9" x="41.48" y="0" xml:space="preserve"> 당장</tspan><tspan class="cls-8" x="91.31" y="0">은</tspan><tspan class="cls-10" x="112.36" y="0" xml:space="preserve"> 어</tspan><tspan class="cls-8" x="140.31" y="0">두운</tspan><tspan class="cls-9" x="182.42" y="0" xml:space="preserve"> 밤</tspan><tspan class="cls-8" x="211" y="0">이지</tspan><tspan class="cls-10" x="251.85" y="0">만 잠</tspan><tspan class="cls-8" x="301.67" y="0">시</tspan><tspan class="cls-9" x="322.1" y="0"> </tspan><tspan class="cls-8" x="329.43" y="0">고개를</tspan><tspan class="cls-9" x="393.02" y="0"> </tspan><tspan class="cls-8" x="400.35" y="0">들</tspan><tspan class="cls-10" x="421.41" y="0">어</tspan><tspan x="442.02" y="0"> </tspan></text><text class="cls-11" transform="translate(7.88 508.05)">하<tspan class="cls-8" x="21.25" y="0">늘</tspan><tspan class="cls-9" x="42.3" y="0"> </tspan><tspan class="cls-8" x="49.63" y="0">높은</tspan><tspan x="91.75" y="0"> </tspan><tspan class="cls-8" x="99.08" y="0">곳의</tspan><tspan class="cls-9" x="140.98" y="0" xml:space="preserve"> 반</tspan><tspan class="cls-8" x="169.56" y="0">짝이는</tspan><tspan class="cls-9" x="232.52" y="0" xml:space="preserve"> 별</tspan><tspan class="cls-12" x="260.47" y="0">들을</tspan><tspan x="302.58" y="0"> </tspan><tspan class="cls-8" x="309.91" y="0">올</tspan><tspan x="330.97" y="0">려다</tspan><tspan class="cls-8" x="372.83" y="0">보</tspan><tspan x="393.88" y="0">며</tspan><tspan class="cls-13" x="414.5" y="0"> </tspan></text><text class="cls-11" transform="translate(7.88 548.04)">살<tspan class="cls-8" x="21.25" y="0">포시</tspan><tspan class="cls-9" x="62.73" y="0"> </tspan><tspan class="cls-8" x="70.06" y="0">미소</tspan><tspan x="111.54" y="0"> </tspan><tspan class="cls-12" x="118.87" y="0">지</tspan><tspan class="cls-14" x="139.3" y="0">어</tspan><tspan class="cls-8" x="159.91" y="0">보는</tspan><tspan x="202.03" y="0" xml:space="preserve"> 것만</tspan><tspan class="cls-8" x="251.22" y="0">으로도</tspan><tspan class="cls-13" x="314.39" y="0"> </tspan></text><text class="cls-15" transform="translate(7.88 588.05)">이<tspan class="cls-9" x="20.43" y="0"> </tspan><tspan x="27.76" y="0">우주를</tspan><tspan class="cls-9" x="90.93" y="0"> </tspan><tspan x="98.26" y="0">품을</tspan><tspan class="cls-10" x="140.37" y="0"> </tspan><tspan x="147.71" y="0">수</tspan><tspan class="cls-9" x="168.76" y="0"> </tspan><tspan x="176.09" y="0">있는</tspan><tspan class="cls-9" x="217.58" y="0" xml:space="preserve"> 열</tspan><tspan x="245.52" y="0">쇠</tspan><tspan class="cls-14" x="266.37" y="0">가</tspan><tspan class="cls-13" x="287.61" y="0"> </tspan></text><text class="cls-15" transform="translate(7.88 628.04)">내<tspan class="cls-9" x="21.48" y="0" xml:space="preserve"> 작</tspan><tspan class="cls-12" x="50.05" y="0">은</tspan><tspan class="cls-10" x="71.11" y="0"> </tspan><tspan x="78.44" y="0">호주</tspan><tspan class="cls-10" x="120.56" y="0">머</tspan><tspan x="141.17" y="0">니</tspan><tspan class="cls-9" x="161.6" y="0" xml:space="preserve"> 안</tspan><tspan x="190.17" y="0">에</tspan><tspan class="cls-10" x="211.65" y="0"> </tspan><tspan x="218.98" y="0">들</tspan><tspan class="cls-10" x="240.04" y="0">어</tspan><tspan x="260.65" y="0">있음을</tspan><tspan class="cls-10" x="323.19" y="0"> </tspan><tspan x="330.53" y="0">느</tspan><tspan class="cls-10" x="351.58" y="0">끼</tspan><tspan x="372.2" y="0">게</tspan><tspan class="cls-9" x="393.67" y="0"> </tspan><tspan x="401.01" y="0">해</tspan><tspan class="cls-10" x="422.48" y="0"> </tspan><tspan class="cls-12" x="429.82" y="0">줄지도</tspan><tspan class="cls-10" x="492.35" y="0"> </tspan><tspan x="499.69" y="0">모른</tspan><tspan class="cls-14" x="541.8" y="0">다</tspan><tspan class="cls-13" x="563.04" y="0"> </tspan></text><polyline class="cls-16" points="1423.03 450.73 1417.41 476.26 1373.1 677.8 1138.59 715.31 1189.53 488.39 931.4 529.98 861.72 94.33 1353.44 15.68 1419.72 430.05 1423.03 450.73"/><text class="cls-17" transform="translate(998.58 308.19) rotate(-9.36)"><tspan class="cls-18">자살</tspan><tspan class="cls-19" x="31.69" y="0">예</tspan><tspan class="cls-18" x="47.71" y="0">방상담전</tspan><tspan x="110.63" y="0">화</tspan></text><text class="cls-20" transform="translate(1202.87 224.48) rotate(-9.36)">한<tspan class="cls-19" x="15.85" y="0">국생</tspan><tspan x="47.57" y="0">명</tspan><tspan class="cls-19" x="62.95" y="0">의</tspan><tspan x="78.5" y="0">전</tspan><tspan class="cls-21" x="93.88" y="0">화</tspan></text><text class="cls-22" transform="translate(944.04 144.12) rotate(-9.36)"><tspan class="cls-23">보</tspan><tspan class="cls-24" x="15.71" y="0">건</tspan><tspan class="cls-23" x="31.08" y="0">복지</tspan><tspan class="cls-25" x="62.02" y="0">상담</tspan><tspan class="cls-23" x="93.72" y="0">센</tspan><tspan x="109.74" y="0">터</tspan></text><text class="cls-26" transform="translate(1210.52 270.91) rotate(-9.36)"><tspan class="cls-27">1588</tspan><tspan class="cls-28" x="79.31" y="0">-</tspan><tspan class="cls-27" x="97.34" y="0">919</tspan><tspan x="156.82" y="0">1</tspan></text><text class="cls-29" transform="matrix(0.99, -0.16, 0.16, 0.99, 897.37, 198.62)"><tspan class="cls-30">129 </tspan><tspan class="cls-31" x="64.35" y="0">콜</tspan><tspan class="cls-30" x="93.58" y="0">서</tspan><tspan class="cls-32" x="122.19" y="0">비</tspan><tspan x="150.54" y="0">스</tspan></text><text class="cls-33" transform="translate(935.76 367.24) rotate(-9.36)"><tspan class="cls-34">1393 </tspan><tspan class="cls-35" x="82.41" y="0">콜</tspan><tspan class="cls-36" x="111.63" y="0">서</tspan><tspan class="cls-35" x="140.25" y="0">비</tspan><tspan x="168.6" y="0">스</tspan></text><text class="cls-20" transform="translate(1166.72 138.96) rotate(-9.36)">정<tspan class="cls-19" x="15.38" y="0">신</tspan><tspan x="30.61" y="0">건강상담전</tspan><tspan class="cls-21" x="108.91" y="0">화</tspan></text><text class="cls-26" transform="translate(1174.37 185.39) rotate(-9.36)"><tspan class="cls-27">1577</tspan><tspan class="cls-28" x="79.31" y="0">-</tspan><tspan class="cls-27" x="97.34" y="0">019</tspan><tspan x="156.82" y="0">9</tspan></text><text class="cls-37" transform="translate(1156.98 392.93) rotate(-10.17)">청<tspan class="cls-38" x="15.38" y="0">소</tspan><tspan x="31.08" y="0">년상담전</tspan><tspan class="cls-39" x="93.53" y="0">화</tspan></text><text class="cls-40" transform="translate(1163.35 440.82) rotate(-10.17)">1388 <tspan class="cls-41" x="82.41" y="0">콜서비</tspan><tspan class="cls-42" x="168.63" y="0">스</tspan></text><text class="cls-43" transform="matrix(0.98, -0.19, 0.19, 0.98, 1345.63, 541.68)"><tspan class="cls-44">주변</tspan><tspan class="cls-45" x="22.58" y="0"> </tspan><tspan class="cls-44" x="26.56" y="0">지</tspan><tspan x="37.62" y="0">인</tspan></text><polyline class="cls-46" points="126.54 228.57 169.44 234.93 194.54 274.08 169.53 308.89 178.75 368.87 283.16 404.63"/><g class="cls-47"><path class="cls-48" d="M138.94,280.31a1.47,1.47,0,1,1-1.93-.74,1.47,1.47,0,0,1,1.93.74" transform="translate(-11.06 -52.34)"/><path class="cls-49" d="M138.94,280.31a1.47,1.47,0,1,1-1.93-.74A1.47,1.47,0,0,1,138.94,280.31Z" transform="translate(-11.06 -52.34)"/><path class="cls-48" d="M180.88,287.18a1.33,1.33,0,1,1-1.84-.38,1.32,1.32,0,0,1,1.84.38" transform="translate(-11.06 -52.34)"/><path class="cls-49" d="M180.88,287.18a1.33,1.33,0,1,1-1.84-.38A1.32,1.32,0,0,1,180.88,287.18Z" transform="translate(-11.06 -52.34)"/><path class="cls-48" d="M206.22,325.18a2.16,2.16,0,1,1-3-.62,2.15,2.15,0,0,1,3,.62" transform="translate(-11.06 -52.34)"/><path class="cls-49" d="M206.22,325.18a2.16,2.16,0,1,1-3-.62A2.15,2.15,0,0,1,206.22,325.18Z" transform="translate(-11.06 -52.34)"/><path class="cls-48" d="M181.35,361.27a1.33,1.33,0,1,1-2.48,1,1.33,1.33,0,0,1,2.48-1" transform="translate(-11.06 -52.34)"/><path class="cls-49" d="M181.35,361.27a1.33,1.33,0,1,1-2.48,1,1.33,1.33,0,0,1,2.48-1Z" transform="translate(-11.06 -52.34)"/><path class="cls-48" d="M191.6,420a2.16,2.16,0,1,1-3-.57,2.16,2.16,0,0,1,3,.57" transform="translate(-11.06 -52.34)"/><path class="cls-49" d="M191.6,420a2.16,2.16,0,1,1-3-.57A2.16,2.16,0,0,1,191.6,420Z" transform="translate(-11.06 -52.34)"/><path class="cls-48" d="M296.63,456.16a1.47,1.47,0,1,1-2.05-.36,1.47,1.47,0,0,1,2.05.36" transform="translate(-11.06 -52.34)"/><path class="cls-49" d="M296.63,456.16a1.47,1.47,0,1,1-2.05-.36A1.47,1.47,0,0,1,296.63,456.16Z" transform="translate(-11.06 -52.34)"/></g><text class="cls-50" transform="translate(0 176.47)">‘<tspan class="cls-51" x="8.67" y="0">남</tspan><tspan class="cls-52" x="35.22" y="0">두육</tspan><tspan class="cls-51" x="87.86" y="0">성</tspan><tspan x="113.63" y="0">’은</tspan><tspan class="cls-51" x="148.62" y="0"> </tspan><tspan x="157.79" y="0">생</tspan><tspan class="cls-51" x="184.63" y="0">명</tspan><tspan x="210.4" y="0">의</tspan><tspan class="cls-53" x="236.46" y="0" xml:space="preserve"> 별자</tspan><tspan class="cls-54" x="297.95" y="0">리</tspan></text><g class="cls-47"><polyline class="cls-55" points="1084.73 161.86 1164.28 186.39 1200.53 267.95 1142.96 326.74 1143.05 443.21 1330.76 541.37"/><path class="cls-48" d="M1098.52,213.46a2.82,2.82,0,1,1-3.46-2,2.81,2.81,0,0,1,3.46,2" transform="translate(-11.06 -52.34)"/><path class="cls-56" d="M1098.52,213.46a2.82,2.82,0,1,1-3.46-2A2.81,2.81,0,0,1,1098.52,213.46Z" transform="translate(-11.06 -52.34)"/><path class="cls-48" d="M1176.09,238.67a2.55,2.55,0,1,1-3.38-1.25,2.56,2.56,0,0,1,3.38,1.25" transform="translate(-11.06 -52.34)"/><path class="cls-56" d="M1176.09,238.67a2.55,2.55,0,1,1-3.38-1.25A2.56,2.56,0,0,1,1176.09,238.67Z" transform="translate(-11.06 -52.34)"/><path class="cls-48" d="M1213.13,318.13a4.15,4.15,0,1,1-5.49-2.05,4.14,4.14,0,0,1,5.49,2.05" transform="translate(-11.06 -52.34)"/><path class="cls-56" d="M1213.13,318.13a4.15,4.15,0,1,1-5.49-2.05A4.14,4.14,0,0,1,1213.13,318.13Z" transform="translate(-11.06 -52.34)"/><path class="cls-48" d="M1155.46,379.36a2.55,2.55,0,1,1-3-1.93,2.55,2.55,0,0,1,3,1.93" transform="translate(-11.06 -52.34)"/><path class="cls-56" d="M1155.46,379.36a2.55,2.55,0,1,1-3-1.93A2.55,2.55,0,0,1,1155.46,379.36Z" transform="translate(-11.06 -52.34)"/><path class="cls-48" d="M1157.85,493.77a4.14,4.14,0,1,1-5.52-2,4.16,4.16,0,0,1,5.52,2" transform="translate(-11.06 -52.34)"/><path class="cls-56" d="M1157.85,493.77a4.14,4.14,0,1,1-5.52-2A4.16,4.16,0,0,1,1157.85,493.77Z" transform="translate(-11.06 -52.34)"/><path class="cls-48" d="M1346.62,592.86a2.82,2.82,0,1,1-3.78-1.27,2.82,2.82,0,0,1,3.78,1.27" transform="translate(-11.06 -52.34)"/><path class="cls-56" d="M1346.62,592.86a2.82,2.82,0,1,1-3.78-1.27A2.82,2.82,0,0,1,1346.62,592.86Z" transform="translate(-11.06 -52.34)"/></g><path class="cls-57" d="M688,570.61s-67-40.39-64.89-72.21a11.5,11.5,0,0,1,11.94-10.66c5,.21,11.5,1.89,18.07,7.57,0,0-15.82-16-14.79-33.24a18.53,18.53,0,0,1,19-17.29,36.55,36.55,0,0,1,17,4.55s-23.35-38.22-19.47-57.28a12.12,12.12,0,0,1,14-9.39c4.42.76,10.75,2.4,12.57,5.72,0,0-1.83-89.86,19.71-86.44,0,0,21,5.78,12.09,88.28,0,0,23.64-8.93,31-4.47l.26,28.64L716.3,452.33s25.37-6.15,28-1.16l.79,33.9s-11.3,12.08-15,13.92c0,0,12.61-1.58,15.24-.79l1.58,25.09-6.84,18.79s-28.91,25-50.2,28.7v5.38L713,576.1a2.18,2.18,0,0,1,2.17,2.29l-6.72,134.73-30.47.13L662.47,579a2.18,2.18,0,0,1,2.14-2.43l23.27-.29Z" transform="translate(-11.06 -52.34)"/><path d="M762.78,696.35l-3.77.57c-3.35.51-3.86.16-4.09-3.18-.64-9.43-1.23-18.87-1.85-28.3-.17-2.53-.34-5.06-.55-8.1-.54.82-.88,1.23-1.12,1.7q-9.12,18.12-18.21,36.27a18.57,18.57,0,0,0-1.11,2.91c-.62,2.14-1.62,2.54-3.41,1.32-.78-.54-1.63-1-2.76-1.64-1.63,2.63-3.36,5.05-4.7,7.66a25,25,0,0,1-11.46,11.53,182.91,182.91,0,0,1-42,14.33,10.35,10.35,0,0,1-2.73.26,4.31,4.31,0,0,1-2.6-1.73c-.42-.54.46-2.61,1.28-3.51,6.05-6.67,12.55-12.94,18.27-19.88,5.37-6.52,10-13.7,15.12-20.91-1.67-.82-3-1.6-4.42-2.14-2.24-.86-2.8-2.22-2-4.52,4.09-12.37,8-24.78,12.12-37.16q14.91-45.36,29.83-90.71c2.23-6.8,4.25-13.67,6.21-20.56a16.89,16.89,0,0,0,.43-5.18q-.51-14-1.18-28c-.59-12.39-1.49-24.78-1.78-37.18-.28-11.54.08-23.1.17-34.64.06-8.48-.29-17,.3-25.44,1.34-19,2.26-38.14,8-56.49,1.52-4.85,2.55-9.17-.42-13.72-1.8-2.78.25-5.43,1.8-9,2.77-6.41,4.09-9.14,8.12-17.43.81-1.67,1.1-2.87,1.88-4.41-4.61-.78-9.06-1.47-13.49-2.31-2.66-.5-5.28-1.22-7.92-1.86-5.12-1.25-7.41-4.88-8.16-9.78-1.43-9.28-.62-18.52.57-27.74,2.69-20.65,7.16-40.84,15.45-60a11.22,11.22,0,0,0,.37-1.24c-10-1.32-14.49-5.09-14.94-12.47-.45-7.23,5.14-12.91,15.59-15.79a33,33,0,0,1,.42-4.86c1.92-8,7.87-11.73,15.29-13.29,2.78-.58,3.85-1.43,4.17-4.29.77-6.88,4.84-11,12.05-12.43-1.25-2.67-1.16-5.42-4-7.56-6.89-5.21-7.77-18-2.07-25.35a13.28,13.28,0,0,0,2.76-6.56C773.73,83,777.81,73.66,786.29,67c11.65-9.18,24.82-9.48,38.09-4.67,26.82,9.72,36.79,43.44,19.91,66.06a6.53,6.53,0,0,0-.79,3.64c0,7.87,0,15.75,0,23.62a57,57,0,0,1-.67,6.06c2.32.78,4.57,1.48,6.76,2.3s4.52,1.89,6.79,2.8c16.76,6.68,24.32,19.52,23.65,37a184.16,184.16,0,0,1-3.51,27c-3.09,16.34-7,32.51-13,48.07-1.38,3.59-3.12,7-4.82,10.82,5.89,4.56,6.4,11.29,6.15,18.13a11.26,11.26,0,0,1-2.05,5.78,4.29,4.29,0,0,0-.74,3.81c1.38,6.47,2.67,13,4.15,19.39a3.61,3.61,0,0,1-1.37,3.79c-1.59,1.11-1.95,2.62-2,4.59-.31,14.26-.36,28.54-1.32,42.76-1.45,21.55-8.36,41.74-16.6,61.56-16.75,40.31-33.15,80.77-52.22,120.08a7.8,7.8,0,0,0-.66,4q3.43,32.52,7,65c1.73,15.93,3.42,31.85,5.2,47.77.27,2.39-.7,3.42-2.92,3.71-1.55.2-3.08.49-5,.8.91,4.56,1.75,9,2.67,13.4,1,4.7,2,9.39,3.09,14.08.38,1.71-.48,2.38-2,2.69q-23.82,4.75-47.62,9.55c-3.09.62-6.17,1.26-9.26,1.87a5.14,5.14,0,0,1-2.34-.24,5,5,0,0,1-2.24-1.67c-.19-.27.8-1.78,1.54-2.29q11.49-7.79,23.1-15.4c1.52-1,2.09-1.91,1.69-3.8C764.08,705,763.52,700.87,762.78,696.35Zm-20.54-177,.53.07c.29-.78.59-1.56.84-2.35q20.5-63.15,41-126.3c.4-1.2.45-3.3,2.46-2.64s.61,2.33.4,3.58a1.83,1.83,0,0,1-.08.25q-46.3,142.65-92.6,285.31c-.32,1-.55,2-.86,3.08,11.88,5.33,23.56,10.59,35.3,15.87.45-.82.77-1.34,1-1.88,13.49-28.07,27.22-56,40.42-84.23,25.35-54.2,50.38-108.56,72.42-164.23,5.29-13.36,10.34-26.77,13-41a253.32,253.32,0,0,0,3.81-51.51c0-2.73,0-5.48,0-8.49-1.78,1.16-3.2,2.15-4.69,3.05s-3.16,1.89-4.81,2.7c-19.67,9.67-40.4,12.24-61.88,8.72-14.9-2.44-28.53-7.76-38.84-19.51-.09-.1-.16-.15-.82-.45-1.5,6.33-3.48,12.87-4.68,19.28-3.31,17.52-4.06,35.29-4.52,53.06-.75,29.34,0,58.66,1.49,88C741.49,506.25,741.87,512.78,742.24,519.32ZM805.7,358.19c6.42-.73,12.9-1.12,19.25-2.27,13.45-2.42,25.9-7.28,36.51-16.24a3.62,3.62,0,0,0,1.37-4.07c-1.47-6.57-2.71-13.2-4.28-19.74a6.34,6.34,0,0,0-2.64-3.86c-3.38-1.77-7.12-2.81-10.54-4.52-4.08-2-8-1.48-12.24-.65-8.11,1.57-15.4.13-19.83-8a3.09,3.09,0,0,0-2.32-1.12c-3.41-.1-6.82-.07-10.24,0-13.25.4-26.51.83-39.76,1.36a3.3,3.3,0,0,0-2.23,1.64c-3.54,6.93-7.21,13.75-10.49,20.84-2.27,4.13-1.6,7.72.6,11.32a45.84,45.84,0,0,0,4.87,6.76,44.93,44.93,0,0,0,14.92,10.53C780.38,355.66,792.8,357.74,805.7,358.19ZM844,239.79l-1,.23c.91,4.41.79,8.58-2.27,12.13a17.61,17.61,0,0,1-11.32,6,16.6,16.6,0,0,1-11.14-2.08c-3.94-2.36-5.34-6.18-6.32-10.56a22,22,0,0,0-1.89,7.71c0,8.66.13,17.33.53,26a37.85,37.85,0,0,0,6.31,19.5c2.12,3.2,5,5.18,8.83,5.39,10.27.57,19.14-2.52,26.08-10.35,4.19-4.74,6.79-10.39,9-16.21,5.72-15,9.38-30.59,12.61-46.28,2.08-10.11,4.23-20.25,3.59-30.67-.58-9.62-2.94-18.54-11.13-24.78-7.14-5.44-15.35-8.56-23.79-11.1-3.94,6-4.05,6.22-3.79,9.87q1.08,15.19,2.21,30.38c.17,2.26.39,4.51.58,6.77a2.27,2.27,0,0,0,.81-1.47c1.79-9.82,6-18.59,11.62-26.75a25.55,25.55,0,0,1,4-4.54.89.89,0,0,1,.33-.19,1.48,1.48,0,0,1,1.73,2.18l-.07.1c-2.32,3.38-4.94,6.56-7.1,10-6,9.59-8.13,20.41-9.41,31.41a87.31,87.31,0,0,0-.19,12,3.3,3.3,0,0,0,1.42,2.45,9,9,0,0,1,5.1,7.76c.51,6.19.82,12.39,1.14,18.59.07,1.4.59,3.29-1.54,3.5-.36,0-1.26-2.12-1.37-3.31-.56-6.44-.84-12.91-1.48-19.35C845.86,242.66,844.67,241.25,844,239.79ZM762.5,211.65c-.25,2.62-.55,5.3-.77,8-1.09,12.81-.77,25.51,2.85,38,.72,2.48,1.69,3.5,4.45,3.44,6.39-.12,10.62,1.62,11.23,8.9l26.68,2.4V269c0-5.68,0-11.37.11-17.05a12.83,12.83,0,0,1,3.89-9.45,4.6,4.6,0,0,0,1.18-3q.58-28.08,1-56.16a21,21,0,0,0-.26-2.59c-2.29,1.29-4.06,2.77-6.09,3.34-5.35,1.51-10.79,2.74-16.25,3.85-1.76.36-2.52.82-2.92,2.78a92.55,92.55,0,0,1-3.73,13.61c-2,5.33-6.23,8.22-11.91,8.37C768.94,212.8,765.91,212.06,762.5,211.65ZM801.25,687c-4-36.58-7.93-72.87-12-109.87-.58,1-.81,1.39-1,1.76Q772,614.47,755.67,650a5.46,5.46,0,0,0-.42,2.5q1,16.79,2.16,33.55c.17,2.57.41,5.14.64,7.9ZM755.41,178.48l.34-.79a12.2,12.2,0,0,0-.72,1.05c-1.9,3.55-3.89,7-5.65,10.66-11.32,23.17-17.24,47.84-19.79,73.34-.71,7.1-.4,14.32-.14,21.47.15,4.23,2.53,7,6.95,8A121,121,0,0,0,762,296c5.54.13,5.71.18,7.73-4.91,2.4-6.05,4.81-12.13,6.63-18.36,1.32-4.51-1.45-8.5-6.14-8.69-1.06,0-2.13,0-3.2-.05-3.93-.22-7.87-.39-11.78-.77-.75-.07-1.42-1-2.12-1.51a7,7,0,0,1,2.47-1.12c2.23-.07,4.47.16,6.92.29-.77-2.68-1.54-5-2.1-7.36-3-12.79-2.61-25.71-1.33-38.65.3-3,.9-6-1.34-8.71a7.28,7.28,0,0,1-1-2.94c-1.73-7.56-.77-14.75,2.78-20.67Zm52.41-36-.77.41a12.8,12.8,0,0,0,.59,2.93,96.15,96.15,0,0,0,4.42,9.21,6.23,6.23,0,0,1,.66,5.56c-2.06,6.7-2.19,13.27,2.89,19a3.76,3.76,0,0,1,.62,2.4c-.22,7.44-.66,14.87-.74,22.31-.14,13.74-.18,27.49,0,41.23a9.17,9.17,0,0,0,8.27,9.38,19.28,19.28,0,0,0,7.26-.28c6.83-1.63,9.75-5.83,9.24-12.74q-2.49-33.93-5.06-67.83a12.34,12.34,0,0,1,1.4-6.19c1.61-3.63,3.46-7.48,3.66-11.32.53-9.85.21-19.76.2-29.64,0-.25-.28-.49-.76-1.28a35.62,35.62,0,0,0-1.44,5.27c-.53,5-.83,10.11-1.34,15.15-.08.78-.84,1.5-1.28,2.25-.49-.78-1.35-1.54-1.41-2.36-.21-2.87-.07-5.77-.2-8.66-.26-5.65-4-8.87-8.45-11.71a13,13,0,0,0,1.23,5.23,25.93,25.93,0,0,1,2.46,17.82c-.2,1-1.14,1.91-1.73,2.86-.8-1-2.29-2-2.28-3,.13-7.61-5-11.37-10.6-14.83.71,1.56,1.77,2.92,2.53,4.43,1.27,2.56,2.91,5.12,3.33,7.84a10.33,10.33,0,0,1-1.75,6.52c-1.54,2.37-2.68,2-4.25-.41C812.34,148.82,810,145.69,807.82,142.52Zm-7.91,8.42c-.75-2.33-.76-4.22,1.62-5.43a4.81,4.81,0,0,0,2.78-4.1c.16-1.62,1.42-2.38,3.26-2.21,2.55.24,4.46-2.41,4-4.89-.22-1.09-.18-2.68.47-3.36a3.61,3.61,0,0,1,3.28-.59c1.73.76,3,1,4.37-.55,1.1-1.24,2.83-1.79,2.8-4,0-2.07,1.22-3.52,3.65-3.61a6.12,6.12,0,0,0,3.17-1c2.93-2.1,5.73-4.37,8.67-6.65-1.6-1.84-4.24-2.42-6.91-2.8-5-.72-8.41-3.32-9.6-8.34-.39-1.66-1.1-1.75-2.33-1a17.19,17.19,0,0,1,1.52,3,1.91,1.91,0,0,1-.75,1.69,1.82,1.82,0,0,1-1.72-.45c-1.82-3.95-5.7-3.79-9-4.29a35.23,35.23,0,0,1-15.77-6c-4.16-3-7.33-6.81-8.52-11.9a47.13,47.13,0,0,1-.6-6.32,23.93,23.93,0,0,0-3.93,6.13c-2.73,6.49-3.38,13.34-3.16,20.31a12.68,12.68,0,0,1-.4,3.84c-3.84,13.5,1.79,30.67,12.75,38.65A18.89,18.89,0,0,0,799.91,150.94ZM745.17,728.59l.16.4,53.4-10.77c-1.85-9.08-3.62-17.79-5.46-26.8l-27.8,4.45c1.14,5.49,2.24,10.6,3.21,15.73a2.5,2.5,0,0,1-.76,2.11C763,717,758,720.16,753,723.39,750.34,725.08,747.77,726.86,745.17,728.59Zm-45-42.17c-9.53,15.66-20.52,29.7-33.93,41.84a4.62,4.62,0,0,0,1.93,0c12.75-2.52,24.65-7.58,36.76-12.08,9.44-3.51,13.47-11.53,18-19.53Zm71.72-391.78h38.57c-1.27-6.52-2.49-12.73-3.75-19.22L780.08,273Zm20.49-142c-1.33,10.82-2.65,21.54-4,32.57,2-.19,3.51-.3,5-.49a39.6,39.6,0,0,0,15.4-4.88c.74-.43,1.69-1.69,1.51-2.25-.46-1.51-.5-3.5-2.85-3.9-.64-.11-1.34-1.31-1.58-2.14-1.5-5.12-2.85-10.28-4.35-15.4a3.1,3.1,0,0,0-1.59-2C797.5,153.49,795,153.12,792.33,152.6Zm68.61,158.24c2.71-4.14.55-15.47-3.55-18.18L845,303.76Z" transform="translate(-11.06 -52.34)"/><path class="cls-58" d="M742.24,519.32c-.37-6.54-.75-13.07-1.09-19.61-1.53-29.31-2.24-58.63-1.49-88,.46-17.77,1.21-35.54,4.52-53.06,1.2-6.41,3.18-12.95,4.68-19.28.63.34.69.36.82.45,10.31,11.75,23.94,17.07,38.84,19.51,21.48,3.52,42.21.95,61.88-8.72,1.65-.81,3.24-1.75,4.81-2.7s2.91-1.89,4.69-3.05c0,3,0,5.76,0,8.49a253.32,253.32,0,0,1-3.81,51.51c-2.64,14.19-7.69,27.6-13,41-22,55.67-47.07,110-72.42,164.23-13.2,28.21-26.93,56.16-40.42,84.23-.26.54-.58,1.06-1,1.88-11.74-5.28-23.42-10.54-35.3-15.87.31-1.11.54-2.11.86-3.08q46.29-142.65,92.6-285.31a1.83,1.83,0,0,0,.08-.25c.21-1.25,1.62-2.91-.4-3.58s-2.06,1.44-2.46,2.64q-20.53,63.15-41,126.3c-.26.8-.56,1.59-.85,2.39Z" transform="translate(-11.06 -52.34)"/><path class="cls-58" d="M805.7,358.19c-12.9-.45-25.32-2.53-37.05-8a44.93,44.93,0,0,1-14.92-10.53,45.84,45.84,0,0,1-4.87-6.76c-2.2-3.6-2.87-7.19-.6-11.32,3.74-6.81,7-13.91,10.49-20.84a3.3,3.3,0,0,1,2.23-1.64c13.25-.53,26.51-1,39.76-1.36,3.42-.11,6.83-.14,10.24,0a3.09,3.09,0,0,1,2.32,1.12c4.43,8.13,11.72,9.57,19.83,8,4.28-.83,8.16-1.38,12.24.65,3.42,1.71,7.16,2.75,10.54,4.52a6.34,6.34,0,0,1,2.64,3.86c1.57,6.54,2.81,13.17,4.28,19.74a3.62,3.62,0,0,1-1.37,4.07c-10.61,9-23.06,13.82-36.51,16.24C818.6,357.07,812.12,357.46,805.7,358.19Z" transform="translate(-11.06 -52.34)"/><path class="cls-58" d="M844,239.79c.72,1.46,1.91,2.87,2.07,4.38.64,6.44.92,12.91,1.48,19.35.11,1.19,1,3.35,1.37,3.31,2.13-.21,1.61-2.1,1.54-3.5-.32-6.2-.63-12.4-1.14-18.59a9,9,0,0,0-5.1-7.76,3.3,3.3,0,0,1-1.42-2.45,87.31,87.31,0,0,1,.19-12c1.28-11,3.45-21.82,9.41-31.41,2.16-3.48,4.78-6.66,7.1-10a8.34,8.34,0,0,0,.73-2.48c-.93.11-2.16-.12-2.72.39a25.55,25.55,0,0,0-4,4.54c-5.58,8.16-9.83,16.93-11.62,26.75a10.4,10.4,0,0,1-.65,2.36c-.2-2.26-.57-5.4-.74-7.66q-1.12-15.18-2.21-30.38c-.26-3.65-.15-3.86,3.79-9.87,8.44,2.54,16.65,5.66,23.79,11.1,8.19,6.24,10.55,15.16,11.13,24.78.64,10.42-1.51,20.56-3.59,30.67-3.23,15.69-6.89,31.28-12.61,46.28-2.22,5.82-4.82,11.47-9,16.21-6.94,7.83-15.81,10.92-26.08,10.35-3.86-.21-6.71-2.19-8.83-5.39a37.85,37.85,0,0,1-6.31-19.5c-.4-8.65-.55-17.32-.53-26a22,22,0,0,1,1.89-7.71c1,4.38,2.38,8.2,6.32,10.56a16.6,16.6,0,0,0,11.14,2.08,17.61,17.61,0,0,0,11.32-6c3.06-3.55,3.18-7.72,2.27-12.13Z" transform="translate(-11.06 -52.34)"/><path class="cls-58" d="M762.5,211.65c3.41.41,6.44,1.15,9.45,1.06,5.68-.15,9.93-3,11.91-8.37a92.55,92.55,0,0,0,3.73-13.61c.4-2,1.16-2.42,2.92-2.78,5.46-1.11,10.9-2.34,16.25-3.85,2-.57,3.8-2,6.09-3.34a21,21,0,0,1,.26,2.59q-.45,28.08-1,56.16a4.6,4.6,0,0,1-1.18,3,12.83,12.83,0,0,0-3.89,9.45c-.12,5.68-.08,11.37-.11,17.05v3.39L780.26,270c-.61-7.28-4.84-9-11.23-8.9-2.76.06-3.73-1-4.45-3.44-3.62-12.48-3.94-25.18-2.85-38C762,217,762.25,214.27,762.5,211.65Z" transform="translate(-11.06 -52.34)"/><path class="cls-58" d="M801.25,687,758.05,694c-.23-2.76-.47-5.33-.64-7.9q-1.11-16.77-2.16-33.55a5.46,5.46,0,0,1,.42-2.5q16.29-35.55,32.65-71.08c.17-.37.4-.73,1-1.76C793.32,614.17,797.27,650.46,801.25,687Z" transform="translate(-11.06 -52.34)"/><path class="cls-58" d="M755.41,178.48l4.1,4.11c-3.55,5.92-4.51,13.11-2.78,20.67a7.28,7.28,0,0,0,1,2.94c2.24,2.68,1.64,5.67,1.34,8.71-1.28,12.94-1.69,25.86,1.33,38.65.56,2.37,1.33,4.68,2.1,7.36-2.45-.13-4.69-.36-6.92-.29a1.36,1.36,0,0,0-.54,2.6l.19,0c3.91.38,7.85.55,11.78.77,1,.06,2,0,3,0,4.85.15,7.71,4.05,6.35,8.7-1.82,6.24-4.23,12.31-6.63,18.36-2,5.09-2.19,5-7.73,4.91a121,121,0,0,1-25.64-3.8c-4.42-1.06-6.8-3.8-6.95-8-.26-7.15-.57-14.37.14-21.47,2.55-25.5,8.47-50.17,19.79-73.34,1.76-3.61,3.75-7.11,5.65-10.66a12.2,12.2,0,0,1,.72-1.05Z" transform="translate(-11.06 -52.34)"/><path class="cls-58" d="M807.82,142.52c2.22,3.17,4.52,6.3,6.65,9.53,1.57,2.39,2.71,2.78,4.25.41a10.33,10.33,0,0,0,1.75-6.52c-.42-2.72-2.06-5.28-3.33-7.84-.76-1.51-1.82-2.87-2.53-4.43,5.64,3.46,10.73,7.22,10.6,14.83,0,1,1.48,2,2.28,3,.59-.95,1.53-1.83,1.73-2.86a25.93,25.93,0,0,0-2.46-17.82,13,13,0,0,1-1.23-5.23c4.42,2.84,8.19,6.06,8.45,11.71.13,2.89,0,5.79.2,8.66.06.82.92,1.58,1.41,2.36.44-.75,1.2-1.47,1.28-2.25.51-5,.81-10.11,1.34-15.15a35.62,35.62,0,0,1,1.44-5.27c.48.79.76,1,.76,1.28,0,9.88.33,19.79-.2,29.64-.2,3.84-2.05,7.69-3.66,11.32a12.34,12.34,0,0,0-1.4,6.19q2.61,33.9,5.06,67.83c.51,6.91-2.41,11.11-9.24,12.74a19.28,19.28,0,0,1-7.26.28,9.17,9.17,0,0,1-8.27-9.38c-.13-13.74-.09-27.49,0-41.23.08-7.44.52-14.87.74-22.31a3.76,3.76,0,0,0-.62-2.4c-5.08-5.74-5-12.31-2.89-19a6.23,6.23,0,0,0-.66-5.56,96.15,96.15,0,0,1-4.42-9.21,12.8,12.8,0,0,1-.59-2.93Z" transform="translate(-11.06 -52.34)"/><path class="cls-58" d="M799.59,149.75a.89.89,0,0,1-1,1.07,19.11,19.11,0,0,1-9.06-3.78c-11-8-16.59-25.15-12.75-38.65a12.68,12.68,0,0,0,.4-3.84c-.22-7,.43-13.82,3.16-20.31A21.23,21.23,0,0,1,782.85,80a.89.89,0,0,1,1.6.49,23,23,0,0,0,.45,4c1.19,5.09,4.36,8.89,8.52,11.9a35.23,35.23,0,0,0,15.77,6c3.28.5,7.16.34,9,4.29a1.82,1.82,0,0,0,1.72.45,1.91,1.91,0,0,0,.75-1.69,9.49,9.49,0,0,0-1-2.08.88.88,0,0,1,.8-1.34c.47.06.8.5,1,1.45,1.19,5,4.57,7.62,9.6,8.34,2.25.33,4.49.78,6.09,2a.89.89,0,0,1,0,1.41c-2.64,2.06-5.19,4.11-7.85,6a6.12,6.12,0,0,1-3.17,1c-2.43.09-3.68,1.54-3.65,3.61,0,2.26-1.7,2.81-2.8,4-1.37,1.55-2.64,1.31-4.37.55A3.61,3.61,0,0,0,812,131c-.65.68-.69,2.27-.47,3.36.48,2.48-1.43,5.13-4,4.89-1.84-.17-3.1.59-3.26,2.21a4.81,4.81,0,0,1-2.78,4.1A3.43,3.43,0,0,0,799.59,149.75Zm-9.18-38.43c0-3.54-2-6.3-4.35-6.23s-4.15,3-4,6.51,2.22,6,4.52,5.82S790.44,114.69,790.41,111.32Zm16.37,2.22v.11c0,3.32,1.47,5.64,3.61,5.84,2,.19,3.78-1.86,4.29-4.83a9.64,9.64,0,0,0,.17-1.3c.14-3-1.27-5.55-3.31-5.86s-3.95,1.66-4.58,4.82C806.87,112.79,806.82,113.28,806.78,113.54Zm-14,10.18a.92.92,0,0,0,0,.81,25.54,25.54,0,0,0,2.42,4c.24.28.86.24,1.51.18a.89.89,0,0,0,.79-1.07c-.09-.41-.18-.83-.28-1.24a13.93,13.93,0,0,1-.8-3.56c0-1,1-1.84,1.22-2.83a3.35,3.35,0,0,0-.07-1.4.89.89,0,0,0-1-.71c-.56.11-1.11.22-1.3.54A53,53,0,0,0,792.8,123.72Zm8.34,15.68.8-.54a.89.89,0,0,0,0-1.46,4.61,4.61,0,0,0-1.77-.91,53.41,53.41,0,0,0-7.58-.71,2.61,2.61,0,0,0-1.37.51.9.9,0,0,0-.21,1.35,2.69,2.69,0,0,0,1.29,1c2.42.44,4.88.59,8.25.93A.86.86,0,0,0,801.14,139.4ZM787.28,97.19a.9.9,0,0,0-.9-.1c-2.31,1-4.54,2-6.63,3.14-.34.19-.36,1-.4,1.68a.87.87,0,0,0,.74.92,2.52,2.52,0,0,0,1.25,0,53.77,53.77,0,0,0,5.93-2.42,3.86,3.86,0,0,0,1.19-1.13.89.89,0,0,0-.14-1.24Z" transform="translate(-11.06 -52.34)"/><path class="cls-58" d="M745.16,728.6c2.6-1.74,5.18-3.51,7.81-5.21,5-3.23,10-6.39,14.95-9.68a2.5,2.5,0,0,0,.76-2.11c-1-5.13-2.07-10.24-3.21-15.73l27.8-4.45c1.84,9,3.61,17.72,5.46,26.8L745.33,729Z" transform="translate(-11.06 -52.34)"/><path class="cls-58" d="M700.12,686.42l22.74,10.23c-4.51,8-8.54,16-18,19.53-12.11,4.5-24,9.56-36.76,12.08a4.62,4.62,0,0,1-1.93,0C679.6,716.12,690.59,702.08,700.12,686.42Z" transform="translate(-11.06 -52.34)"/><path class="cls-58" d="M771.84,294.64,780.08,273l26.58,2.4c1.26,6.49,2.48,12.7,3.75,19.22Z" transform="translate(-11.06 -52.34)"/><path class="cls-58" d="M792.33,152.6c2.67.52,5.17.89,7.58,1.56a3.1,3.1,0,0,1,1.59,2c1.5,5.12,2.85,10.28,4.35,15.4.24.83.94,2,1.58,2.14,2.35.4,2.39,2.39,2.85,3.9.18.56-.77,1.82-1.51,2.25a39.6,39.6,0,0,1-15.4,4.88c-1.54.19-3.09.3-5,.49C789.68,174.14,791,163.42,792.33,152.6Z" transform="translate(-11.06 -52.34)"/><path class="cls-58" d="M860.94,310.84,845,303.76l12.36-11.1C861.49,295.37,863.65,306.7,860.94,310.84Z" transform="translate(-11.06 -52.34)"/><path d="M790.41,111.32c0,3.37-1.57,5.93-3.8,6.1s-4.33-2.45-4.52-5.82,1.62-6.44,4-6.51S790.38,107.78,790.41,111.32Z" transform="translate(-11.06 -52.34)"/><path d="M806.78,113.59c0-.24.08-.76.18-1.27.63-3.16,2.52-5.14,4.58-4.82s3.45,2.81,3.31,5.86a9.64,9.64,0,0,1-.17,1.3c-.51,3-2.34,5-4.29,4.83C808.24,119.29,806.73,116.94,806.78,113.59Z" transform="translate(-11.06 -52.34)"/><path d="M794,126.57a5.51,5.51,0,0,1-.24-4.94,29.94,29.94,0,0,1,1.58-3.21.76.76,0,0,1,.36-.29,1.51,1.51,0,0,1,2.09,1.49,2.2,2.2,0,0,1,0,.37c-.25,1-1.18,1.87-1.22,2.83a13.93,13.93,0,0,0,.8,3.56c0,.15.07.29.1.43a1.53,1.53,0,0,1-1.77,1.88.62.62,0,0,1-.35-.18A13.67,13.67,0,0,1,794,126.57Z" transform="translate(-11.06 -52.34)"/><path d="M801.3,139.3a1.44,1.44,0,0,1-.93.23c-3.27-.33-5.69-.48-8.06-.91a1.61,1.61,0,0,1-.73-.4,1.39,1.39,0,0,1,.42-2.33,1.59,1.59,0,0,1,.6-.11,53.41,53.41,0,0,1,7.58.71,3.33,3.33,0,0,1,1.08.44,1.41,1.41,0,0,1,.06,2.36Z" transform="translate(-11.06 -52.34)"/><path d="M787.6,97.45h0a1.77,1.77,0,0,1-.33,3h0a53.77,53.77,0,0,1-5.93,2.42l-.2,0a1.55,1.55,0,0,1-1.74-1.73c0-.44.13-.8.35-.92,2-1.12,4.1-2,6.29-3A1.5,1.5,0,0,1,787.6,97.45Z" transform="translate(-11.06 -52.34)"/></svg>