<svg id="레이어_1" data-name="레이어 1" xmlns="http://www.w3.org/2000/svg" viewBox="0 0 489.07 1281.42"><defs><style>.cls-1{fill:#888;}.cls-2{fill:#fff;}</style></defs><title>Woman</title><path class="cls-1" d="M225.17,1313.44S97.58,1236.58,101.67,1176a21.9,21.9,0,0,1,22.73-20.29c9.49.4,21.88,3.58,34.39,14.41,0,0-30.1-30.51-28.14-63.26,1.14-18.94,17.2-33.28,36.18-32.91a69.59,69.59,0,0,1,32.46,8.67s-44.43-72.76-37-109a23.07,23.07,0,0,1,26.62-17.87c8.41,1.45,20.45,4.57,23.93,10.89,0,0-3.5-171,37.5-164.5,0,0,40,11,23,168,0,0,45-17,59-8.5l.5,54.5L279,1088.33s48.29-11.69,53.29-2.19l1.5,64.5s-21.5,23-28.5,26.5c0,0,24-3,29-1.5l3,47.75-13,35.75s-55,47.61-95.54,54.61V1324l43.93-.11a4.14,4.14,0,0,1,4.14,4.35L264,1584.64l-58,.25-29.48-255.44a4.15,4.15,0,0,1,4.07-4.62l44.29-.55Z" transform="translate(-101.57 -340.25)"/><path d="M367.45,1552.73l-7.16,1.07c-6.38,1-7.36.32-7.79-6-1.22-18-2.35-35.91-3.52-53.87-.32-4.81-.66-9.62-1.05-15.4-1,1.55-1.68,2.34-2.13,3.22q-17.35,34.5-34.65,69a33.1,33.1,0,0,0-2.11,5.54c-1.19,4.07-3.09,4.83-6.49,2.5-1.48-1-3.11-1.85-5.26-3.11-3.1,5-6.39,9.6-8.94,14.57-5,9.7-12.09,17.22-21.8,22a348,348,0,0,1-80,27.26c-1,.21-4.35.77-5.21.5a8.32,8.32,0,0,1-5-3.29c-.79-1,.89-5,2.45-6.68,11.5-12.69,23.88-24.63,34.76-37.83,10.23-12.42,18.95-26.08,28.78-39.8-3.17-1.56-5.71-3-8.41-4.07-4.27-1.65-5.34-4.23-3.89-8.61,7.78-23.54,15.33-47.16,23.07-70.71q28.37-86.33,56.77-172.63c4.24-12.94,8.08-26,11.82-39.12a32.47,32.47,0,0,0,.81-9.86q-1-26.67-2.24-53.34c-1.12-23.59-2.84-47.17-3.4-70.77-.51-22,.16-43.94.33-65.92.12-16.14-.55-32.33.58-48.4,2.55-36.18,4.29-72.58,15.22-107.52,2.89-9.23,4.85-17.43-.79-26.1-3.44-5.29.47-10.34,3.42-17.17,5.28-12.2,7.78-17.39,15.44-33.16,1.55-3.18,2.11-5.46,3.59-8.4-8.77-1.49-17.25-2.81-25.68-4.4-5.06-.95-10.05-2.31-15.06-3.53-9.75-2.38-14.11-9.3-15.54-18.62-2.72-17.66-1.18-35.25,1.1-52.79C304.61,678,313.12,639.51,328.9,603a20.75,20.75,0,0,0,.7-2.35c-19.05-2.53-27.57-9.7-28.44-23.75-.84-13.75,9.8-24.56,29.69-30,.24-3.05.08-6.26.8-9.26,3.64-15.29,15-22.33,29.1-25.29,5.27-1.11,7.32-2.71,7.93-8.16,1.46-13.1,9.2-20.95,22.92-23.66-2.38-5.08-2.2-10.32-7.58-14.39-13.11-9.9-14.8-34.24-3.94-48.25a25.37,25.37,0,0,0,5.26-12.48c3-19.9,10.72-37.64,26.86-50.35,22.18-17.46,47.22-18,72.48-8.89,51,18.49,70,82.68,37.9,125.72-1.29,1.73-1.49,4.59-1.51,6.92-.09,15,.1,30,0,45,0,3.78-.82,7.56-1.29,11.53,4.43,1.49,8.7,2.81,12.87,4.39,4.36,1.64,8.6,3.59,12.93,5.32,31.89,12.72,46.27,37.14,45,70.49-.65,17.21-3.47,34.45-6.68,51.42-5.89,31.1-13.35,61.86-24.78,91.48-2.63,6.82-5.93,13.38-9.17,20.59,11.21,8.67,12.18,21.48,11.71,34.5a21.49,21.49,0,0,1-3.9,11,8.23,8.23,0,0,0-1.42,7.25c2.63,12.31,5.08,24.65,7.9,36.91a6.91,6.91,0,0,1-2.6,7.21c-3,2.11-3.7,5-3.79,8.72-.59,27.14-.69,54.32-2.51,81.38-2.76,41-15.92,79.45-31.59,117.15-31.87,76.72-63.09,153.72-99.38,228.53a14.84,14.84,0,0,0-1.27,7.65q6.54,61.88,13.37,123.72c3.29,30.3,6.51,60.62,9.9,90.91.51,4.54-1.34,6.51-5.55,7.06-2.95.38-5.88.93-9.5,1.52,1.72,8.68,3.33,17.1,5.08,25.49,1.88,8.95,3.88,17.88,5.87,26.81.72,3.25-.9,4.52-3.83,5.11q-45.31,9-90.61,18.18c-5.87,1.18-11.75,2.39-17.63,3.55a9.81,9.81,0,0,1-4.44-.44c-2-1-3-1.46-4.26-3.19-.37-.5,1.5-3.39,2.92-4.35q21.85-14.83,44-29.31c2.89-1.89,4-3.65,3.22-7.24C369.94,1569.24,368.87,1561.33,367.45,1552.73Zm-39.09-336.91,1,.15c.54-1.5,1.11-3,1.6-4.49q39-120.18,78.07-240.34c.74-2.3.85-6.29,4.67-5s1.16,4.42.77,6.81a4.43,4.43,0,0,1-.17.47q-88.11,271.49-176.22,543c-.6,1.84-1,3.74-1.62,5.85l67.17,30.2c.86-1.55,1.46-2.54,2-3.57,25.68-53.41,51.81-106.61,76.92-160.29C430.78,1285.39,478.41,1182,520.35,1076c10.06-25.42,19.68-51,24.7-78,6-32.41,7.91-65.12,7.25-98-.1-5.21,0-10.43,0-16.17-3.39,2.21-6.11,4.1-8.93,5.81-3,1.8-6,3.59-9.15,5.13-37.43,18.4-76.89,23.3-117.77,16.6-28.36-4.64-54.28-14.78-73.91-37.13-.17-.19-.31-.28-1.57-.85-2.86,12-6.61,24.49-8.91,36.69-6.28,33.34-7.72,67.15-8.58,101-1.43,55.84-.08,111.63,2.82,167.4C326.94,1190.94,327.67,1203.38,328.36,1215.82ZM449.13,909.19c12.22-1.39,24.56-2.14,36.64-4.32,25.6-4.62,49.3-13.87,69.48-30.92,2.64-2.23,3.36-4.39,2.61-7.73-2.8-12.51-5.16-25.12-8.15-37.58-.66-2.75-2.66-6.11-5-7.34-6.43-3.36-13.57-5.35-20.07-8.6-7.75-3.87-15.15-2.82-23.29-1.24-15.44,3-29.3.25-37.75-15.23-.65-1.19-2.87-2.08-4.4-2.12-6.49-.19-13-.13-19.49.07-25.23.77-50.46,1.57-75.68,2.58-1.48.06-3.49,1.7-4.22,3.14-6.74,13.18-13.74,26.16-20,39.66-4.31,7.84-3,14.68,1.14,21.53A88.08,88.08,0,0,0,350.24,874c7.88,8.82,17.73,15.07,28.39,20C401,904.36,424.59,908.33,449.13,909.19Zm72.8-225.34-1.87.44c1.74,8.4,1.51,16.33-4.31,23.09a33.59,33.59,0,0,1-21.56,11.48,31.62,31.62,0,0,1-21.19-4c-7.49-4.5-10.15-11.77-12-20.09-1.89,4.88-3.61,9.78-3.61,14.67,0,16.48.25,33,1,49.44a72,72,0,0,0,12,37.11c4.05,6.09,9.46,9.85,16.81,10.26,19.55,1.07,36.42-4.8,49.63-19.71,8-9,12.92-19.76,17.14-30.84,10.89-28.56,17.85-58.21,24-88.07,4-19.25,8.06-38.55,6.84-58.38-1.12-18.29-5.6-35.28-21.19-47.15C550,551.79,534.4,545.86,518.36,541c-7.51,11.45-7.72,11.84-7.22,18.79q2.05,28.92,4.21,57.82c.32,4.3.73,8.59,1.1,12.88a4.31,4.31,0,0,0,1.54-2.79c3.41-18.7,11.49-35.38,22.11-50.92a48.79,48.79,0,0,1,7.53-8.63,2.26,2.26,0,0,1,.64-.38c2.42-.93,4.62,1.93,3.29,4.15l-.13.2c-4.41,6.43-9.41,12.49-13.51,19.1C526.57,609.49,522.45,630.08,520,651c-.87,7.53-.53,15.22-.36,22.82a6.31,6.31,0,0,0,2.7,4.68c6.19,3.12,9.16,8.29,9.69,14.76,1,11.77,1.57,23.58,2.18,35.38.13,2.66,1.13,6.25-2.93,6.66-.68.07-2.4-4-2.6-6.3-1.07-12.26-1.6-24.58-2.83-36.82C525.57,689.31,523.29,686.63,521.93,683.85Zm-155-53.54c-.49,5-1,10.09-1.48,15.2-2.07,24.39-1.46,48.55,5.44,72.3,1.37,4.71,3.21,6.66,8.45,6.56,12.18-.25,20.23,3.08,21.38,16.93l50.78,4.57c0-2.54,0-4.5,0-6.46.05-10.82,0-21.64.2-32.45.14-6.86,2.21-13,7.4-18a8.8,8.8,0,0,0,2.25-5.65q1.09-53.43,1.89-106.88a46,46,0,0,0-.5-4.92c-4.36,2.45-7.73,5.26-11.59,6.35-10.19,2.88-20.55,5.21-30.92,7.32-3.37.69-4.81,1.56-5.57,5.29a176.28,176.28,0,0,1-7.09,25.91c-3.77,10.14-11.87,15.64-22.67,15.93C379.18,632.49,373.41,631.09,366.93,630.31ZM440.67,1535c-7.58-69.61-15.09-138.67-22.75-209.08-1.1,2-1.53,2.63-1.86,3.35q-31.1,67.62-62.13,135.26a10.33,10.33,0,0,0-.81,4.76q2,31.93,4.11,63.85c.32,4.9.79,9.78,1.23,15ZM353.42,567.19l.67-1.5a20.8,20.8,0,0,0-1.37,2c-3.62,6.74-7.41,13.4-10.77,20.28-21.54,44.09-32.8,91-37.66,139.57-1.35,13.5-.75,27.26-.26,40.86.28,8,4.81,13.25,13.23,15.28,16.07,3.88,32.23,6.85,48.8,7.23,10.54.25,10.86.33,14.7-9.35,4.56-11.51,9.16-23.07,12.62-34.94,2.5-8.58-2.76-16.17-11.69-16.54-2-.08-4.06,0-6.08-.09-7.48-.42-15-.74-22.43-1.46-1.42-.14-2.69-1.88-4-2.89,1.56-.74,3.11-2.08,4.69-2.13,4.25-.11,8.52.32,13.18.56-1.47-5.09-2.94-9.5-4-14-5.75-24.35-5-48.94-2.53-73.57.57-5.78,1.72-11.47-2.54-16.58-1.19-1.43-1.57-3.66-2-5.59-3.28-14.39-1.45-28.06,5.29-39.33Zm99.75-68.44-1.47.78c.35,1.86.37,3.88,1.12,5.57a183.27,183.27,0,0,0,8.41,17.53,11.81,11.81,0,0,1,1.26,10.59c-3.92,12.75-4.15,25.26,5.5,36.17a7.08,7.08,0,0,1,1.18,4.57c-.41,14.15-1.25,28.3-1.4,42.45q-.4,39.24-.09,78.47c.09,9.63,6.23,16.43,15.73,17.86a37.14,37.14,0,0,0,13.82-.53c13-3.12,18.55-11.1,17.58-24.27q-4.72-64.55-9.62-129.08c-.34-4.36.93-7.86,2.67-11.78,3.05-6.89,6.56-14.23,6.95-21.53,1-18.76.4-37.6.39-56.41,0-.47-.54-.94-1.46-2.43-1.13,4-2.42,7-2.74,10-1,9.59-1.57,19.22-2.55,28.81-.16,1.5-1.59,2.87-2.43,4.3-.94-1.49-2.57-2.94-2.68-4.49-.4-5.47-.14-11-.39-16.48-.49-10.77-7.67-16.89-16.07-22.29a24.58,24.58,0,0,0,2.33,10c5.77,10.78,7,22.12,4.69,33.91-.39,2-2.17,3.64-3.3,5.45-1.51-1.93-4.36-3.88-4.33-5.78.24-14.47-9.45-21.63-20.19-28.22,1.37,3,3.38,5.56,4.82,8.44,2.42,4.86,5.54,9.74,6.34,14.93.6,3.92-1.07,8.91-3.32,12.39-2.93,4.52-5.11,3.77-8.09-.77C461.77,510.73,457.4,504.79,453.17,498.75Zm-15.05,16c-1.43-4.43-1.44-8,3.08-10.33a9.17,9.17,0,0,0,5.29-7.8c.31-3.09,2.7-4.54,6.21-4.21,4.85.45,8.49-4.58,7.56-9.31-.4-2.07-.32-5.09.9-6.38s4.56-1.88,6.25-1.13c3.29,1.45,5.71,1.9,8.31-1,2.09-2.36,5.38-3.41,5.33-7.71-.05-3.94,2.31-6.7,6.95-6.88a11.56,11.56,0,0,0,6-1.85c5.59-4,10.92-8.32,16.51-12.65-3-3.51-8.07-4.59-13.16-5.32-9.56-1.37-16-6.32-18.26-15.88-.75-3.16-2.09-3.33-4.43-1.93,1,1.92,2.31,3.7,2.88,5.69a3.59,3.59,0,0,1-1.42,3.2c-.76.41-2.95-.15-3.28-.86-3.46-7.51-10.83-7.19-17.09-8.15-10.91-1.66-21-4.91-30-11.39-7.91-5.71-14-12.94-16.21-22.64-.9-3.89-.79-8-1.14-12a45.21,45.21,0,0,0-7.49,11.66c-5.2,12.35-6.43,25.38-6,38.66a24.46,24.46,0,0,1-.77,7.29c-7.3,25.7,3.41,58.37,24.26,73.56C424.12,511.51,430.35,514.34,438.12,514.77ZM334,1614.09l.31.74,101.61-20.48c-3.52-17.29-6.89-33.87-10.38-51l-52.92,8.46c2.18,10.46,4.28,20.18,6.12,30a4.8,4.8,0,0,1-1.44,4c-9.41,6.26-19,12.27-28.47,18.41C343.79,1607.41,338.89,1610.78,334,1614.09Zm-85.75-80.25c-18.12,29.8-39,56.51-64.55,79.61a9,9,0,0,0,3.66,0c24.27-4.8,46.92-14.43,70-23,18-6.68,25.63-21.94,34.21-37.16ZM384.7,788.25h73.4c-2.42-12.42-4.73-24.23-7.14-36.58l-50.58-4.56Zm39-270.32c-2.53,20.58-5,41-7.62,62,3.74-.36,6.68-.57,9.61-.94C436,577.67,446,575,455,569.7c1.4-.83,3.21-3.21,2.88-4.28-.88-2.89-1-6.67-5.43-7.43-1.22-.21-2.54-2.5-3-4.07-2.86-9.74-5.41-19.57-8.28-29.3-.42-1.45-1.74-3.36-3-3.72C433.53,519.62,428.77,518.92,423.68,517.93ZM554.26,819.08c5.15-7.89,1-29.44-6.75-34.61L524,805.61Z" transform="translate(-101.57 -340.25)"/><path class="cls-2" d="M328.36,1215.82c-.69-12.44-1.42-24.88-2.07-37.32-2.9-55.77-4.25-111.56-2.82-167.4.86-33.83,2.3-67.64,8.58-101,2.3-12.2,6.05-24.65,8.91-36.69,1.2.64,1.31.67,1.57.85,19.63,22.35,45.55,32.49,73.91,37.13,40.88,6.7,80.34,1.8,117.77-16.6,3.14-1.54,6.16-3.33,9.15-5.13,2.82-1.71,5.54-3.6,8.93-5.81,0,5.74-.09,11,0,16.17.66,32.9-1.22,65.61-7.25,98-5,27-14.64,52.53-24.7,78-41.94,105.94-89.57,209.38-137.82,312.54-25.11,53.68-51.24,106.88-76.92,160.29-.5,1-1.1,2-2,3.57l-67.17-30.2c.58-2.11,1-4,1.62-5.85q88.1-271.48,176.22-543a4.43,4.43,0,0,0,.17-.47c.39-2.39,3.07-5.55-.77-6.81s-3.93,2.73-4.67,5Q370,1091.29,331,1211.48c-.5,1.54-1.08,3-1.62,4.56Z" transform="translate(-101.57 -340.25)"/><path class="cls-2" d="M449.13,909.19c-24.54-.86-48.18-4.83-70.5-15.2-10.66-5-20.51-11.2-28.39-20A88.08,88.08,0,0,1,341,861.09c-4.17-6.85-5.45-13.69-1.14-21.53,7.13-13,13.24-26.48,20-39.66.73-1.44,2.74-3.08,4.22-3.14,25.22-1,50.45-1.81,75.68-2.58,6.5-.2,13-.26,19.49-.07,1.53,0,3.75.93,4.4,2.12,8.45,15.48,22.31,18.21,37.75,15.23,8.14-1.58,15.54-2.63,23.29,1.24,6.5,3.25,13.64,5.24,20.07,8.6,2.35,1.23,4.35,4.59,5,7.34,3,12.46,5.35,25.07,8.15,37.58.75,3.34,0,5.5-2.61,7.73-20.18,17-43.88,26.3-69.48,30.92C473.69,907.05,461.35,907.8,449.13,909.19Z" transform="translate(-101.57 -340.25)"/><path class="cls-2" d="M521.93,683.85c1.36,2.78,3.64,5.46,3.93,8.35,1.23,12.24,1.76,24.56,2.83,36.82.2,2.27,1.92,6.37,2.6,6.3,4.06-.41,3.06-4,2.93-6.66-.61-11.8-1.2-23.61-2.18-35.38-.53-6.47-3.5-11.64-9.69-14.76a6.31,6.31,0,0,1-2.7-4.68c-.17-7.6-.51-15.29.36-22.82,2.44-20.94,6.56-41.53,17.91-59.79,4.1-6.61,9.1-12.67,13.51-19.1.88-1.28.94-3.13,1.39-4.72-1.77.21-4.11-.22-5.19.75a48.79,48.79,0,0,0-7.53,8.63C529.48,592.33,521.4,609,518,627.71a19.51,19.51,0,0,1-1.24,4.48c-.37-4.3-1.08-10.27-1.4-14.57q-2.13-28.9-4.21-57.82c-.5-6.95-.29-7.34,7.22-18.79,16,4.85,31.67,10.78,45.26,21.13C579.21,574,583.69,591,584.81,609.29c1.22,19.83-2.87,39.13-6.84,58.38-6.15,29.86-13.11,59.51-24,88.07-4.22,11.08-9.17,21.84-17.14,30.84-13.21,14.91-30.08,20.78-49.63,19.71-7.35-.41-12.76-4.17-16.81-10.26a72,72,0,0,1-12-37.11c-.77-16.46-1-33-1-49.44,0-4.89,1.72-9.79,3.61-14.67,1.87,8.32,4.53,15.59,12,20.09a31.62,31.62,0,0,0,21.19,4,33.59,33.59,0,0,0,21.56-11.48c5.82-6.76,6-14.69,4.31-23.09Z" transform="translate(-101.57 -340.25)"/><path class="cls-2" d="M366.93,630.31c6.48.78,12.25,2.18,18,2,10.8-.29,18.9-5.79,22.67-15.93a176.28,176.28,0,0,0,7.09-25.91c.76-3.73,2.2-4.6,5.57-5.29,10.37-2.11,20.73-4.44,30.92-7.32,3.86-1.09,7.23-3.9,11.59-6.35a46,46,0,0,1,.5,4.92q-.87,53.44-1.89,106.88a8.8,8.8,0,0,1-2.25,5.65c-5.19,5-7.26,11.12-7.4,18-.23,10.81-.15,21.63-.2,32.45,0,2,0,3.92,0,6.46l-50.78-4.57c-1.15-13.85-9.2-17.18-21.38-16.93-5.24.1-7.08-1.85-8.45-6.56-6.9-23.75-7.51-47.91-5.44-72.3C365.89,640.4,366.44,635.29,366.93,630.31Z" transform="translate(-101.57 -340.25)"/><path class="cls-2" d="M440.67,1535l-82.21,13.18c-.44-5.26-.91-10.14-1.23-15q-2.12-31.92-4.11-63.85a10.33,10.33,0,0,1,.81-4.76q31-67.65,62.13-135.26c.33-.72.76-1.38,1.86-3.35C425.58,1396.33,433.09,1465.39,440.67,1535Z" transform="translate(-101.57 -340.25)"/><path class="cls-2" d="M353.42,567.19l7.81,7.82c-6.74,11.27-8.57,24.94-5.29,39.33.44,1.93.82,4.16,2,5.59,4.26,5.11,3.11,10.8,2.54,16.58-2.44,24.63-3.22,49.22,2.53,73.57,1.06,4.49,2.53,8.9,4,14-4.66-.24-8.93-.67-13.18-.56a3.34,3.34,0,0,0-.76.12c-2.42.63-2.66,4.17-.25,4.83a1.45,1.45,0,0,0,.35.07c7.45.72,14.95,1,22.43,1.46,1.89.11,3.79,0,5.69.08,9.22.27,14.66,7.71,12.08,16.56-3.46,11.86-8.06,23.43-12.62,34.93-3.84,9.68-4.16,9.6-14.7,9.35-16.57-.38-32.73-3.35-48.8-7.23-8.42-2-12.95-7.24-13.23-15.28-.49-13.6-1.09-27.36.26-40.86C309.15,679,320.41,632.06,342,588c3.36-6.88,7.15-13.54,10.77-20.28a20.8,20.8,0,0,1,1.37-2Z" transform="translate(-101.57 -340.25)"/><path class="cls-2" d="M453.17,498.75c4.23,6,8.6,12,12.66,18.14,3,4.54,5.16,5.29,8.09.77,2.25-3.48,3.92-8.47,3.32-12.39-.8-5.19-3.92-10.07-6.34-14.93-1.44-2.88-3.45-5.47-4.82-8.44,10.74,6.59,20.43,13.75,20.19,28.22,0,1.9,2.82,3.85,4.33,5.78,1.13-1.81,2.91-3.49,3.3-5.45,2.34-11.79,1.08-23.13-4.69-33.91a24.58,24.58,0,0,1-2.33-10c8.4,5.4,15.58,11.52,16.07,22.29.25,5.49,0,11,.39,16.48.11,1.55,1.74,3,2.68,4.49.84-1.43,2.27-2.8,2.43-4.3,1-9.59,1.54-19.22,2.55-28.81.32-3.05,1.61-6,2.74-10,.92,1.49,1.45,2,1.46,2.43,0,18.81.61,37.65-.39,56.41-.39,7.3-3.9,14.64-6.95,21.53-1.74,3.92-3,7.42-2.67,11.78q4.95,64.53,9.62,129.08c1,13.17-4.59,21.15-17.58,24.27a37.14,37.14,0,0,1-13.82.53c-9.5-1.43-15.64-8.23-15.73-17.86q-.37-39.24.09-78.47c.15-14.15,1-28.3,1.4-42.45a7.08,7.08,0,0,0-1.18-4.57c-9.65-10.91-9.42-23.42-5.5-36.17a11.81,11.81,0,0,0-1.26-10.59,183.27,183.27,0,0,1-8.41-17.53c-.75-1.69-.77-3.71-1.12-5.57Z" transform="translate(-101.57 -340.25)"/><path class="cls-2" d="M437.51,512.5a1.7,1.7,0,0,1-1.85,2,36.31,36.31,0,0,1-17.24-7.2c-20.85-15.19-31.56-47.86-24.26-73.56a24.46,24.46,0,0,0,.77-7.29c-.43-13.28.8-26.31,6-38.66a41.43,41.43,0,0,1,4.71-8.16,1.69,1.69,0,0,1,3.05.92,43.57,43.57,0,0,0,.87,7.6c2.25,9.7,8.3,16.93,16.21,22.64,9,6.48,19.09,9.73,30,11.39,6.26,1,13.63.64,17.09,8.15.33.71,2.52,1.27,3.28.86a3.59,3.59,0,0,0,1.42-3.2,17.82,17.82,0,0,0-1.9-4,1.67,1.67,0,0,1,1.51-2.55c.89.12,1.51,1,1.94,2.76,2.27,9.56,8.7,14.51,18.26,15.88,4.3.61,8.55,1.48,11.6,3.86a1.7,1.7,0,0,1,0,2.68c-5,3.92-9.88,7.82-15,11.43a11.56,11.56,0,0,1-6,1.85c-4.64.18-7,2.94-6.95,6.88.05,4.3-3.24,5.35-5.33,7.71-2.6,2.94-5,2.49-8.31,1-1.69-.75-5-.16-6.25,1.13s-1.3,4.31-.9,6.38c.93,4.73-2.71,9.76-7.56,9.31-3.51-.33-5.9,1.12-6.21,4.21a9.17,9.17,0,0,1-5.29,7.8C437.48,506.34,436.83,509.11,437.51,512.5ZM420,439.38c-.07-6.75-3.73-12-8.27-11.86s-7.92,5.77-7.56,12.39c.35,6.42,4.21,11.4,8.6,11.07S420.09,445.79,420,439.38Zm31.16,4.21a1.8,1.8,0,0,0,0,.22c-.06,6.32,2.81,10.73,6.89,11.12,3.71.35,7.18-3.55,8.17-9.21a20.42,20.42,0,0,0,.31-2.46c.27-5.8-2.43-10.56-6.29-11.16s-7.53,3.17-8.72,9.17C451.36,442.18,451.26,443.1,451.2,443.59ZM424.58,463a1.7,1.7,0,0,0,.07,1.52,47.47,47.47,0,0,0,4.61,7.58c.45.54,1.63.46,2.86.35a1.69,1.69,0,0,0,1.51-2c-.17-.79-.34-1.58-.53-2.36-.54-2.26-1.63-4.54-1.53-6.77.08-1.83,1.85-3.52,2.32-5.41a6.32,6.32,0,0,0-.12-2.65,1.7,1.7,0,0,0-2-1.35c-1.08.2-2.12.41-2.48,1A100,100,0,0,0,424.58,463Zm15.89,29.84,1.51-1a1.7,1.7,0,0,0,0-2.79,8.76,8.76,0,0,0-3.38-1.72,101,101,0,0,0-14.41-1.36,5,5,0,0,0-2.61,1,1.7,1.7,0,0,0-.41,2.57,5.05,5.05,0,0,0,2.46,1.86c4.59.85,9.29,1.12,15.69,1.77A1.71,1.71,0,0,0,440.47,492.82Zm-26.39-80.33a1.68,1.68,0,0,0-1.71-.19c-4.39,2-8.65,3.72-12.62,6-.65.36-.69,1.8-.76,3.19a1.69,1.69,0,0,0,1.41,1.76,5,5,0,0,0,2.39,0,102.28,102.28,0,0,0,11.28-4.62,7.25,7.25,0,0,0,2.26-2.14,1.7,1.7,0,0,0-.26-2.37Z" transform="translate(-101.57 -340.25)"/><path class="cls-2" d="M333.93,1614.1c4.95-3.31,9.85-6.69,14.85-9.93,9.49-6.14,19.06-12.15,28.47-18.41a4.8,4.8,0,0,0,1.44-4c-1.84-9.77-3.94-19.49-6.12-30l52.92-8.46c3.49,17.14,6.86,33.72,10.38,51l-101.61,20.48Z" transform="translate(-101.57 -340.25)"/><path class="cls-2" d="M248.2,1533.84l43.29,19.46c-8.58,15.22-16.25,30.48-34.21,37.16-23,8.57-45.7,18.2-70,23a9,9,0,0,1-3.66,0C209.16,1590.35,230.08,1563.64,248.2,1533.84Z" transform="translate(-101.57 -340.25)"/><path class="cls-2" d="M384.7,788.25l15.68-41.14L451,751.67c2.41,12.35,4.72,24.16,7.14,36.58Z" transform="translate(-101.57 -340.25)"/><path class="cls-2" d="M423.68,517.93c5.09,1,9.85,1.69,14.45,3,1.27.36,2.59,2.27,3,3.72,2.87,9.73,5.42,19.56,8.28,29.3.47,1.57,1.79,3.86,3,4.07,4.47.76,4.55,4.54,5.43,7.43.33,1.07-1.48,3.45-2.88,4.28-9,5.33-19,8-29.31,9.28-2.93.37-5.87.58-9.61.94C418.64,558.92,421.15,538.51,423.68,517.93Z" transform="translate(-101.57 -340.25)"/><path class="cls-2" d="M554.26,819.08,524,805.61l23.52-21.14C555.31,789.64,559.41,811.19,554.26,819.08Z" transform="translate(-101.57 -340.25)"/><path d="M420,439.38c0,6.41-3,11.29-7.23,11.6s-8.25-4.65-8.6-11.07c-.36-6.62,3.08-12.25,7.56-12.39S420,432.63,420,439.38Z" transform="translate(-101.57 -340.25)"/><path d="M451.18,443.7c.07-.46.17-1.45.36-2.43,1.19-6,4.79-9.78,8.72-9.17s6.56,5.36,6.29,11.16a20.42,20.42,0,0,1-.31,2.46c-1,5.66-4.46,9.56-8.17,9.21C454,454.54,451.09,450.08,451.18,443.7Z" transform="translate(-101.57 -340.25)"/><path d="M426.77,468.39a10.49,10.49,0,0,1-.45-9.39,55.11,55.11,0,0,1,3-6.11,1.4,1.4,0,0,1,.68-.55,2.88,2.88,0,0,1,4,2.83,3.83,3.83,0,0,1-.09.69c-.47,1.89-2.24,3.58-2.32,5.41-.1,2.23,1,4.51,1.53,6.77.07.27.13.55.19.82a2.93,2.93,0,0,1-3.37,3.57,1.14,1.14,0,0,1-.66-.35A24.84,24.84,0,0,1,426.77,468.39Z" transform="translate(-101.57 -340.25)"/><path d="M440.76,492.62a2.68,2.68,0,0,1-1.76.44c-6.22-.63-10.83-.91-15.34-1.74a3.05,3.05,0,0,1-1.39-.76,2.63,2.63,0,0,1,.8-4.42,2.9,2.9,0,0,1,1.15-.22,101,101,0,0,1,14.41,1.36,5.91,5.91,0,0,1,2.05.83,2.66,2.66,0,0,1,.11,4.48Z" transform="translate(-101.57 -340.25)"/><path d="M414.69,413h0a3.36,3.36,0,0,1-.62,5.62h0a102.28,102.28,0,0,1-11.28,4.62,2.6,2.6,0,0,1-.4.1,3,3,0,0,1-3.31-3.3c.09-.83.25-1.52.67-1.75,3.78-2.13,7.81-3.82,12-5.68A2.86,2.86,0,0,1,414.69,413Z" transform="translate(-101.57 -340.25)"/></svg>