<svg id="레이어_1" data-name="레이어 1" xmlns="http://www.w3.org/2000/svg" viewBox="0 0 421.35 738.65"><defs><style>.cls-1{fill:#040000;}.cls-2{fill:none;stroke-width:1.39px;}.cls-2,.cls-3{stroke:#040000;stroke-miterlimit:10;}.cls-3{fill:#fff;stroke-width:1.49px;}</style></defs><path class="cls-1" d="M371.21,61.09a.55.55,0,0,1,.49.29L484,263.11a.52.52,0,0,1,.07.25L491.21,421a.56.56,0,0,0,.5.54l14.66,1.72a.57.57,0,0,1,.49.68L477.41,565.25a.57.57,0,0,1-.51.45l-73.19,6.44a.55.55,0,0,0-.42.25l-21.22,32.78a.59.59,0,0,1-.48.26l-.15,0-76.28-22.06-.15,0a.55.55,0,0,0-.33.11L159,688.1a.58.58,0,0,1-.33.1.56.56,0,0,1-.51-.32l-31.15-65a.53.53,0,0,1,0-.35l18-98a.88.88,0,0,1,.05-.15L192.19,430c.19-.37-.23-.63-.65-.63l-.2,0-22.66,5-.13,0a.57.57,0,0,1-.54-.4l-26.93-88.56a.57.57,0,0,0-.54-.4H114.71a.57.57,0,0,1-.54-.74l16.76-51.63a.58.58,0,0,1,.54-.39h.1l68,12.24h.1a.56.56,0,0,0,.52-.78L152.53,189.13a.56.56,0,0,1,.07-.56L208,114.8a.6.6,0,0,1,.25-.19L245,100.34a.71.71,0,0,1,.2,0h0l80.43,2.32h0a.65.65,0,0,0,.19,0L355.23,92a.51.51,0,0,0,.31-.28L370.7,61.4a.56.56,0,0,1,.51-.31m0-1.39a1.93,1.93,0,0,0-1.75,1.08l-15,30.06-28.92,10.38-80.27-2.31h-.06a1.86,1.86,0,0,0-.7.14l-36.77,14.27a1.85,1.85,0,0,0-.86.65l-55.38,73.77a1.93,1.93,0,0,0-.24,1.92l47.1,113.23-66.53-12-.35,0a1.94,1.94,0,0,0-1.86,1.35l-16.76,51.63a2,2,0,0,0,1.86,2.56h25.22l26.75,88a2,2,0,0,0,1.87,1.39,2.2,2.2,0,0,0,.44,0l21.11-4.64-46.32,92.63a1.87,1.87,0,0,0-.17.52l-18,98a1.92,1.92,0,0,0,.16,1.2l31.14,65a2,2,0,0,0,1.77,1.11,1.93,1.93,0,0,0,1.14-.36L305.16,584.8l75.89,21.94a2,2,0,0,0,.54.08,2,2,0,0,0,1.65-.89l21-32.44L477,567.08a1.94,1.94,0,0,0,1.74-1.55l29.45-141.27a2,2,0,0,0-.33-1.55,2,2,0,0,0-1.35-.8l-14-1.64-7.12-157a1.86,1.86,0,0,0-.25-.86L372.92,60.7a2,2,0,0,0-1.71-1Z" transform="translate(-86.91 -59.7)"/><polygon class="cls-2" points="103.54 139.88 100.17 148.66 116.25 169.69 140.81 164.13 143.66 154.78 125.52 130.29 103.54 139.88"/><polyline class="cls-2" points="120.42 54.74 180.79 86.16 208.02 203.53 307.68 223.46 397.6 203.53"/><polyline class="cls-2" points="112.77 244.32 160.74 243.85 208.02 203.53"/><polyline class="cls-2" points="160.74 243.85 192.26 369.93 217.76 376.42"/><polyline class="cls-2" points="307.68 223.46 217.76 376.42 221.46 396.81 262.72 434.34 408.07 422.19"/><line class="cls-2" x1="192.03" y1="369.93" x2="104.43" y2="370.39"/><polyline class="cls-2" points="221.46 396.81 192.73 472.36 93.07 457.07 57.38 464.94"/><line class="cls-2" x1="218.22" y1="524.74" x2="192.73" y2="472.36"/><polygon class="cls-3" points="1.49 707.42 47.8 666.58 113.27 687 101.44 737.71 1.49 707.42"/></svg>