<svg id="레이어_1" data-name="레이어 1" xmlns="http://www.w3.org/2000/svg" viewBox="0 0 656.62 521.88"><defs><style>.cls-1,.cls-2{fill:#fff;}.cls-1{stroke:#231815;stroke-linecap:round;stroke-linejoin:round;stroke-width:3.29px;}</style></defs><polyline class="cls-1" points="225.46 495.49 256.2 393.72 256.2 393.72 33.99 413.15 1.64 38.16 424.9 1.64 455.67 358.31 457.2 376.12"/><path class="cls-1" d="M252.71,561.87" transform="translate(-27.25 -66.39)"/><line class="cls-1" x1="457.2" y1="376.12" x2="450.85" y2="400.11"/><path class="cls-2" d="M679,588.27H117.5c1.06-1.45,2.06-2.93,3.19-4.32,9.95-12.25,21.7-22.61,34.08-32.27,32-24.95,66.82-45.25,103.2-63,2.85-1.39,5.72-2.73,8.65-4.12a11.44,11.44,0,0,1,.45,1.08c5.72,21.46,18.49,37.71,37,49.55,16,10.25,33.74,15.32,52.69,16,24.86.93,47.85-5.08,68.3-19.46,19.4-13.65,31.58-32,35-55.81.4-2.84.57-5.71.86-8.63.47.07.77.1,1.05.17a520.52,520.52,0,0,1,62.86,17.75c35,12.34,68.37,27.92,99.15,48.77,16.75,11.35,32.43,24,45.17,39.87C672.77,578.4,675.7,583.46,679,588.27Z" transform="translate(-27.25 -66.39)"/><path d="M679,588.27c-3.25-4.81-6.18-9.87-9.79-14.37C656.42,558,640.74,545.38,624,534c-30.78-20.85-64.18-36.43-99.15-48.77A520.52,520.52,0,0,0,462,467.51c-.28-.07-.58-.1-1.05-.17-.29,2.92-.46,5.79-.86,8.63-3.41,23.77-15.59,42.16-35,55.81-20.45,14.38-43.44,20.39-68.3,19.46-18.95-.72-36.66-5.79-52.69-16-18.53-11.84-31.3-28.09-37-49.55a11.44,11.44,0,0,0-.45-1.08c-2.93,1.39-5.8,2.73-8.65,4.12-36.38,17.74-71.22,38-103.2,63-12.38,9.66-24.13,20-34.08,32.27-1.13,1.39-2.13,2.87-3.19,4.32h-5.37c1-1.56,1.91-3.18,3-4.65,10-13.09,22.2-24,35-34.15,29.53-23.44,61.74-42.63,95.27-59.71a567.18,567.18,0,0,1,53.27-23.92c1.57-.6,2.15-1.28,1.95-3.06-1.11-9.93-2-19.89-3.17-29.82a4,4,0,0,0-1.92-2.37c-14.36-8.39-25.92-19.58-34-34.16-1.45-2.6-2.71-5.31-3.9-8.05-.53-1.21-1.11-1.43-2.37-1.21-20.33,3.65-41.22-15.15-39.74-35.75a22.1,22.1,0,0,1,9.85-17.5q.47-.32.9-.66c.06,0,.09-.12.25-.38-.83-1.35-1.75-2.78-2.61-4.24-5.09-8.69-10.92-17-15.08-26.16-6.73-14.76-9.13-30.39-5.27-46.51a59.1,59.1,0,0,1,2.55-6.76,39.11,39.11,0,0,1-7.62-17.64,32,32,0,0,1-.57-6.89,4.61,4.61,0,0,1,1.78-3.23c1.36-.91,2.75,0,3.63,1.27,1.6,2.25,3.09,4.58,4.65,6.86,1,1.53,2.13,3,3.32,4.73a4.43,4.43,0,0,0,.59-.83c4.86-14.11,13.12-26,23.51-36.6a22.4,22.4,0,0,1,3.92-3c1.5-1,3.19-1.47,4.84-.39a4.1,4.1,0,0,1,1.6,4.77c-.58,2.38-1.43,4.69-2.17,7a4.82,4.82,0,0,0-.39,2l1.82-1.5c24.31-20,51.61-33.77,82.75-39.41,18.36-3.33,36.72-3.5,54.81,1.63,28.88,8.19,46.37,27.25,53.05,56.4a129.55,129.55,0,0,1,2.95,28.45c0,4.25,0,8.5,0,13,1,.12,2.19.21,3.32.4,9.54,1.63,16.56,9.48,17.94,20.06A35.56,35.56,0,0,1,442.43,322a5,5,0,0,0-.44.3c1.5,5.87,3.38,11.48,4.33,17.25,4,24.44-2.25,46.33-17.25,65.77-3.58,4.64-8,8.59-12,12.95a4.12,4.12,0,0,0-1.13,2.8c1.25,11,2.68,21.92,3.95,32.89.19,1.62,1.13,1.61,2.26,1.78a544.15,544.15,0,0,1,101.45,24.55c36.07,12.6,70.47,28.67,102.21,50.12,17.33,11.7,33.53,24.76,46.81,41.06,3.66,4.5,6.78,9.45,10.09,14.23a14.86,14.86,0,0,1,1.18,2.59ZM229.2,337.09a17.21,17.21,0,0,0-9.13,13.79c-1.18,12.1,7,24.83,19.3,30,5.76,2.42,11.64,3.17,17.67,1.06,2-.71,3.06.25,3.75,2,6.86,17.8,18.73,31.43,34.93,41.26,21.18,12.83,44.19,16.84,68.48,12.8,25-4.14,46.11-15.57,61.5-35.93,18.43-24.38,22.59-51.09,10.7-79.73-.69-1.67-.07-2.71,1.44-3.43a39,39,0,0,0,4.18-2.12c9.68-6.15,15.32-19.53,13.08-30.82a19.92,19.92,0,0,0-6.1-11.44,14.67,14.67,0,0,0-10.55-3.83c0,.59,0,1,0,1.45-.29,9.41-.53,18.84-3.32,27.92a17.65,17.65,0,0,1-3.67,6.51c-2.54,2.77-3.36,2.49-5.18-.9Q412.5,280,398.73,254.2c-.36-.68-.77-1.34-.89-1.56-48,28.5-99.14,39.32-154.27,30.93,2.69,15.32,5.4,30.82,8.13,46.32,1.1,6.25,2.26,12.48,3.34,18.73.46,2.65-.67,4.4-3,4.54-7,.41-12.94-1.83-17.17-7.67C232.93,342.79,231.13,340,229.2,337.09Zm73.05,97.27c.27,2.67.54,5.25.8,7.83.72,7.27,1.39,14.56,2.2,21.82.45,4,.53,3.9-3.14,5.42-9.71,4-19.38,8.16-29.1,12.17-1.62.67-2.05,1.38-1.56,3.16,6,21.78,19.4,37.73,38.74,48.82,19.92,11.42,41.53,15,64.17,12.42,20.34-2.33,38.77-9.6,54.44-23,16.66-14.26,26.22-32.22,27.58-54.32.12-1.93-.46-2.56-2.32-2.86-11.92-2-23.82-4-35.74-6.07-2.73-.46-3.24-1.17-2.73-3.88a5.77,5.77,0,0,0,0-1.76c-.67-5.4-1.31-10.81-2.05-16.21-.66-4.9-1.43-9.78-2.16-14.69C376.93,446.66,340.7,450.4,302.25,434.36Z" transform="translate(-27.25 -66.39)"/><path class="cls-2" d="M229.2,337.09c1.93,2.87,3.73,5.7,5.7,8.4,4.23,5.84,10.14,8.08,17.17,7.67,2.3-.14,3.43-1.89,3-4.54-1.08-6.25-2.24-12.48-3.34-18.73-2.73-15.5-5.44-31-8.13-46.32,55.13,8.39,106.26-2.43,154.27-30.93.12.22.53.88.89,1.56q13.78,25.77,27.55,51.52c1.82,3.39,2.64,3.67,5.18.9a17.65,17.65,0,0,0,3.67-6.51c2.79-9.08,3-18.51,3.32-27.92,0-.43,0-.86,0-1.45A14.67,14.67,0,0,1,449,274.57,19.92,19.92,0,0,1,455.1,286c2.24,11.29-3.4,24.67-13.08,30.82a39,39,0,0,1-4.18,2.12c-1.51.72-2.13,1.76-1.44,3.43,11.89,28.64,7.73,55.35-10.7,79.73-15.39,20.36-36.53,31.79-61.5,35.93-24.29,4-47.3,0-68.48-12.8-16.2-9.83-28.07-23.46-34.93-41.26-.69-1.79-1.7-2.75-3.75-2-6,2.11-11.91,1.36-17.67-1.06-12.29-5.17-20.48-17.9-19.3-30A17.21,17.21,0,0,1,229.2,337.09Zm67.85,10.3c.46,5.7,3,11.12,6.85,13.86,4.35,3.08,9.4,2,12.1-2.59,3.72-6.32,1.53-16.77-4.42-21.08-4.29-3.11-9.52-2.17-12.06,2.51C298.31,342.31,297.85,344.94,297.05,347.39Zm101.73-13.82-.61-.21c-.1-4.64-1-9.06-4.09-12.7-3.45-4-8.24-3.72-11.32.58-4.28,6-3.46,17.43,1.62,22.77,3.65,3.84,8.63,3.55,11.19-1.1C397.13,340.07,397.74,336.7,398.78,333.57Zm-45.71,67c0-.14.08-.28.13-.43,2-.18,4-.21,6-.58,3.37-.63,6.71-1.42,10-2.24,1.46-.36,2.42-1.33,2-3s-1.69-1.92-3.19-1.53l-.44.1c-8.29,2.34-16.59,3.73-25,.47a2.55,2.55,0,0,0-2.32,1,3.08,3.08,0,0,0,.61,2.49,3.82,3.82,0,0,0,2.09,1.21C346.3,399,349.69,399.76,353.07,400.58ZM277.51,330c7.76-1.52,13.68-4.78,17.9-10.78a4.7,4.7,0,0,0,.95-2.89,5.58,5.58,0,0,0-1.47-3.25,3,3,0,0,0-2.77-.13c-.58.33-.66,1.6-.91,2.46s-.13,2-.65,2.53c-3.48,3.6-7.42,6.47-12.63,7-1.54.15-2.79,1-2.49,2.51C275.64,328.41,276.87,329.23,277.51,330Zm118-24.18c3-.81,5.64-1.37,8.19-2.29a2,2,0,0,0,1-3.13,3.4,3.4,0,0,0-3-.9c-5.09,1.93-10,1.05-14.81-.7-.8-.29-1.3-1.33-2.06-1.81s-2-1.38-2.91-1.24a2,2,0,0,0-1.4,3c.89,1.51,2.1,3.33,3.6,3.9A117.59,117.59,0,0,0,395.46,305.81Zm-42.59,49c-2.68-.51-3.74-.11-4.07,1.36s.95,2.92,3.17,3.28c2.52.4,4.63-1.15,5.15-4.11.88-5.07-.29-9.93-1.95-14.67-.22-.63-1.69-1.43-2.2-1.21a3.19,3.19,0,0,0-1.56,2.26c-.12,1,.45,2.15.69,3.24C352.8,348.12,353.62,351.3,352.87,354.79Z" transform="translate(-27.25 -66.39)"/><path class="cls-2" d="M302.25,434.36c38.45,16,74.68,12.3,109.12-11.16.73,4.91,1.5,9.79,2.16,14.69.74,5.4,1.38,10.81,2.05,16.21a5.77,5.77,0,0,1,0,1.76c-.51,2.71,0,3.42,2.73,3.88,11.92,2,23.82,4.11,35.74,6.07,1.86.3,2.44.93,2.32,2.86C455,490.77,445.46,508.73,428.8,523c-15.67,13.41-34.1,20.68-54.44,23-22.64,2.6-44.25-1-64.17-12.42-19.34-11.09-32.75-27-38.74-48.82-.49-1.78-.06-2.49,1.56-3.16,9.72-4,19.39-8.14,29.1-12.17,3.67-1.52,3.59-1.44,3.14-5.42-.81-7.26-1.48-14.55-2.2-21.82C302.79,439.61,302.52,437,302.25,434.36Z" transform="translate(-27.25 -66.39)"/><path d="M297.05,347.39c.8-2.45,1.26-5.08,2.47-7.3,2.54-4.68,7.77-5.62,12.06-2.51,5.95,4.31,8.14,14.76,4.42,21.08-2.7,4.59-7.75,5.67-12.1,2.59C300,358.51,297.51,353.09,297.05,347.39Z" transform="translate(-27.25 -66.39)"/><path d="M398.78,333.57c-1,3.13-1.65,6.5-3.21,9.34-2.56,4.65-7.54,4.94-11.19,1.1-5.08-5.34-5.9-16.79-1.62-22.77,3.08-4.3,7.87-4.59,11.32-.58,3.13,3.64,4,8.06,4.09,12.7Z" transform="translate(-27.25 -66.39)"/><path d="M353.07,400.58c-3.38-.82-6.77-1.6-10.13-2.48a3.82,3.82,0,0,1-2.09-1.21,3.08,3.08,0,0,1-.61-2.49,2.55,2.55,0,0,1,2.32-1c8.43,3.26,16.73,1.87,25-.47l.44-.1c1.5-.39,2.75-.11,3.19,1.53s-.52,2.6-2,3c-3.32.82-6.66,1.61-10,2.24-2,.37-4,.4-6,.58C353.15,400.3,353.11,400.44,353.07,400.58Z" transform="translate(-27.25 -66.39)"/><path d="M277.51,330c-.64-.76-1.87-1.58-2.07-2.59-.3-1.54.95-2.36,2.49-2.51,5.21-.49,9.15-3.36,12.63-7,.52-.55.41-1.68.65-2.53s.33-2.13.91-2.46a3,3,0,0,1,2.77.13,5.58,5.58,0,0,1,1.47,3.25,4.7,4.7,0,0,1-.95,2.89C291.19,325.21,285.27,328.47,277.51,330Z" transform="translate(-27.25 -66.39)"/><path d="M395.46,305.81A117.59,117.59,0,0,1,384,302.6c-1.5-.57-2.71-2.39-3.6-3.9a2,2,0,0,1,1.4-3c.89-.14,2,.67,2.91,1.24s1.26,1.52,2.06,1.81c4.84,1.75,9.72,2.63,14.81.7a3.4,3.4,0,0,1,3,.9,2,2,0,0,1-1,3.13C401.1,304.44,398.43,305,395.46,305.81Z" transform="translate(-27.25 -66.39)"/><path d="M352.87,354.79c.75-3.49-.07-6.67-.77-9.85-.24-1.09-.81-2.2-.69-3.24a3.19,3.19,0,0,1,1.56-2.26c.51-.22,2,.58,2.2,1.21,1.66,4.74,2.83,9.6,1.95,14.67-.52,3-2.63,4.51-5.15,4.11-2.22-.36-3.51-1.7-3.17-3.28S350.19,354.28,352.87,354.79Z" transform="translate(-27.25 -66.39)"/></svg>