<svg id="레이어_1" data-name="레이어 1" xmlns="http://www.w3.org/2000/svg" viewBox="0 0 700 700"><defs><style>.cls-1,.cls-2{fill:#fff;}.cls-1{stroke:#231815;stroke-linecap:round;stroke-linejoin:round;stroke-width:3.17px;}</style></defs><polyline class="cls-1" points="567.18 487.14 558.62 508.9 491.06 680.75 278.56 680.86 355.54 487.51 355.54 487.51 121.58 487.9 121.38 93.13 566.98 92.9 567.17 468.39 567.18 487.14"/><path d="M473.47,598.78c0,6.66.1,13,0,19.27-.14,7.13-.58,14.26-.65,21.39,0,1.45.95,2.95,1.61,4.35.57,1.21,1.56,2.25,2,3.49a73.05,73.05,0,0,1,3.95,24.48c.06,5.93-2.91,10-8.33,12.09-4,1.54-8.29,2.5-12.42,3.8-7.82,2.47-15.76,4.65-23.41,7.59a73.73,73.73,0,0,1-33.54,4.42c-5.21-.48-10.4-1.23-15.58-2a23.25,23.25,0,0,1-11.24-5,9,9,0,0,1-3.31-6.85c-.08-1.16,0-2.33,0-3.66-3.06-.41-6.09-.72-9.08-1.24a32.37,32.37,0,0,1-14.37-6,17.59,17.59,0,0,1-2.91-2.81c-4.45-5.38-3.23-10.71,3.2-13.41,3.15-1.33,6.64-1.88,9.73-3.31,5.13-2.38,10.58-4.51,15-7.94,8-6.31,17-10.46,26.34-14.25,3.42-1.4,6.75-3,10.09-4.62a4.84,4.84,0,0,0,3.05-4.32,149.25,149.25,0,0,0-2-41,2,2,0,0,0-.19-.47c-5.36,0-10.57-.1-15.77,0-2.21.07-2.94-.78-2.86-2.82.17-4.6.24-9.21.46-13.81a3.41,3.41,0,0,0-1.8-3.55c-3.6-2.12-4.46-5.11-3.95-9.38,1.34-11.3-.3-22.49-2-33.69-2.53-16.32-4.88-32.69-6.85-49.09a520.49,520.49,0,0,1-4-73.83,29.87,29.87,0,0,0-.4-3.83c-2.05.2-3.92.54-5.78.54-5.2,0-6.66-1.1-8.36-6-.54-1.57-1-2.88-3.12-3-1.91-.13-1.91-1.84-1.68-3.37.92-6.16,1.81-12.33,2.77-18.49,3.25-20.89,5.81-41.86,7.47-62.94q3.25-41.51,10.54-82.49c3.44-19.54,4.55-39.29,4.8-59.1,0-3.07.29-6.13.49-9.2a23.87,23.87,0,0,1,5.13-13.42c5.93-7.67,12.19-15,19.72-21.17,1.29-1.06,1.27-1.09,0-2.61-4.55,4.07-8.91,8.39-13.69,12.16C382,132,375.93,142.92,372,155.29c-.93,2.91-1.63,6-3.21,8.57-6.1,9.79-18.65,10.18-26.75,1.06-4.33-4.87-5.6-10.8-5.85-17.06-.19-4.87,0-9.77-.51-14.61a21.36,21.36,0,0,0-7.14-13.87c-5.51-5.17-8.84-11.49-8.86-19.37s1.24-15.08,4.76-22a7.43,7.43,0,0,0,.77-3.59C324.61,63.17,327,52.48,331,42.12a48.14,48.14,0,0,1,11.47-16.6,68.73,68.73,0,0,0,7.35-8.29c6.4-8.73,15-11,25.14-9,3.36.67,6.72,1.4,10.07,2.13A37.45,37.45,0,0,1,403.56,20q16.65,16.13,33,32.58c7.63,7.74,10.41,17.12,8.16,27.87-.58,2.81-1.11,5.63-1.75,8.9,3.86,1.2,7.82,2.81,11.93,3.61,7,1.37,12.32,5.22,17.08,10.24,13.56,14.3,20.36,31.7,22.41,50.9,1.65,15.43,2.37,31,3.07,46.48a154.22,154.22,0,0,0,6.4,36.18c1.93,6.67,3.31,13.49,4.87,20.26.53,2.27.21,3.79-2.73,4.4-3.68.76-7.19,2.36-10.92,3.64.78,8.83,1.52,17.63,2.34,26.43,2.27,24.37,4.64,48.74,6.81,73.12.59,6.56.55,13.17,1,19.75.28,4.38-1.33,7.38-5.62,8.61-2.2.63-2.78,1.86-2.72,4.12q1.44,51.35,2.71,102.71c.81,30.89,1.55,61.79,2.56,92.68.21,6.34-2,7.34-6.56,8.25a39,39,0,0,1-19.27-1.23C475.59,599.27,474.9,599.13,473.47,598.78ZM396.28,579.9c6.5-.31,13.62,1.44,19.08-4.38a4.93,4.93,0,0,0,1.41-2.91c.11-11.57.9-23.2-.06-34.69-2.7-32.22-6.12-64.38-9.28-96.56-.4-4.14-1-8.26-1.32-12.4-.06-.7.63-1.47,1-2.21a8.55,8.55,0,0,1,1.73,2,9.63,9.63,0,0,1,.55,2.91q3.34,29.89,6.67,59.79c3.37,30.12,5.76,60.27,3.21,90.59-.23,2.69,4,6,6.67,5.52,7.64-1.29,15.28-2.56,23-3.6,7-.95,13.08,1.49,18.11,6.2,7.69,7.21,16.86,8.9,26.86,7.79,4.65-.51,5.12-1.14,5-5.74q-1.63-64.09-3.3-128.19-.89-34.43-1.79-68.84c-.06-2.14.36-3.38,2.77-4.1,5.14-1.53,5.78-2.39,5.45-7.76-1-16.41-2-32.82-3.41-49.2-1.75-20.43-3.88-40.83-5.85-61.24-.22-2.28-.54-4.56-.8-6.83-5.72,1-11.36,1.48-11.35,8.92-6,18.45-11.76,37-18.12,55.32-4.61,13.25-6.47,26.58-4.49,40.5a22.19,22.19,0,0,1-3.39,15.86c-3,4.36-6.75,9-11.28,11.32-4,2.08-9,5.07-14.36,2.75a4.94,4.94,0,0,0-2.67,0c-5,.89-7-1-5.58-5.91a35.77,35.77,0,0,0,.51-16.8,39.71,39.71,0,0,1,3.15-24.33c1.22-2.62,2.28-5.32,3.63-7.87A206.1,206.1,0,0,0,443,309c2.67-8.79,5-17.69,7.3-26.6.66-2.61.54-5.42.78-8.22-4.91.53-5.19.55-5.5-4.12-.49-7.38-.76-14.8-.77-22.2A686,686,0,0,1,450.68,157c.12-.9,1-1.7,1.49-2.54.53.89,1.55,1.81,1.5,2.67-.2,3.79-.65,7.56-1.12,11.33a611,611,0,0,0-4.17,99c0,1.23.28,2.44.44,3.78,3.23-.5,6.15-1,9.09-1.4,15.56-2,30.63-6,45.5-10.89,1.94-.64,2.78-1.35,2.1-3.63-1.43-4.84-2.36-9.84-3.79-14.68-3.84-13-6.84-26.15-7.4-39.83-.65-15.87-1.46-31.78-3.22-47.55-2.1-18.76-9-35.76-22.74-49.21-7.24-7.07-6.23-6.57-14.28-1.62-6.59,4-12.39,9.37-18.84,13.68a96.82,96.82,0,0,1-15.34,8.41c-3,1.31-6.67,1.47-10,1.52s-4.76-2.25-4.15-5.53c.11-.6.25-1.19.49-2.29A24,24,0,0,0,404,120c-3.6,3.81-7.08,7.73-10.76,11.46-7.08,7.2-9.65,15.82-9.54,25.84a254.6,254.6,0,0,1-1.38,32.21c-2.2,18.91-5.28,37.73-8,56.59-2.72,19.16-5.33,38.36-3.93,57.76,1.12,15.58,3.08,31.1,4.45,46.66,1.08,12.12,2.65,24.27,2.55,36.39a661.23,661.23,0,0,0,4.37,85.48c1.87,15.33,4.06,30.62,6.45,45.87,1.85,11.72,3.71,23.42,2.08,35.28-.43,3.13.39,5.19,2.91,6.55s3.12,3.43,3.06,6.07C396.19,570.6,396.28,575,396.28,579.9ZM436.64,643c-2.9,2.42-5.35,4.68-8,6.66a172.2,172.2,0,0,1-35.36,19.83,116.21,116.21,0,0,0-10.76,5.09,18.13,18.13,0,0,0-5.13,4.3c-2.21,2.68-2.6,8.6-.63,10.12a31,31,0,0,0,8,4.78,46.44,46.44,0,0,0,10.07,2c14.13,1.81,28,1.67,41.56-3.92,7.07-2.91,14.55-4.8,21.87-7.08,4.13-1.29,8.36-2.28,12.43-3.74,4.23-1.5,6.88-4.62,6.48-9.26-.58-6.63-1.6-13.23-2.48-19.83a10.51,10.51,0,0,0-.84-2.15c-1.39,6.18-1.38,6.7-7.36,6.84-5.05.11-10.19-.9-15.18-1.91C444.66,653.38,439,650.35,436.64,643ZM423.28,397.21c3.36.42,6.24.8,9.12,1.11A3.47,3.47,0,0,0,434,398c4.55-1.87,9.87-2.4,12.75-7.24a2,2,0,0,1,.62-.51,14.19,14.19,0,0,0,6.39-9.7,46,46,0,0,0,.79-12.3A81.83,81.83,0,0,1,458.3,333c6.63-19.86,13-39.79,19.48-59.7.39-1.22.58-2.51.83-3.62-7.82,1.17-15.31,2.25-22.78,3.5a2.87,2.87,0,0,0-1.75,2c-.51,3.39-.27,6.95-1.19,10.2-3.39,12-6.57,24-10.89,35.69-4.25,11.48-9.75,22.5-14.78,33.69a37.62,37.62,0,0,0-3.2,21.39c.1.62.29,1.22.43,1.83a47.21,47.21,0,0,0,1.79-4.69c.35-.81,1.29-1.36,2-2,.23.93.82,1.94.62,2.77-1.25,5.46-2.68,10.86-4,16.3C424.22,392.72,423.74,395.15,423.28,397.21Zm-23-344-1.26.26c-.55,1.39-1.52,2.76-1.57,4.17-.11,2.92.32,5.86.41,8.79a5.11,5.11,0,0,1-.55,2.73c-.22.35-1.52.33-2.15.07a26.06,26.06,0,0,0-17.26-.94,65.15,65.15,0,0,1-24.66,2.16c-2.48-.29-5.14.5-7.65,1.08-1.8.42-2.43,1.94-2.45,3.76a11.23,11.23,0,0,0,3.63,8.5c4,3.72,8.38,7,12.65,10.49,3.65,2.93,7.35,5.79,11.06,8.65,6.12,4.72,12.69,8.64,20.31,10.38,3.84.87,7.74-1.54,9.26-5.35a8.22,8.22,0,0,1-1.69-1.27,32.84,32.84,0,0,1-1.93-3,13.22,13.22,0,0,1,3.09-.9c5.76-.19,8.09-1.82,8.68-7.51a55.58,55.58,0,0,0-.06-14c-1.16-7.65-3-15.2-4.82-22.72C402.89,56.66,401.35,55,400.31,53.21Zm41.76,534.6c.15,1.12.32,2.17.42,3.22,1.58,15.81,1.7,31.54-2,47.14-1.38,5.86.09,9,5.5,11.37,6.46,2.88,13.25,4.78,20.47,4.13,3.6-.32,4.12-1.28,3.88-4.95-.36-5.76-.74-11.54-.61-17.3q.28-13.27,1.32-26.52c.38-4.91-.81-8.27-4.88-11.73C458.86,586.92,451,586,442.07,587.81ZM413.12,631c-7.05,3-14,5.76-20.76,9a76.09,76.09,0,0,0-13.68,8.11,65.59,65.59,0,0,1-23,11.65,28.61,28.61,0,0,0-6.52,2.56c-2.89,1.62-3.48,3.63-1.47,6.26,1.7,2.23,3.88,4.6,6.38,5.6,4.88,2,10.12,3,15.23,4.47,2.65.73,4.57.28,6.26-2.39,1.22-1.93,3.52-3.34,5.6-4.54a84.93,84.93,0,0,1,9.28-4.44,174.73,174.73,0,0,0,36.41-20.17c1.62-1.2,3.16-2.53,4.93-4C422.37,640.25,419.25,638.18,413.12,631Zm3.16-51.72c-2,.37-2,1.54-1.74,3.19A138.53,138.53,0,0,1,416,628a3.13,3.13,0,0,0,.37,2.26c5,5.33,10.48,9.68,18.33,9.53,1.74,0,2.47-.72,2.86-2.47a125.7,125.7,0,0,0,2.67-35.24c-.27-4.65-.62-9.28-.94-14.11-1.54.17-2.62.19-3.66.42-2.91.62-5.79,1.38-8.7,2a7.39,7.39,0,0,1-3.65.22c-5-1.73-7.09-5-6.91-10.16C416.35,580.09,416.3,579.75,416.28,579.32Zm-42-196q-3-35.74-5.91-71.46L368,312c-3.2,23.15-6.41,46.3-9.57,69.17ZM440.9,91.88c-.23.29-.58.7-.9,1.13-7.29,10-16.12,18.07-28,22.62-1.66.64-2.22,4.17-3.28,6.36,1.63.34,3.49,1.36,4.87.91,5.11-1.66,10.57-3,15-5.93,9.58-6.31,18.59-13.49,27.64-20.18ZM362.47,384.36c-.13.25-.26.5-.38.75,1.08,1.67.77,4.48,3.61,4.73a42.61,42.61,0,0,0,7.22-.26,1.67,1.67,0,0,0,1.06-1.22,1.71,1.71,0,0,0-.87-1.38C369.58,386,366,385.22,362.47,384.36Z"/><path class="cls-2" d="M396.28,579.9c0-4.88-.09-9.3,0-13.71.06-2.64-.51-4.69-3.06-6.07s-3.34-3.42-2.91-6.55c1.63-11.86-.23-23.56-2.08-35.28-2.39-15.25-4.58-30.54-6.45-45.87a661.23,661.23,0,0,1-4.37-85.48c.1-12.12-1.47-24.27-2.55-36.39-1.37-15.56-3.33-31.08-4.45-46.66-1.4-19.4,1.21-38.6,3.93-57.76,2.69-18.86,5.77-37.68,8-56.59a254.6,254.6,0,0,0,1.38-32.21c-.11-10,2.46-18.64,9.54-25.84,3.68-3.73,7.16-7.65,10.76-11.46a24,24,0,0,1,2.18-1.8c-.24,1.1-.38,1.69-.49,2.29-.61,3.28.82,5.57,4.15,5.53s7-.21,10-1.52a96.82,96.82,0,0,0,15.34-8.41c6.45-4.31,12.25-9.63,18.84-13.68,8.05-5,7-5.45,14.28,1.62,13.79,13.45,20.64,30.45,22.74,49.21,1.76,15.77,2.57,31.68,3.22,47.55.56,13.68,3.56,26.8,7.4,39.83,1.43,4.84,2.36,9.84,3.79,14.68.68,2.28-.16,3-2.1,3.63-14.87,4.89-29.94,8.9-45.5,10.89-2.94.38-5.86.9-9.09,1.4-.16-1.34-.4-2.55-.44-3.78a611,611,0,0,1,4.17-99c.47-3.77.92-7.54,1.12-11.33.05-.86-1-1.78-1.5-2.67-.51.84-1.37,1.64-1.49,2.54a686,686,0,0,0-5.91,90.81c0,7.4.28,14.82.77,22.2.31,4.67.59,4.65,5.5,4.12-.24,2.8-.12,5.61-.78,8.22-2.27,8.91-4.63,17.81-7.3,26.6a206.1,206.1,0,0,1-15,36.82c-1.35,2.55-2.41,5.25-3.63,7.87A39.71,39.71,0,0,0,421.18,378a35.77,35.77,0,0,1-.51,16.8c-1.43,4.92.58,6.8,5.58,5.91a4.94,4.94,0,0,1,2.67,0c5.39,2.32,10.31-.67,14.36-2.75,4.53-2.33,8.26-7,11.28-11.32A22.19,22.19,0,0,0,458,370.75c-2-13.92-.12-27.25,4.49-40.5,6.36-18.33,12.11-36.87,18.12-55.32,0-7.44,5.63-7.94,11.35-8.92.26,2.27.58,4.55.8,6.83,2,20.41,4.1,40.81,5.85,61.24,1.39,16.38,2.41,32.79,3.41,49.2.33,5.37-.31,6.23-5.45,7.76-2.41.72-2.83,2-2.77,4.1q.94,34.42,1.79,68.84,1.65,64.09,3.3,128.19c.12,4.6-.35,5.23-5,5.74-10,1.11-19.17-.58-26.86-7.79-5-4.71-11.12-7.15-18.11-6.2-7.68,1-15.32,2.31-23,3.6-2.66.45-6.9-2.83-6.67-5.52,2.55-30.32.16-60.47-3.21-90.59q-3.34-29.9-6.67-59.79a9.63,9.63,0,0,0-.55-2.91,8.55,8.55,0,0,0-1.73-2c-.34.74-1,1.51-1,2.21.35,4.14.92,8.26,1.32,12.4,3.16,32.18,6.58,64.34,9.28,96.56,1,11.49.17,23.12.06,34.69a4.93,4.93,0,0,1-1.41,2.91C409.9,581.34,402.78,579.59,396.28,579.9Z"/><path class="cls-2" d="M436.64,643c2.4,7.35,8,10.38,14.68,11.73,5,1,10.13,2,15.18,1.91,6-.14,6-.66,7.36-6.84a10.51,10.51,0,0,1,.84,2.15c.88,6.6,1.9,13.2,2.48,19.83.4,4.64-2.25,7.76-6.48,9.26-4.07,1.46-8.3,2.45-12.43,3.74-7.32,2.28-14.8,4.17-21.87,7.08-13.54,5.59-27.43,5.73-41.56,3.92a46.44,46.44,0,0,1-10.07-2,31,31,0,0,1-8-4.78c-2-1.52-1.58-7.44.63-10.12a18.13,18.13,0,0,1,5.13-4.3,116.21,116.21,0,0,1,10.76-5.09,172.2,172.2,0,0,0,35.36-19.83C431.29,647.68,433.74,645.42,436.64,643Z"/><path class="cls-2" d="M423.28,397.21c.46-2.06.94-4.49,1.53-6.89,1.34-5.44,2.77-10.84,4-16.3.2-.83-.39-1.84-.62-2.77-.68.67-1.62,1.22-2,2a47.21,47.21,0,0,1-1.79,4.69c-.14-.61-.33-1.21-.43-1.83a37.62,37.62,0,0,1,3.2-21.39c5-11.19,10.53-22.21,14.78-33.69,4.32-11.65,7.5-23.72,10.89-35.69.92-3.25.68-6.81,1.19-10.2a2.87,2.87,0,0,1,1.75-2c7.47-1.25,15-2.33,22.78-3.5-.25,1.11-.44,2.4-.83,3.62-6.47,19.91-12.85,39.84-19.48,59.7a81.83,81.83,0,0,0-3.78,35.25,46,46,0,0,1-.79,12.3,14.19,14.19,0,0,1-6.39,9.7,2,2,0,0,0-.62.51c-2.88,4.84-8.2,5.37-12.75,7.24a3.47,3.47,0,0,1-1.57.31C429.52,398,426.64,397.63,423.28,397.21Z"/><path class="cls-2" d="M400.31,53.21c1,1.79,2.58,3.45,3,5.38,1.83,7.52,3.66,15.07,4.82,22.72a55.58,55.58,0,0,1,.06,14c-.59,5.69-2.92,7.32-8.68,7.51a13.22,13.22,0,0,0-3.09.9,32.84,32.84,0,0,0,1.93,3,8.22,8.22,0,0,0,1.69,1.27c-1.52,3.81-5.42,6.22-9.26,5.35-7.62-1.74-14.19-5.66-20.31-10.38-3.71-2.86-7.41-5.72-11.06-8.65-4.27-3.44-8.64-6.77-12.65-10.49a11.23,11.23,0,0,1-3.63-8.5c0-1.82.65-3.34,2.45-3.76,2.51-.58,5.17-1.37,7.65-1.08a65.15,65.15,0,0,0,24.66-2.16,26.06,26.06,0,0,1,17.26.94c.63.26,1.93.28,2.15-.07a5.11,5.11,0,0,0,.55-2.73c-.09-2.93-.52-5.87-.41-8.79,0-1.41,1-2.78,1.57-4.17Z"/><path class="cls-2" d="M442.07,587.81c8.92-1.79,16.79-.89,24.13,5.36,4.07,3.46,5.26,6.82,4.88,11.73q-1,13.23-1.32,26.52c-.13,5.76.25,11.54.61,17.3.24,3.67-.28,4.63-3.88,4.95-7.22.65-14-1.25-20.47-4.13-5.41-2.41-6.88-5.51-5.5-11.37,3.67-15.6,3.55-31.33,2-47.14C442.39,590,442.22,588.93,442.07,587.81Z"/><path class="cls-2" d="M413.12,631c6.13,7.14,9.25,9.21,18.62,12.17-1.77,1.43-3.31,2.76-4.93,4a174.73,174.73,0,0,1-36.41,20.17,84.93,84.93,0,0,0-9.28,4.44c-2.08,1.2-4.38,2.61-5.6,4.54-1.69,2.67-3.61,3.12-6.26,2.39-5.11-1.42-10.35-2.5-15.23-4.47-2.5-1-4.68-3.37-6.38-5.6-2-2.63-1.42-4.64,1.47-6.26a28.61,28.61,0,0,1,6.52-2.56,65.59,65.59,0,0,0,23-11.65,76.09,76.09,0,0,1,13.68-8.11C399.09,636.8,406.07,634.08,413.12,631Z"/><path class="cls-2" d="M416.28,579.32c0,.43.07.77.06,1.12-.18,5.17,1.93,8.43,6.91,10.16a7.39,7.39,0,0,0,3.65-.22c2.91-.59,5.79-1.35,8.7-2,1-.23,2.12-.25,3.66-.42.32,4.83.67,9.46.94,14.11a125.7,125.7,0,0,1-2.67,35.24c-.39,1.75-1.12,2.44-2.86,2.47-7.85.15-13.36-4.2-18.33-9.53A3.13,3.13,0,0,1,416,628a138.53,138.53,0,0,0-1.43-45.51C414.23,580.86,414.23,579.69,416.28,579.32Z"/><path class="cls-2" d="M374.29,383.34l-15.9-2.18c3.16-22.87,6.37-46,9.57-69.17l.42-.11Q371.34,347.6,374.29,383.34Z"/><path class="cls-2" d="M440.9,91.88l15.32,4.91c-9.05,6.69-18.06,13.87-27.64,20.18-4.39,2.9-9.85,4.27-15,5.93-1.38.45-3.24-.57-4.87-.91,1.06-2.19,1.62-5.72,3.28-6.36,11.85-4.55,20.68-12.57,28-22.62C440.32,92.58,440.67,92.17,440.9,91.88Z"/><path class="cls-2" d="M362.47,384.36c3.55.86,7.11,1.68,10.64,2.62a1.71,1.71,0,0,1,.87,1.38,1.67,1.67,0,0,1-1.06,1.22,42.61,42.61,0,0,1-7.22.26c-2.84-.25-2.53-3.06-3.61-4.73C362.21,384.86,362.34,384.61,362.47,384.36Z"/></svg>