<svg id="레이어_1" data-name="레이어 1" xmlns="http://www.w3.org/2000/svg" viewBox="0 0 654.49 553.43"><defs><style>.cls-1{fill:none;stroke:#231815;stroke-linecap:round;stroke-linejoin:round;stroke-width:2.6px;}.cls-2{fill:#fff;}</style></defs><path class="cls-1" d="M556.88,556,207.67,429l127-349.21,349.21,127Z" transform="translate(-30.68 -78.48)"/><path d="M83,416.7c-.68,0-1.31-.1-1.94-.09a31.75,31.75,0,0,1-17.92-5.45c-1.37-.91-2.69-1.9-4-2.82a34.43,34.43,0,0,1-13.54-18c-1.67-4.93-1.37-9.91-.94-14.93,0-.54.16-1.07.23-1.51a2.55,2.55,0,0,0-.3-.71c-5.15-6-8.38-13.06-11.19-20.3a38.2,38.2,0,0,1-2.31-19.68c.8-5.29,1.92-10.53,3-15.77a20.79,20.79,0,0,0,.63-4.84,65.39,65.39,0,0,1,9-34.81c3.16-5.49,6.65-10.8,10-16.18,4.59-7.36,8.68-15,10.8-23.44,1.23-4.88,2.26-9.8,3.38-14.7a10.06,10.06,0,0,0-.08-4.23c-.72-3.87-1.56-7.72-2-11.62-1.51-12.78-1.69-25.53.91-38.22a80.79,80.79,0,0,1,5.67-17.76,111.88,111.88,0,0,1,13.44-22.86,40.69,40.69,0,0,1,6.91-7,135.43,135.43,0,0,1,17-11.18,66.11,66.11,0,0,1,22.29-7.42,65.51,65.51,0,0,1,19-.74,125.66,125.66,0,0,1,17.11,3c7.5,2,14,5.91,20.28,10.47,8.87,6.5,15.83,14.7,21.84,23.8,1.69,2.56,3.33,5.15,5,7.73a80.71,80.71,0,0,1,6.85,12.68c3.61,8.75,8.79,16.6,14.06,24.4a35.94,35.94,0,0,0,7.14,7.64c5.67,4.64,11.3,9.33,16.84,14.13a67.08,67.08,0,0,1,20.63,32.14c.91,3,1.69,6.11,2.63,9.14.84,2.71,1.81,5.38,2.75,8.06a31.17,31.17,0,0,0,9.2,13,13,13,0,0,0,4.16,2.55c.92.34,1.85.69,2.79.95,7,1.94,13,5.65,18.8,9.81a49.53,49.53,0,0,1,5.66,5,76.92,76.92,0,0,1,10.48,13.42,26.84,26.84,0,0,1,4,12.36c.32,3.71.49,7.43.66,11.14.27,5.9.54,11.8.69,17.71a80.47,80.47,0,0,1-1.17,17.32,13.65,13.65,0,0,0,.54,6.46,99.11,99.11,0,0,1,3.79,29.51,92.69,92.69,0,0,1-1.61,15.31c-.19,1-.3,1.94-.43,2.8.19.31.26.56.42.66,4.85,3.07,7.34,7.8,8.65,13.09a117.93,117.93,0,0,1,3.12,18.42c.45,5.31-1.29,9.42-6,12.17-.46.28-.89.61-1.51,1,0,.67-.05,1.42,0,2.16.36,4.69.84,9.37,1.1,14.06.73,12.89,1.67,25.77,1.58,38.69-.05,7-.62,14-1.35,21a25.58,25.58,0,0,1-.93,4.49c-1.68,5.84-5.66,9.15-11.54,10.34a31.49,31.49,0,0,1-11.41-.25c-.54-.09-1.08-.15-1.61-.2-.09,0-.19.08-.46.19a36.68,36.68,0,0,0-1.45,8.55,136,136,0,0,0,.74,17.36,109.72,109.72,0,0,0,2.66,14.5c1.13,5.13,2,10.3,3,15.46.38,2,.64,4.11.95,6.16a12.64,12.64,0,0,1-1.45,7.93,6.45,6.45,0,0,0-.29.59,11.58,11.58,0,0,1-8.36,6.72,102.43,102.43,0,0,1-18.39,3.19c-1.52.09-3,.36-4.56.5-12.75,1.15-25.52,2.1-38.32,2.25-7.1.08-14.23-.2-21.31-.69-8.83-.61-17.63-1.7-26.46-2.43-9.48-.79-19-1.41-28.47-2a54,54,0,0,0-6.23,0q-16.89.82-33.76,1.75c-2.4.13-4.78.55-7.18.73-2.94.22-5.89.41-8.83.48-5.36.12-10.73.08-16.08.24a35.84,35.84,0,0,1-10.89-1.49,8.82,8.82,0,0,1-.57-2c-.27-3.82-.62-7.64-.63-11.47,0-4.15.16-8.31.54-12.44a152.25,152.25,0,0,1,4.78-26.11A94.77,94.77,0,0,1,108.88,561c.28-.58.52-1.19.85-2a10.15,10.15,0,0,0-1.55-1.06C99,553.88,92.11,547.2,86.85,538.72a80.31,80.31,0,0,1-9.5-23.64c-3-12.31-3.79-24.84-3.51-37.46.43-19.24,3.64-38.07,8.44-56.66C82.62,419.62,83.32,418.31,83,416.7Zm212.6,13.15a25.32,25.32,0,0,0,5.41-4.73c2.57-3,5.05-6.05,7.56-9.08,3-3.62,6-7.27,9-10.85a27.93,27.93,0,0,1,9-6.95,15.86,15.86,0,0,1,3.68-1.37c4.43-.94,7.53,2.24,6.63,6.7a16.56,16.56,0,0,1-2.34,5.38L333,411.63a36.93,36.93,0,0,0,8.09.49c.5-3.07,1.07-6,1.41-8.88a96.11,96.11,0,0,0-2.59-35.46,87.66,87.66,0,0,0-17.37-34.61c-8.89-10.68-19.94-17.9-33.61-20.91-2-.44-4.08-.82-6.08-1.35-24.05-6.39-42.8-19.88-55.49-41.47a16.34,16.34,0,0,0-1.07-1.44,88.86,88.86,0,0,1-5.77,7.26,48.18,48.18,0,0,1-7,5.89,55.46,55.46,0,0,1-7.93,4.6,81,81,0,0,1-8.85,3.43,31.65,31.65,0,0,1-9,1.76c-3,.1-6,0-9.25,0,1,3,2,5.81,2.93,8.59.28.83.6,1.65.81,2.5a1.54,1.54,0,0,1-1.86,1.95,15,15,0,0,1-2.18-.7,103.62,103.62,0,0,0-17.35-4.83,69.59,69.59,0,0,0-26.09-.34,45.59,45.59,0,0,0-20.92,9.63,47.6,47.6,0,0,0-14.11,20.61c-3.39,9.14-4.46,18.67-4.48,28.36a6.43,6.43,0,0,0,.26,1.26,4.13,4.13,0,0,0,1.06-.06A203,203,0,0,1,123,350.49a30.85,30.85,0,0,0,4.39-1.34,8.46,8.46,0,0,0,1.79-1.38c-.68-.6-1.18-1-1.66-1.46a36.65,36.65,0,0,1-3.28-3.19c-1.59-1.92-1.19-3.61,1-4.85A10.43,10.43,0,0,1,130,337a25.75,25.75,0,0,1,9.92,1.9,8.75,8.75,0,0,1,1.7,1,12.28,12.28,0,0,1,5.57,8.54,16.86,16.86,0,0,0,3.09,6.79,31.69,31.69,0,0,0,5.48,6.08c2,1.69,4,3.36,6.14,4.93q12.38,9.18,24.83,18.29a18.65,18.65,0,0,0,1.88,1.06c2.28-1.71,3.37-4.57,6.46-5.41q20.16,15.13,40.33,30.35c13.45,10.11,26.87,20.27,40.33,30.33,1-.4,1.84-.66,2.61-1.05,3.88-2,7.73-4.08,11.63-6.05A4.77,4.77,0,0,0,292.7,430a74.81,74.81,0,0,0,.73-23.84c-1.47-12-4.77-23.32-11.6-33.45a3.5,3.5,0,0,1-.66-1.46,1.4,1.4,0,0,1,.56-1.08,1.23,1.23,0,0,1,1.16,0,10.31,10.31,0,0,1,1.73,1.94A53.9,53.9,0,0,1,290,382.16a86.27,86.27,0,0,1,6,44C295.92,427.15,295.83,428.12,295.64,429.85ZM321,547.74c-3.42-1.31-6.51-2.39-9.52-3.67a138,138,0,0,1-22.33-12.41,238.3,238.3,0,0,1-29.23-23.29,8.11,8.11,0,0,0-3-2.29l-4,1.87L146,558.18a17.35,17.35,0,0,1-2.71,1.15c-9.55,2.56-19.15,3.32-28.85.84a21.25,21.25,0,0,0-2.22-.3,113.73,113.73,0,0,0-4.72,11.71,141.59,141.59,0,0,0-5.84,25.87,113,113,0,0,0-.6,26.51c.18,2,.48,2.58,2.46,2.85a47.39,47.39,0,0,0,6.53.35q7.38,0,14.77-.19c3.27-.08,6.55-.25,9.82-.47,2.51-.17,5-.6,7.51-.74q16.53-.93,33.09-1.74a61.93,61.93,0,0,1,7.21,0c9.93.67,19.86,1.35,29.78,2.16,8.5.71,17,1.78,25.47,2.36,7.09.47,14.22.74,21.31.59,9-.18,17.92-.76,26.87-1.39q10.79-.75,21.54-2.07A117.6,117.6,0,0,0,319,623.3a7.84,7.84,0,0,0,4.36-2.14c2.44-2.76,4.28-5.81,3.68-9.75-.39-2.6-.76-5.2-1.2-7.78-1.13-6.68-2.53-13.31-4.05-19.92-1.69-7.38-1.92-15-2.17-22.5a45.64,45.64,0,0,1,.9-10.43C320.7,549.83,320.79,548.86,321,547.74Zm-62.1-105c-7.24,4.31-14.73,6.82-21.77,10.31-1.57.78-3.16,1.51-4.74,2.25-15,6.94-29.92,13.92-44.91,20.81a129.45,129.45,0,0,1-25.16,8.37,62.36,62.36,0,0,1-14.59,2,6.45,6.45,0,0,1-2.24-.29,1.7,1.7,0,0,1-.91-1.21c-.1-3.49-.17-7-.1-10.46.14-7,.38-14,.58-21a178.25,178.25,0,0,1,5.71-40.18c.41-1.56.72-3.15,1.11-4.85a6.69,6.69,0,0,0-1.39-.39c-5.79-.19-11.14-2-16.38-4.32a53.9,53.9,0,0,0-5.52-2.08,25,25,0,0,0-15.17-.14c-1.46.45-2.94.85-4.41,1.27-5.83,1.68-11.73,2.65-17.81,1.63a5.15,5.15,0,0,0-1.13.1c-.35,1-.74,2-1.07,3a288.87,288.87,0,0,0-8,31.43,221.77,221.77,0,0,0-4.43,46.62A129.93,129.93,0,0,0,80.62,517a71.62,71.62,0,0,0,10.61,23.48,43.09,43.09,0,0,0,20.63,16.09c7.16,2.59,14.54,2.88,22,2a46.22,46.22,0,0,0,14.36-4.3q60.92-28.79,121.91-57.4c1-.46,1.92-1,2.85-1.47a6,6,0,0,0,0-1.42C268.32,477,263.64,460.05,258.85,442.69ZM158.25,156.08c-1.7,2.8-3.36,5.62-5.11,8.39s-3.55,5.51-5.42,8.2-3.8,5.35-5.79,8-4.06,5.16-6.18,7.67-4.35,4.9-6.52,7.36-4.65,4.49-6.77,7.13c1.07.58,1.94,1,2.77,1.5a1.19,1.19,0,0,1,.54,1.42,1.33,1.33,0,0,1-1.62.76c-.73-.21-1.42-.57-2.16-.74a4.18,4.18,0,0,0-4.22,1,85.83,85.83,0,0,1-6.85,5.61,4.85,4.85,0,0,0-2.08,3.87,10.08,10.08,0,0,1-.19,2.28,1.2,1.2,0,0,1-2.3.18,13,13,0,0,1-.5-2.62c-3.26,2.2-6.49,3.91-9.7,5.79.22,1.05.35,1.91.58,2.74a62,62,0,0,0,6,14.53q16,28,47.07,36.71a61.91,61.91,0,0,0,35.27,0c13.71-4.14,24.28-12.3,30.88-25.17,5.83-11.37,6.73-23.39,4.21-35.76a63.46,63.46,0,0,0-5.68-16c-1-1.95-.58-2.68,1.57-3.21.22-.06.44-.06.65-.11a6.31,6.31,0,0,0,5.17-6,14.81,14.81,0,0,0-.4-5.85,24,24,0,0,0-8.91-13,14.92,14.92,0,0,0-5.57-2.68c-4.64-1.11-8.12,1.15-8.69,5.86a20,20,0,0,0,.18,4.56c.28,2.57-.17,3.27-2.78,3.84a12.61,12.61,0,0,1-1.94.29,27.12,27.12,0,0,1-9.73-1A34.73,34.73,0,0,1,168.57,172a44.32,44.32,0,0,1-8.78-13.35C159.42,157.75,159.37,156.66,158.25,156.08ZM260,504.62c1.11,1.09,1.86,1.87,2.65,2.6A244.91,244.91,0,0,0,281.49,523a168.85,168.85,0,0,0,24.89,15.77,83.29,83.29,0,0,0,16.74,6.57,32.15,32.15,0,0,0,13.3,1.06c5.51-.88,9.07-4.28,10.12-9.73.17-.86.28-1.73.4-2.6a183.59,183.59,0,0,0,1.24-34.36c-.49-10.37-1.14-20.74-1.74-31.1-.17-2.82-.45-5.63-.68-8.5a5.53,5.53,0,0,0-1.12.14,72.8,72.8,0,0,1-11.91,3.56,197.72,197.72,0,0,0-22,6.48c-.66.24-1.48.27-1.87,1,.07.16.08.29.15.35a9.78,9.78,0,0,0,1,.82,115.68,115.68,0,0,1,18.1,15.09,19,19,0,0,1,1.55,1.69,1.14,1.14,0,0,1,0,1.5,1.26,1.26,0,0,1-1.76.22c-.84-.7-1.63-1.46-2.4-2.23a138.91,138.91,0,0,0-17.9-14.84,4.89,4.89,0,0,0-5.19-.63c-2.73,1.1-5.55,2-8.31,3q-8.89,3.33-17.76,6.75c-1,.38-1.93.93-3,1.44.2,1,.32,1.9.54,2.73.64,2.43,1.36,4.83,2,7.27.44,1.67.12,2.43-1.34,3.27-.84.5-1.76.88-2.64,1.3ZM186.8,388c-3.37-2.77-6.68-5.24-10-7.67q-10.34-7.53-20.57-15.21a37.56,37.56,0,0,1-9.28-10.1,15.52,15.52,0,0,1-2.15-5.1,25.14,25.14,0,0,0-1.27-4.06,8,8,0,0,0-5.09-4.8,37.63,37.63,0,0,0-7-1.41,12,12,0,0,0-3.86.54c-.45.1-.81.55-1.22.84a8,8,0,0,0,2.5,2.82c.58.49,1.19,1,1.78,1.44,2.54,2,1.54,4.23-.31,5.35a14.72,14.72,0,0,1-3,1.39c-1.44.49-2.94.84-4.42,1.22-6,1.56-12.08,3-18.08,4.68a44.08,44.08,0,0,0-12.9,5.55,15.47,15.47,0,0,0-2.73,2.31c-.35.37-.34,1.09-.52,1.73a12.22,12.22,0,0,0,5.44-.13c2-.45,4-.94,6.08-1.37a54.73,54.73,0,0,1,13-1.51,5.83,5.83,0,0,1,1.91.3,1.26,1.26,0,0,1,.64,1,1.44,1.44,0,0,1-.69,1,2.64,2.64,0,0,1-1.27.21c-6.41,0-12.57,1.55-18.75,2.95-2.66.6-4.61,2.41-6.36,4.4a3.75,3.75,0,0,0-.68,1.47,1.76,1.76,0,0,0,1.59,2.35,13.16,13.16,0,0,0,3.54-.38c1.8-.44,3.57-1.05,5.33-1.63,6.9-2.27,13.8-1.76,20.68.07a2.19,2.19,0,0,1,.87.41c.21.21.47.59.41.81a1.65,1.65,0,0,1-.72.95,2.32,2.32,0,0,1-1.26.1c-1.19-.17-2.38-.39-3.56-.58a33.12,33.12,0,0,0-16.21,1c-1.55.53-3.17.87-4.67,1.51a18.56,18.56,0,0,0-6.13,4.27c-1.25,1.32-.86,2.69.82,3.34a8.55,8.55,0,0,0,6.1.17c2.26-.79,4.5-1.69,6.79-2.4a28.27,28.27,0,0,1,19,.83,7.28,7.28,0,0,1,1.89,1.2,1,1,0,0,1,.1.9c-.09.25-.43.59-.66.58A9.44,9.44,0,0,1,120,389c-2.35-.51-4.66-1.2-7-1.52a24.7,24.7,0,0,0-12.87,1.66,30.27,30.27,0,0,1-6.21,2c-3.38.59-5.35,2.77-7,5.42-1,1.63-.48,2.95,1.18,3.82a13,13,0,0,0,2.13.82,23.85,23.85,0,0,0,12,.28c4.06-.83,8.06-2,12.08-3a26.4,26.4,0,0,1,12.34-.14,44.85,44.85,0,0,1,9.57,3.33,39.14,39.14,0,0,0,18.48,3.66c.77,0,1.53,0,2.3,0A22.84,22.84,0,0,1,170,409a24.56,24.56,0,0,0,2.38,1.26c1.56-2.73,3-5.32,4.49-7.82s3.09-4.78,4.7-7.12S185,390.51,186.8,388Zm7.79-4.91a137.53,137.53,0,0,0-14.43,19.14c-4.64,7.14-9.2,15.66-10,18.33,2.3,2.68,40.56,39.48,42.53,40.9.47-.19,1-.37,1.48-.6q18.73-8.67,37.46-17.39a36.65,36.65,0,0,0,4.85-2.72c3.38-2.28,4-2.11,5.11,1.7a10.11,10.11,0,0,0,1.28,3.57,39.6,39.6,0,0,0,9.31-4.12,3.19,3.19,0,0,0-.54-.75C246.08,421.9,220.5,402.63,194.59,383.12Zm77.88,98.57a8.17,8.17,0,0,0,1.38-.39,140.41,140.41,0,0,1,15.21-6.06c15.69-5.76,31.32-11.7,47.73-15.24a40.36,40.36,0,0,0,10.59-4.3c4.47-2.43,6.39-5.93,5.8-11a154.14,154.14,0,0,0-3.11-17.74,21,21,0,0,0-3.65-7.66,10.06,10.06,0,0,0-8-4.41,47.47,47.47,0,0,0-8.84.07,12,12,0,0,1-2.61,0,.93.93,0,0,1-.67-.59,1.55,1.55,0,0,1,.19-1.18,7.08,7.08,0,0,1,1.42-.76,5,5,0,0,0,1.58-1.06c1.41-1.94,2.8-3.9,4-6a8.14,8.14,0,0,0,.93-3.11,2.44,2.44,0,0,0-2.78-2.82,11.24,11.24,0,0,0-3.41,1.05,25.45,25.45,0,0,0-8.59,6.46c-2.16,2.47-4.29,5-6.37,7.51-2.49,3-4.9,6.16-7.36,9.23a53,53,0,0,1-15.85,13,210,210,0,0,1-24.1,11.1c-.79.32-1.56.7-2.52,1.14C266.37,460,269.39,470.78,272.47,481.69Zm-63-19c-.84-.87-1.56-1.66-2.33-2.4L170.57,425c-.78-.76-1.59-1.5-2.33-2.31a2.59,2.59,0,0,1-.59-3c.68-1.5,1.33-3,2-4.49.35-.78.73-1.55,1.07-2.28a18.78,18.78,0,0,0-15.67-4.55c-1.13,1.88-1.35,4.09-1.87,6.2a162.53,162.53,0,0,0-5.13,32.66q-.47,11-.84,22c-.13,3.94-.15,7.88-.17,11.81,0,.95-.18,2,.91,2.84a37.68,37.68,0,0,0,7.32-.76A126,126,0,0,0,179,476.63c10-3.86,19.66-8.5,29.35-13.05A9.71,9.71,0,0,0,209.52,462.7Zm10-212.83c-.54.91-.92,1.55-1.31,2.18-1.5,2.4-2.85,4.94-4.55,7.2C205.16,270.5,193.72,277,180,279.77c-1.59.32-3.18.59-4.89.91a27.42,27.42,0,0,0,2.26,6.63c4.07,1.49,8.23,1.34,12.34.71a53.67,53.67,0,0,0,22.57-9.23,35.53,35.53,0,0,0,8.19-7.52,47.34,47.34,0,0,0,3.13-5,4.71,4.71,0,0,0,.09-4.37c-1.28-3.25-2.3-6.6-3.42-9.91C220.07,251.41,219.85,250.81,219.52,249.87ZM69.45,230c-.25.93-.57,1.84-.76,2.78-2.3,11.54-7.18,22-13.59,31.76-3.47,5.3-6.75,10.74-9.91,16.24a63.37,63.37,0,0,0-6.34,16.83,64.39,64.39,0,0,0-1,6.8c-.05.34-.21.92.56.95,1.37-2.33,2.69-4.7,4.13-7s3-4.57,4.5-6.85c.18-.28.33-.57.5-.86l5.89-9.85q5.66-9.42,11.31-18.84a40.89,40.89,0,0,0,5.69-17C71,240,71.23,234.94,69.45,230ZM45.64,370a54.63,54.63,0,0,0,2.22-8.35,4.45,4.45,0,0,0-.31-3.17c-.29-.59-.54-1.19-.79-1.79-4.24-10.06-8.24-20.19-10.5-30.92a17.53,17.53,0,0,0-.56-1.72c-1.07,1.84-1.09,3.71-1.44,5.48a40.28,40.28,0,0,0,1.82,22.84c1.52,3.84,3.4,7.55,5.24,11.26A29.65,29.65,0,0,0,45.64,370Zm-5.25-61.32a11.94,11.94,0,0,0-2.67,8.16c.29,2.82.65,5.65,1.21,8.43,1.91,9.47,5.34,18.45,9,27.35a17.33,17.33,0,0,0,.94,1.59c.14-1.24.24-1.83.26-2.43a45.55,45.55,0,0,0-2.36-14.5c-1.27-4.18-2.69-8.32-3.93-12.51-1.45-4.94-2.56-10-2.25-15.17A3.34,3.34,0,0,0,40.39,308.72Z" transform="translate(-30.68 -78.48)"/><path class="cls-2" d="M295.64,429.85c.19-1.73.28-2.7.41-3.66a86.27,86.27,0,0,0-6-44,53.9,53.9,0,0,0-5.39-10.11,10.31,10.31,0,0,0-1.73-1.94,1.23,1.23,0,0,0-1.16,0,1.4,1.4,0,0,0-.56,1.08,3.5,3.5,0,0,0,.66,1.46c6.83,10.13,10.13,21.47,11.6,33.45A74.81,74.81,0,0,1,292.7,430a4.77,4.77,0,0,1-2.77,3.71c-3.9,2-7.75,4-11.63,6.05-.77.39-1.6.65-2.61,1.05-13.46-10.06-26.88-20.22-40.33-30.33S208.47,390.2,195,380.11c-3.09.84-4.18,3.7-6.46,5.41a18.65,18.65,0,0,1-1.88-1.06q-12.44-9.12-24.83-18.29c-2.11-1.57-4.13-3.24-6.14-4.93a31.69,31.69,0,0,1-5.48-6.08,16.86,16.86,0,0,1-3.09-6.79,12.28,12.28,0,0,0-5.57-8.54,8.75,8.75,0,0,0-1.7-1A25.75,25.75,0,0,0,130,337a10.43,10.43,0,0,0-4.7,1.31c-2.19,1.24-2.59,2.93-1,4.85a36.65,36.65,0,0,0,3.28,3.19c.48.44,1,.86,1.66,1.46a8.46,8.46,0,0,1-1.79,1.38,30.85,30.85,0,0,1-4.39,1.34,203,203,0,0,0-26.49,7.44,4.13,4.13,0,0,1-1.06.06,6.43,6.43,0,0,1-.26-1.26c0-9.69,1.09-19.22,4.48-28.36a47.6,47.6,0,0,1,14.11-20.61,45.59,45.59,0,0,1,20.92-9.63,69.59,69.59,0,0,1,26.09.34,103.62,103.62,0,0,1,17.35,4.83,15,15,0,0,0,2.18.7,1.54,1.54,0,0,0,1.86-1.95c-.21-.85-.53-1.67-.81-2.5-.95-2.78-1.9-5.56-2.93-8.59,3.25,0,6.25.08,9.25,0a31.65,31.65,0,0,0,9-1.76,81,81,0,0,0,8.85-3.43,55.46,55.46,0,0,0,7.93-4.6,48.18,48.18,0,0,0,7-5.89,88.86,88.86,0,0,0,5.77-7.26,16.34,16.34,0,0,1,1.07,1.44C240,291,258.76,304.52,282.81,310.91c2,.53,4.05.91,6.08,1.35,13.67,3,24.72,10.23,33.61,20.91a87.66,87.66,0,0,1,17.37,34.61,96.11,96.11,0,0,1,2.59,35.46c-.34,2.92-.91,5.81-1.41,8.88a36.93,36.93,0,0,1-8.09-.49l1.68-2.68a16.56,16.56,0,0,0,2.34-5.38c.9-4.46-2.2-7.64-6.63-6.7a15.86,15.86,0,0,0-3.68,1.37,27.93,27.93,0,0,0-9,6.95c-3.05,3.58-6,7.23-9,10.85-2.51,3-5,6.09-7.56,9.08A25.32,25.32,0,0,1,295.64,429.85Z" transform="translate(-30.68 -78.48)"/><path class="cls-2" d="M321,547.74c-.16,1.12-.25,2.09-.44,3a45.64,45.64,0,0,0-.9,10.43c.25,7.55.48,15.12,2.17,22.5,1.52,6.61,2.92,13.24,4.05,19.92.44,2.58.81,5.18,1.2,7.78.6,3.94-1.24,7-3.68,9.75A7.84,7.84,0,0,1,319,623.3a117.6,117.6,0,0,1-11.54,2.4q-10.74,1.34-21.54,2.07c-9,.63-17.9,1.21-26.87,1.39-7.09.15-14.22-.12-21.31-.59-8.5-.58-17-1.65-25.47-2.36-9.92-.81-19.85-1.49-29.78-2.16a61.93,61.93,0,0,0-7.21,0q-16.54.81-33.09,1.74c-2.51.14-5,.57-7.51.74-3.27.22-6.55.39-9.82.47q-7.38.18-14.77.19a47.39,47.39,0,0,1-6.53-.35c-2-.27-2.28-.83-2.46-2.85a113,113,0,0,1,.6-26.51,141.59,141.59,0,0,1,5.84-25.87,113.73,113.73,0,0,1,4.72-11.71,21.25,21.25,0,0,1,2.22.3c9.7,2.48,19.3,1.72,28.85-.84a17.35,17.35,0,0,0,2.71-1.15L252.85,508l4-1.87a8.11,8.11,0,0,1,3,2.29,238.3,238.3,0,0,0,29.23,23.29,138,138,0,0,0,22.33,12.41C314.44,545.35,317.53,546.43,321,547.74Z" transform="translate(-30.68 -78.48)"/><path class="cls-2" d="M258.85,442.69C263.64,460.05,268.32,477,273,494a6,6,0,0,1,0,1.42c-.93.49-1.87,1-2.85,1.47q-61,28.68-121.91,57.4a46.22,46.22,0,0,1-14.36,4.3c-7.47.9-14.85.61-22-2a43.09,43.09,0,0,1-20.63-16.09A71.62,71.62,0,0,1,80.62,517a129.93,129.93,0,0,1-4.12-31.46,221.77,221.77,0,0,1,4.43-46.62,288.87,288.87,0,0,1,8-31.43c.33-1,.72-2,1.07-3a5.15,5.15,0,0,1,1.13-.1c6.08,1,12,.05,17.81-1.63,1.47-.42,3-.82,4.41-1.27a25,25,0,0,1,15.17.14,53.9,53.9,0,0,1,5.52,2.08c5.24,2.29,10.59,4.13,16.38,4.32a6.69,6.69,0,0,1,1.39.39c-.39,1.7-.7,3.29-1.11,4.85A178.25,178.25,0,0,0,145,453.44c-.2,7-.44,14-.58,21-.07,3.48,0,7,.1,10.46a1.7,1.7,0,0,0,.91,1.21,6.45,6.45,0,0,0,2.24.29,62.36,62.36,0,0,0,14.59-2,129.45,129.45,0,0,0,25.16-8.37c15-6.89,29.94-13.87,44.91-20.81,1.58-.74,3.17-1.47,4.74-2.25C244.12,449.51,251.61,447,258.85,442.69Z" transform="translate(-30.68 -78.48)"/><path class="cls-2" d="M158.25,156.08c1.12.58,1.17,1.67,1.54,2.52A44.32,44.32,0,0,0,168.57,172,34.73,34.73,0,0,0,184,181.53a27.12,27.12,0,0,0,9.73,1,12.61,12.61,0,0,0,1.94-.29c2.61-.57,3.06-1.27,2.78-3.84a20,20,0,0,1-.18-4.56c.57-4.71,4.05-7,8.69-5.86a14.92,14.92,0,0,1,5.57,2.68,24,24,0,0,1,8.91,13,14.81,14.81,0,0,1,.4,5.85,6.31,6.31,0,0,1-5.17,6c-.21.05-.43.05-.65.11-2.15.53-2.56,1.26-1.57,3.21a63.46,63.46,0,0,1,5.68,16c2.52,12.37,1.62,24.39-4.21,35.76-6.6,12.87-17.17,21-30.88,25.17a61.91,61.91,0,0,1-35.27,0q-31-8.71-47.07-36.71a62,62,0,0,1-6-14.53c-.23-.83-.36-1.69-.58-2.74,3.21-1.88,6.44-3.59,9.7-5.79a13,13,0,0,0,.5,2.62,1.2,1.2,0,0,0,2.3-.18,10.08,10.08,0,0,0,.19-2.28,4.85,4.85,0,0,1,2.08-3.87,85.83,85.83,0,0,0,6.85-5.61,4.18,4.18,0,0,1,4.22-1c.74.17,1.43.53,2.16.74a1.33,1.33,0,0,0,1.62-.76,1.19,1.19,0,0,0-.54-1.42c-.83-.49-1.7-.92-2.77-1.5,2.12-2.64,4.63-4.71,6.77-7.13s4.4-4.86,6.52-7.36,4.18-5.06,6.18-7.67,3.92-5.25,5.79-8,3.67-5.44,5.42-8.2S156.55,158.88,158.25,156.08Zm1.57,104.75c7.93-.56,14.08-4.07,18.12-11.06a12.16,12.16,0,0,0,1.46-4.65,3.18,3.18,0,0,0-.08-1.6,2.05,2.05,0,0,0-1.1-1c-.6-.2-1,.3-1.19.85a10.54,10.54,0,0,0-.32,1.6A13,13,0,0,1,173,252.1a19.43,19.43,0,0,1-9.16,5.45,12.69,12.69,0,0,1-8.34-.29,3.94,3.94,0,0,0-1.54-.42,1.33,1.33,0,0,0-1,.67,1.35,1.35,0,0,0,.12,1.19,3.53,3.53,0,0,0,1.29.95A12,12,0,0,0,159.82,260.83ZM149.64,188.1a17.42,17.42,0,0,0,.63,2.22,1.23,1.23,0,0,0,1.06.51,1.28,1.28,0,0,0,.92-.75,8.32,8.32,0,0,0,.08-1.94,12.1,12.1,0,0,1,9.27-11.65,8.34,8.34,0,0,1,6,.66,8.24,8.24,0,0,0,1.77.8,1.32,1.32,0,0,0,1.09-.46,1.38,1.38,0,0,0,.09-1.19,3.27,3.27,0,0,0-1.11-1.14,10.18,10.18,0,0,0-5.89-1.67C156.43,173.61,149.72,180.36,149.64,188.1Zm-31.38,45.84a45,45,0,0,0,4.49-.84,20,20,0,0,0,11.49-8.18,7.41,7.41,0,0,0,.94-2.39,1.27,1.27,0,0,0-.61-1,1.33,1.33,0,0,0-1.2.09,11.12,11.12,0,0,0-1.36,1.81,17.79,17.79,0,0,1-10.58,7.23,11,11,0,0,1-8-.62,3.16,3.16,0,0,0-1.55-.37c-.34,0-.73.44-.94.77a1,1,0,0,0,.07.92,4.13,4.13,0,0,0,1.21,1.07A13,13,0,0,0,118.26,233.94Zm48.86-25.73c6.24-.41,11-2.65,14.29-7.54a21.17,21.17,0,0,0,1.74-3.84,2.05,2.05,0,0,0,.07-1.27,1.49,1.49,0,0,0-.8-.91,1.34,1.34,0,0,0-1.14.33,3.68,3.68,0,0,0-.74,1.43c-1.85,6.24-9.46,10-15.07,8.85a2.46,2.46,0,0,0-1.27-.11c-.45.18-1,.59-1.09,1a1.43,1.43,0,0,0,.66,1.27A29,29,0,0,0,167.12,208.21ZM157.93,240c-3.92.25-6.14-1.53-6.7-4.88a8.6,8.6,0,0,1,.54-4.17,9.1,9.1,0,0,0,.53-1.86,1.31,1.31,0,0,0-.64-1,1.51,1.51,0,0,0-1.2.14,1.93,1.93,0,0,0-.8,1,18,18,0,0,0-1.19,4.39c-.2,4.15,2.05,8.31,7.14,9.14a5,5,0,0,0,3.77-.69,1.32,1.32,0,0,0,.43-1.11,1.4,1.4,0,0,0-.8-.91A2.66,2.66,0,0,0,157.93,240Z" transform="translate(-30.68 -78.48)"/><path class="cls-2" d="M260,504.62,272,499c.88-.42,1.8-.8,2.64-1.3,1.46-.84,1.78-1.6,1.34-3.27-.63-2.44-1.35-4.84-2-7.27-.22-.83-.34-1.69-.54-2.73,1.05-.51,2-1.06,3-1.44q8.87-3.41,17.76-6.75c2.76-1,5.58-1.9,8.31-3a4.89,4.89,0,0,1,5.19.63,138.91,138.91,0,0,1,17.9,14.84c.77.77,1.56,1.53,2.4,2.23a1.26,1.26,0,0,0,1.76-.22,1.14,1.14,0,0,0,0-1.5,19,19,0,0,0-1.55-1.69A115.68,115.68,0,0,0,310,472.42a9.78,9.78,0,0,1-1-.82c-.07-.06-.08-.19-.15-.35.39-.72,1.21-.75,1.87-1a197.72,197.72,0,0,1,22-6.48,72.8,72.8,0,0,0,11.91-3.56,5.53,5.53,0,0,1,1.12-.14c.23,2.87.51,5.68.68,8.5.6,10.36,1.25,20.73,1.74,31.1A183.59,183.59,0,0,1,346.94,534c-.12.87-.23,1.74-.4,2.6-1.05,5.45-4.61,8.85-10.12,9.73a32.15,32.15,0,0,1-13.3-1.06,83.29,83.29,0,0,1-16.74-6.57A168.85,168.85,0,0,1,281.49,523a244.91,244.91,0,0,1-18.88-15.75C261.82,506.49,261.07,505.71,260,504.62Z" transform="translate(-30.68 -78.48)"/><path class="cls-2" d="M186.8,388c-1.78,2.48-3.52,4.84-5.19,7.25s-3.21,4.7-4.7,7.12-2.93,5.09-4.49,7.82A24.56,24.56,0,0,1,170,409,22.84,22.84,0,0,0,157,405.32c-.77,0-1.53,0-2.3,0a39.14,39.14,0,0,1-18.48-3.66,44.85,44.85,0,0,0-9.57-3.33,26.4,26.4,0,0,0-12.34.14c-4,1.07-8,2.21-12.08,3a23.85,23.85,0,0,1-12-.28,13,13,0,0,1-2.13-.82c-1.66-.87-2.17-2.19-1.18-3.82,1.61-2.65,3.58-4.83,7-5.42a30.27,30.27,0,0,0,6.21-2,24.7,24.7,0,0,1,12.87-1.66c2.37.32,4.68,1,7,1.52a9.44,9.44,0,0,0,1.89.31c.23,0,.57-.33.66-.58a1,1,0,0,0-.1-.9,7.28,7.28,0,0,0-1.89-1.2,28.27,28.27,0,0,0-19-.83c-2.29.71-4.53,1.61-6.79,2.4a8.55,8.55,0,0,1-6.1-.17c-1.68-.65-2.07-2-.82-3.34A18.56,18.56,0,0,1,94,380.44c1.5-.64,3.12-1,4.67-1.51a33.12,33.12,0,0,1,16.21-1c1.18.19,2.37.41,3.56.58a2.32,2.32,0,0,0,1.26-.1,1.65,1.65,0,0,0,.72-.95c.06-.22-.2-.6-.41-.81a2.19,2.19,0,0,0-.87-.41c-6.88-1.83-13.78-2.34-20.68-.07-1.76.58-3.53,1.19-5.33,1.63a13.16,13.16,0,0,1-3.54.38A1.76,1.76,0,0,1,88,375.86a3.75,3.75,0,0,1,.68-1.47c1.75-2,3.7-3.8,6.36-4.4,6.18-1.4,12.34-3,18.75-2.95a2.64,2.64,0,0,0,1.27-.21,1.44,1.44,0,0,0,.69-1,1.26,1.26,0,0,0-.64-1,5.83,5.83,0,0,0-1.91-.3,54.73,54.73,0,0,0-13,1.51c-2,.43-4,.92-6.08,1.37a12.22,12.22,0,0,1-5.44.13c.18-.64.17-1.36.52-1.73a15.47,15.47,0,0,1,2.73-2.31A44.08,44.08,0,0,1,104.8,358c6-1.64,12-3.12,18.08-4.68,1.48-.38,3-.73,4.42-1.22a14.72,14.72,0,0,0,3-1.39c1.85-1.12,2.85-3.32.31-5.35-.59-.48-1.2-.95-1.78-1.44a8,8,0,0,1-2.5-2.82c.41-.29.77-.74,1.22-.84a12,12,0,0,1,3.86-.54,37.63,37.63,0,0,1,7,1.41,8,8,0,0,1,5.09,4.8,25.14,25.14,0,0,1,1.27,4.06,15.52,15.52,0,0,0,2.15,5.1,37.56,37.56,0,0,0,9.28,10.1q10.23,7.68,20.57,15.21C180.12,382.79,183.43,385.26,186.8,388Z" transform="translate(-30.68 -78.48)"/><path class="cls-2" d="M194.59,383.12c25.91,19.51,51.49,38.78,77.06,58.06a3.19,3.19,0,0,1,.54.75,39.6,39.6,0,0,1-9.31,4.12,10.11,10.11,0,0,1-1.28-3.57c-1.12-3.81-1.73-4-5.11-1.7a36.65,36.65,0,0,1-4.85,2.72q-18.72,8.75-37.46,17.39c-.49.23-1,.41-1.48.6-2-1.42-40.23-38.22-42.53-40.9.79-2.67,5.35-11.19,10-18.33A137.53,137.53,0,0,1,194.59,383.12Z" transform="translate(-30.68 -78.48)"/><path class="cls-2" d="M272.47,481.69c-3.08-10.91-6.1-21.73-9-32.71,1-.44,1.73-.82,2.52-1.14a210,210,0,0,0,24.1-11.1,53,53,0,0,0,15.85-13c2.46-3.07,4.87-6.19,7.36-9.23,2.08-2.55,4.21-5,6.37-7.51a25.45,25.45,0,0,1,8.59-6.46,11.24,11.24,0,0,1,3.41-1.05,2.44,2.44,0,0,1,2.78,2.82,8.14,8.14,0,0,1-.93,3.11c-1.22,2.06-2.61,4-4,6a5,5,0,0,1-1.58,1.06,7.08,7.08,0,0,0-1.42.76,1.55,1.55,0,0,0-.19,1.18.93.93,0,0,0,.67.59,12,12,0,0,0,2.61,0,47.47,47.47,0,0,1,8.84-.07,10.06,10.06,0,0,1,8,4.41,21,21,0,0,1,3.65,7.66,154.14,154.14,0,0,1,3.11,17.74c.59,5.11-1.33,8.61-5.8,11a40.36,40.36,0,0,1-10.59,4.3c-16.41,3.54-32,9.48-47.73,15.24a140.41,140.41,0,0,0-15.21,6.06A8.17,8.17,0,0,1,272.47,481.69Z" transform="translate(-30.68 -78.48)"/><path class="cls-2" d="M209.52,462.7a9.71,9.71,0,0,1-1.21.88c-9.69,4.55-19.35,9.19-29.35,13.05a126,126,0,0,1-23.69,6.45,37.68,37.68,0,0,1-7.32.76C146.86,483,147,482,147,481c0-3.93,0-7.87.17-11.81q.36-11,.84-22a162.53,162.53,0,0,1,5.13-32.66c.52-2.11.74-4.32,1.87-6.2a18.78,18.78,0,0,1,15.67,4.55c-.34.73-.72,1.5-1.07,2.28-.67,1.49-1.32,3-2,4.49a2.59,2.59,0,0,0,.59,3c.74.81,1.55,1.55,2.33,2.31l36.62,35.3C208,461,208.68,461.83,209.52,462.7Z" transform="translate(-30.68 -78.48)"/><path class="cls-2" d="M219.52,249.87c.33.94.55,1.54.76,2.14,1.12,3.31,2.14,6.66,3.42,9.91a4.71,4.71,0,0,1-.09,4.37,47.34,47.34,0,0,1-3.13,5,35.53,35.53,0,0,1-8.19,7.52A53.67,53.67,0,0,1,189.72,288c-4.11.63-8.27.78-12.34-.71a27.42,27.42,0,0,1-2.26-6.63c1.71-.32,3.3-.59,4.89-.91,13.71-2.76,25.15-9.27,33.65-20.52,1.7-2.26,3.05-4.8,4.55-7.2C218.6,251.42,219,250.78,219.52,249.87Z" transform="translate(-30.68 -78.48)"/><path class="cls-2" d="M69.45,230c1.78,5,1.51,10,1,15a40.89,40.89,0,0,1-5.69,17q-5.67,9.42-11.31,18.84l-5.89,9.85c-.17.29-.32.58-.5.86-1.5,2.28-3.06,4.53-4.5,6.85s-2.76,4.67-4.13,7c-.77,0-.61-.61-.56-.95a64.39,64.39,0,0,1,1-6.8,63.37,63.37,0,0,1,6.34-16.83c3.16-5.5,6.44-10.94,9.91-16.24,6.41-9.8,11.29-20.22,13.59-31.76C68.88,231.81,69.2,230.9,69.45,230Z" transform="translate(-30.68 -78.48)"/><path class="cls-2" d="M45.64,370a29.65,29.65,0,0,1-4.32-6.37c-1.84-3.71-3.72-7.42-5.24-11.26a40.28,40.28,0,0,1-1.82-22.84c.35-1.77.37-3.64,1.44-5.48a17.53,17.53,0,0,1,.56,1.72c2.26,10.73,6.26,20.86,10.5,30.92.25.6.5,1.2.79,1.79a4.45,4.45,0,0,1,.31,3.17A54.63,54.63,0,0,1,45.64,370Z" transform="translate(-30.68 -78.48)"/><path class="cls-2" d="M40.39,308.72a3.34,3.34,0,0,1,.23.92c-.31,5.21.8,10.23,2.25,15.17,1.24,4.19,2.66,8.33,3.93,12.51a45.55,45.55,0,0,1,2.36,14.5c0,.6-.12,1.19-.26,2.43a17.33,17.33,0,0,1-.94-1.59c-3.69-8.9-7.12-17.88-9-27.35-.56-2.78-.92-5.61-1.21-8.43A11.94,11.94,0,0,1,40.39,308.72Z" transform="translate(-30.68 -78.48)"/><path d="M159.82,260.83a12,12,0,0,1-5.43-1.18,3.53,3.53,0,0,1-1.29-.95,1.35,1.35,0,0,1-.12-1.19,1.33,1.33,0,0,1,1-.67,3.94,3.94,0,0,1,1.54.42,12.69,12.69,0,0,0,8.34.29A19.43,19.43,0,0,0,173,252.1a13,13,0,0,0,3.71-7.14,10.54,10.54,0,0,1,.32-1.6c.18-.55.59-1.05,1.19-.85a2.05,2.05,0,0,1,1.1,1,3.18,3.18,0,0,1,.08,1.6,12.16,12.16,0,0,1-1.46,4.65C173.9,256.76,167.75,260.27,159.82,260.83Z" transform="translate(-30.68 -78.48)"/><path d="M149.64,188.1c.08-7.74,6.79-14.49,13.94-14.61a10.18,10.18,0,0,1,5.89,1.67,3.27,3.27,0,0,1,1.11,1.14,1.38,1.38,0,0,1-.09,1.19,1.32,1.32,0,0,1-1.09.46,8.24,8.24,0,0,1-1.77-.8,8.34,8.34,0,0,0-6-.66,12.1,12.1,0,0,0-9.27,11.65,8.32,8.32,0,0,1-.08,1.94,1.28,1.28,0,0,1-.92.75,1.23,1.23,0,0,1-1.06-.51A17.42,17.42,0,0,1,149.64,188.1Z" transform="translate(-30.68 -78.48)"/><path d="M118.26,233.94a13,13,0,0,1-6-1.53,4.13,4.13,0,0,1-1.21-1.07,1,1,0,0,1-.07-.92c.21-.33.6-.74.94-.77a3.16,3.16,0,0,1,1.55.37,11,11,0,0,0,8,.62A17.79,17.79,0,0,0,132,223.41a11.12,11.12,0,0,1,1.36-1.81,1.33,1.33,0,0,1,1.2-.09,1.27,1.27,0,0,1,.61,1,7.41,7.41,0,0,1-.94,2.39,20,20,0,0,1-11.49,8.18A45,45,0,0,1,118.26,233.94Z" transform="translate(-30.68 -78.48)"/><path d="M167.12,208.21a29,29,0,0,1-3.35-.8,1.43,1.43,0,0,1-.66-1.27c.08-.4.64-.81,1.09-1a2.46,2.46,0,0,1,1.27.11c5.61,1.13,13.22-2.61,15.07-8.85a3.68,3.68,0,0,1,.74-1.43,1.34,1.34,0,0,1,1.14-.33,1.49,1.49,0,0,1,.8.91,2.05,2.05,0,0,1-.07,1.27,21.17,21.17,0,0,1-1.74,3.84C178.13,205.56,173.36,207.8,167.12,208.21Z" transform="translate(-30.68 -78.48)"/><path d="M157.93,240a2.66,2.66,0,0,1,1.08,0,1.4,1.4,0,0,1,.8.91,1.32,1.32,0,0,1-.43,1.11,5,5,0,0,1-3.77.69c-5.09-.83-7.34-5-7.14-9.14a18,18,0,0,1,1.19-4.39,1.93,1.93,0,0,1,.8-1,1.51,1.51,0,0,1,1.2-.14,1.31,1.31,0,0,1,.64,1,9.1,9.1,0,0,1-.53,1.86,8.6,8.6,0,0,0-.54,4.17C151.79,238.49,154,240.27,157.93,240Z" transform="translate(-30.68 -78.48)"/></svg>