<svg id="레이어_1" data-name="레이어 1" xmlns="http://www.w3.org/2000/svg" viewBox="0 0 618.24 603.38"><defs><style>.cls-1,.cls-2{fill:#fff;}.cls-1{stroke:#231815;stroke-linecap:round;stroke-linejoin:round;stroke-width:2.89px;}</style></defs><polyline class="cls-1" points="616.8 425.43 609 445.26 547.45 601.83 353.84 601.93 423.98 425.77 423.98 425.77 210.82 426.13 210.64 66.45 616.61 66.24 616.79 408.35 616.8 425.43"/><path d="M103.88,650.8a251.49,251.49,0,0,1,2-40.27c-3.64-.24-7.15-.23-10.59-.74-13.58-2-23.94-9.32-32.07-20.06-8.76-11.57-13.64-24.87-16.84-38.85-4.71-20.6-5.47-41.49-4.15-62.49,2-31.37,8.53-61.84,18.17-91.7,4.07-12.59,11.28-23.23,19.74-33.14A200.64,200.64,0,0,1,110.48,335c1.51-1.16,1.88-2,1.18-3.91a101.32,101.32,0,0,1-6.16-27.75c-.67-8.36,1.75-16.17,5-23.7,1.89-4.39,4.24-8.59,6.49-12.82a28.66,28.66,0,0,0,3.23-12.64,64.78,64.78,0,0,0-3.32-23.35c-2.18-6.5-3.51-13.23-1.51-20a29.89,29.89,0,0,1,3.95-8.67c13-18.52,21.61-39,28.34-60.52a278.24,278.24,0,0,1,11.58-31.22c13.15-29.1,34.54-49.45,65.54-58.59,14.11-4.16,28.31-3.47,42.56.6,14.75,4.21,27.79,11.27,38.34,22.19C320.3,89.73,331,107.29,336.14,128c2.47,10,4.46,19.89,4.27,30.27-.16,8.59,3.07,16.45,7.21,23.84,5.32,9.5,8.46,19.5,7.58,30.47-.43,5.33-1.2,10.64-2.1,15.91-1.07,6.22-2.54,12.36-3.66,18.57a23.62,23.62,0,0,0,2.41,15.33c4.15,8.15,7.37,16.65,8.47,25.83a44.62,44.62,0,0,1-1.79,17.56c-3.63,12.79-2.46,25.49-.08,38.23.13.71.3,1.41.42,2.12,1.3,7.86,4.67,14.55,9.47,21.06,29.82,40.49,48.81,85.79,58.46,135.05a289,289,0,0,1,5,62c-.26,12-5,21.61-12.8,30a52,52,0,0,1-31,16.45,30.38,30.38,0,0,1-17.52-2.93c-4.9-2.29-9.49-5.24-14.21-7.92-.73-.41-1.38-1-2.38-1.66,3.35,17,4.28,33.86,4.93,50.71a15,15,0,0,0,.29,1.88h-4.32c0-.55-.11-1.11-.13-1.67-.9-17.88-1.59-35.79-5.7-53.33a6.66,6.66,0,0,0-1.64-3c-4.3-4.41-8.86-8.57-13-13.12-2.17-2.4-4.13-4.25-7.6-3.41a8.07,8.07,0,0,1-2.63-.1c-13.8-1.65-27.6-3.33-41.41-4.91a2.8,2.8,0,0,0-2.27,1c-3.14,5.6-8,9.26-13.37,12.44-8.92,5.31-18.57,8.93-28.5,11.79-39.3,11.36-79.54,14.87-120.28,14.21-2.83-.05-5.67,0-8.64,0-.51,7.4-1.17,14.65-1.45,21.9-.24,6.06,0,12.14,0,18.2Zm126-328.33c-8.45,1.78-16.14-.59-23.28-4.23a244.56,244.56,0,0,1-22.65-13.41c-2.66-1.74-4.64-2.28-7.69-1.22-35.75,12.44-65.92,33.19-91.41,60.95a97.75,97.75,0,0,0-22.49,39.65C57,422.75,52.27,441.38,49.43,460.46c-3.86,25.91-5.15,51.87-1.18,77.89,2.25,14.79,6.13,29.08,13.78,42.11,5.85,9.95,13.44,18.08,24.34,22.59,6.17,2.56,12.62,3.06,19.27,3,13.18-.14,26.38.5,39.56.15a386.1,386.1,0,0,0,77-9.65c13.49-3.13,26.78-6.95,39.1-13.45A79.52,79.52,0,0,0,272,575.94c3.6-2.74,5.27-6.48,5.63-11.14,1-12.67,2-25.35,3.65-37.95.66-5.08-1-8.09-5.08-10.37-1.12-.61-2.21-1.29-3.36-1.85-8.47-4.16-17.51-6.53-26.73-8.22A319.67,319.67,0,0,0,139.66,505c-11.07,1.7-22,4.19-32,9.5a3.18,3.18,0,0,1-3-.57c-1-1.19-.2-2.49,1.14-3.08,4.24-1.84,8.55-3.53,12.78-5.41a5.47,5.47,0,0,0,2.54-2.12c7.12-13.46,9.48-28.09,10.14-43,.87-19.67-1-39-8.81-57.35a3.22,3.22,0,0,1,.84-3c1.31-.89,2.39.08,3,1.42.72,1.68,1.51,3.35,2.1,5.09,8.45,24.66,9.38,49.82,4.5,75.23-1.4,7.3-4,14.37-6.08,21.5-.27,0,0,.05.18,0a244.25,244.25,0,0,1,44.17-5.71c26.77-1.22,53.39-.06,79.69,5.52,9.48,2,18.81,4.58,27.24,9.59,3.33,2,6.31,4.37,7.87,8.13a1.69,1.69,0,0,0,1.14.93c2.45.08,4.9,0,7.34,0,0-.25.09-.42,0-.54-.31-.65-.63-1.29-1-1.93A510.31,510.31,0,0,1,245,384.63c-1.15-5.52-.22-10.08,3-14.39,1.93-2.55,3.95-5,5.93-7.53.37-.48.73-1,1.11-1.49C243.37,350.44,233.78,338.45,229.86,322.47Zm55,18.71c-3.6,2.72-7.31,5.35-10.82,8.24-8.48,7-16.41,14.5-22.76,23.55a11.93,11.93,0,0,0-2.25,9.86c10.89,52.78,29.37,102.68,56.49,149.29,11.13,19.13,23.8,37.16,39.64,52.77,7.38,7.28,15.36,13.79,24.86,18.15,5.51,2.53,11.27,4.41,17.41,3.43,16-2.58,27.93-11.24,35.92-25.28A28.34,28.34,0,0,0,427.26,569a249.88,249.88,0,0,0-2.51-54,333.37,333.37,0,0,0-33.53-103c-14.42-28.07-32.14-53.77-55.31-75.43-13.77-12.88-28.91-23.75-46.75-30.34-4.45-1.64-9.08-2.79-13.69-4.18-1,6.05-.1,14.27,2.27,19.35q3.13,6.72,6.84,13.17a12,12,0,0,0,3.82,3.87,134,134,0,0,1,23.39,19c38.74,39.61,66.55,86,85.23,138,2.05,5.71,3.54,11.62,5.14,17.47.46,1.68,1.79,4.15-1,4.82-2.66.62-2.43-2.1-3-3.71a12.84,12.84,0,0,1-.35-1.39c-6.5-25.07-17-48.51-29.45-71.11-15.85-28.75-34.34-55.63-57.46-79.11A134.71,134.71,0,0,0,284.84,341.18ZM284.56,234a2.93,2.93,0,0,0,.59-.41c.49-.53,1-1.08,1.41-1.63A83.85,83.85,0,0,0,299,211.06c1.41-3.38,2.48-3.67,5.92-2.63a13.28,13.28,0,0,0,5.85.57c12.42-2,22.44-18.69,18.61-30.67-1.7-5.28-5.92-8.32-11.34-7.38a25.75,25.75,0,0,0-8.52,3.47c-3.69,2.22-4.88,2.23-7.45-1.34a38.09,38.09,0,0,1-6.73-17.75,71.93,71.93,0,0,0-8.84-26.39,130.23,130.23,0,0,1-8-17.88c-1.74-4.63-2.66-9.56-3.94-14.35-6.67,8.4-15.63,14-25.28,18.64a156.24,156.24,0,0,1-63.43,15.06,3.63,3.63,0,0,0-3.57,2c-13.19,22.89-16.18,47.08-8.77,72.36,5.61,19.12,16.62,34.39,34.18,44.49.87.5,1.78.93,2.85,1.49,1.56-4,4.94-5.34,8.38-6.54,7.61-2.65,15.57-2.55,23.46-2.85a44.57,44.57,0,0,1,17.62,3c2.45.93,4.85,2,7.26,3,.14-.2.28-.31.31-.44.06-.32.06-.64.09-1,.67-6.83-2.42-12-7.23-16.46-3.58-3.3-7.4-6.38-10.75-9.9A15.48,15.48,0,0,1,246,213c-1.09-4.19,2-7.39,6.24-6.62a29.94,29.94,0,0,1,8.33,2.83C271.26,214.82,279.67,222.72,284.56,234Zm-69,57.54c.5-1.09.85-1.87,1.22-2.64,3-6.24,7.2-11.39,13.44-14.5a34.28,34.28,0,0,1,8-2.27c1.43-.31,2.85.21,2.9,2s-1.22,2.09-2.61,2.15a16.39,16.39,0,0,0-10.16,4.38c-5.86,5.07-9.76,11.24-9.67,19.26.07,5.58,3.91,8.72,9.14,7.67a3.06,3.06,0,0,0,1.82-1.71c.92-2.46,1.26-5.19,2.47-7.48a78.15,78.15,0,0,1,6.4-9.77,3.13,3.13,0,0,1,3-.53c1.39.77,1,2.15,0,3.27l-.78.92a31.47,31.47,0,0,0-7.41,23.84c1.78,17.75,12.31,30.38,24.36,41.74l24.09-20.24c-1.48-2.57-3.11-5.49-4.82-8.35-4.39-7.34-6.7-15.3-6-23.8A205.82,205.82,0,0,1,274.09,283c2.09-10.64,4.88-21.15,7.07-31.79,1.72-8.32.51-16.26-4.73-23.23a50.63,50.63,0,0,0-18.87-15.57,25.67,25.67,0,0,0-5.44-1.78c-1.89-.42-2.8.56-1.89,2.23a25.07,25.07,0,0,0,4.31,5.63c2.9,2.86,6.14,5.37,9.08,8.19,5.29,5,9,10.92,8.18,18.6-.29,2.84-.89,5.46,2.41,7.07.44.21.57,2,.19,2.66-.27.5-1.64.61-2.48.52-.63-.07-1.21-.72-1.79-1.14-6.53-4.78-13.84-7.93-21.86-8.41a140.1,140.1,0,0,0-20.57.67c-3.43.31-6.81,1.59-10.1,2.76a6.12,6.12,0,0,0-3,2.81c-2.13,4.19-4.11,8.48-5.94,12.81s-.71,6.47,3.8,8.39c.24-.38.51-.76.74-1.16a33.37,33.37,0,0,1,21.66-16.19c8.38-2.07,16.36-1.1,23.32,4.56,1.18,1,2.57,2.12,1.22,3.78s-2.56.32-3.91-.44c-2.75-1.55-5.53-3.4-8.54-4.06C234,257.08,219,266,215,278.66A17.52,17.52,0,0,0,215.52,291.58ZM327.08,572.43c.07-.27.14-.53.22-.8-.27-.39-.52-.79-.82-1.15A245.33,245.33,0,0,1,301.87,534c-3.06-5.69-6.51-9-13.1-8.24a2.51,2.51,0,0,1-.72-.06c-1.87-.32-2.65.32-2.81,2.37-.64,7.87-1.48,15.73-2.23,23.6-.48,5.06-.92,10.13-1.42,15.62ZM210.91,277.22a17.75,17.75,0,0,1-1.75-.9c-5.08-3.27-7.33-6.31-4.59-12.55,1.41-3.2,2.65-6.47,4.06-9.93l-4.38-2.46c-1.12,18.74-6.69,35.15-20.84,48.07,3,2.1,5.83,4.19,8.76,6.11,8.12,5.31,16.53,10.11,26.08,12.35a42.16,42.16,0,0,0,9,.61,2.44,2.44,0,0,0,1.73-1.64,28.39,28.39,0,0,0-.19-4.83h-2.74c-5.7,0-10.27-3.3-11.18-8.88a35,35,0,0,0-3.4-10.42C209,287.82,209.48,282.52,210.91,277.22Z" transform="translate(-41.6 -49.03)"/><path class="cls-2" d="M108.2,650.8c0-6.06-.19-12.14,0-18.2.28-7.25.94-14.5,1.45-21.9,3,0,5.81,0,8.64,0,40.74.66,81-2.85,120.28-14.21,9.93-2.86,19.58-6.48,28.5-11.79,5.34-3.18,10.23-6.84,13.37-12.44a2.8,2.8,0,0,1,2.27-1c13.81,1.58,27.61,3.26,41.41,4.91a8.07,8.07,0,0,0,2.63.1c3.47-.84,5.43,1,7.6,3.41,4.12,4.55,8.68,8.71,13,13.12a6.66,6.66,0,0,1,1.64,3c4.11,17.54,4.8,35.45,5.7,53.33,0,.56.09,1.12.13,1.67Z" transform="translate(-41.6 -49.03)"/><path class="cls-2" d="M229.86,322.47c3.92,16,13.51,28,25.21,38.75-.38.52-.74,1-1.11,1.49-2,2.51-4,5-5.93,7.53-3.25,4.31-4.18,8.87-3,14.39a510.31,510.31,0,0,0,48.42,134.65c.34.64.66,1.28,1,1.93.05.12,0,.29,0,.54-2.44,0-4.89,0-7.34,0a1.69,1.69,0,0,1-1.14-.93c-1.56-3.76-4.54-6.15-7.87-8.13-8.43-5-17.76-7.58-27.24-9.59-26.3-5.58-52.92-6.74-79.69-5.52a244.25,244.25,0,0,0-44.17,5.71c-.21,0-.45,0-.18,0,2.05-7.13,4.68-14.2,6.08-21.5,4.88-25.41,3.95-50.57-4.5-75.23-.59-1.74-1.38-3.41-2.1-5.09-.58-1.34-1.66-2.31-3-1.42a3.22,3.22,0,0,0-.84,3c7.8,18.38,9.68,37.68,8.81,57.35-.66,14.95-3,29.58-10.14,43a5.47,5.47,0,0,1-2.54,2.12c-4.23,1.88-8.54,3.57-12.78,5.41-1.34.59-2.11,1.89-1.14,3.08a3.18,3.18,0,0,0,3,.57c10.06-5.31,21-7.8,32-9.5a319.67,319.67,0,0,1,106.45,1.37c9.22,1.69,18.26,4.06,26.73,8.22,1.15.56,2.24,1.24,3.36,1.85,4.11,2.28,5.74,5.29,5.08,10.37-1.63,12.6-2.69,25.28-3.65,37.95-.36,4.66-2,8.4-5.63,11.14a79.52,79.52,0,0,1-10.74,7.15c-12.32,6.5-25.61,10.32-39.1,13.45a386.1,386.1,0,0,1-77,9.65c-13.18.35-26.38-.29-39.56-.15-6.65.07-13.1-.43-19.27-3-10.9-4.51-18.49-12.64-24.34-22.59-7.65-13-11.53-27.32-13.78-42.11-4-26-2.68-52,1.18-77.89,2.84-19.08,7.59-37.71,12.91-56.25a97.75,97.75,0,0,1,22.49-39.65c25.49-27.76,55.66-48.51,91.41-60.95,3-1.06,5-.52,7.69,1.22a244.56,244.56,0,0,0,22.65,13.41C213.72,321.88,221.41,324.25,229.86,322.47Z" transform="translate(-41.6 -49.03)"/><path class="cls-2" d="M284.84,341.18a134.71,134.71,0,0,1,26,21.2c23.12,23.48,41.61,50.36,57.46,79.11,12.45,22.6,22.95,46,29.45,71.11a12.84,12.84,0,0,0,.35,1.39c.59,1.61.36,4.33,3,3.71,2.83-.67,1.5-3.14,1-4.82-1.6-5.85-3.09-11.76-5.14-17.47-18.68-52-46.49-98.4-85.23-138a134,134,0,0,0-23.39-19,12,12,0,0,1-3.82-3.87q-3.69-6.44-6.84-13.17c-2.37-5.08-3.25-13.3-2.27-19.35,4.61,1.39,9.24,2.54,13.69,4.18,17.84,6.59,33,17.46,46.75,30.34,23.17,21.66,40.89,47.36,55.31,75.43a333.37,333.37,0,0,1,33.53,103,249.88,249.88,0,0,1,2.51,54,28.34,28.34,0,0,1-3.93,12.22c-8,14-19.89,22.7-35.92,25.28-6.14,1-11.9-.9-17.41-3.43-9.5-4.36-17.48-10.87-24.86-18.15-15.84-15.61-28.51-33.64-39.64-52.77-27.12-46.61-45.6-96.51-56.49-149.29a11.93,11.93,0,0,1,2.25-9.86c6.35-9.05,14.28-16.58,22.76-23.55C277.53,346.53,281.24,343.9,284.84,341.18Z" transform="translate(-41.6 -49.03)"/><path class="cls-2" d="M284.56,234c-4.89-11.32-13.3-19.22-24-24.79a29.94,29.94,0,0,0-8.33-2.83c-4.26-.77-7.33,2.43-6.24,6.62a15.48,15.48,0,0,0,3.71,6.52c3.35,3.52,7.17,6.6,10.75,9.9,4.81,4.42,7.9,9.63,7.23,16.46,0,.32,0,.64-.09,1,0,.13-.17.24-.31.44-2.41-1-4.81-2-7.26-3a44.57,44.57,0,0,0-17.62-3c-7.89.3-15.85.2-23.46,2.85-3.44,1.2-6.82,2.51-8.38,6.54-1.07-.56-2-1-2.85-1.49-17.56-10.1-28.57-25.37-34.18-44.49-7.41-25.28-4.42-49.47,8.77-72.36a3.63,3.63,0,0,1,3.57-2,156.24,156.24,0,0,0,63.43-15.06c9.65-4.6,18.61-10.24,25.28-18.64,1.28,4.79,2.2,9.72,3.94,14.35a130.23,130.23,0,0,0,8,17.88,71.93,71.93,0,0,1,8.84,26.39,38.09,38.09,0,0,0,6.73,17.75c2.57,3.57,3.76,3.56,7.45,1.34a25.75,25.75,0,0,1,8.52-3.47c5.42-.94,9.64,2.1,11.34,7.38,3.83,12-6.19,28.64-18.61,30.67a13.28,13.28,0,0,1-5.85-.57c-3.44-1-4.51-.75-5.92,2.63A83.85,83.85,0,0,1,286.56,232c-.45.55-.92,1.1-1.41,1.63A2.93,2.93,0,0,1,284.56,234ZM256.3,187.27c-.14,4.85,1.81,8.17,5,9.13s6.59-.72,8.85-4.26a13.77,13.77,0,0,0,2.11-11c-1.39-5.74-7-7.53-11.43-3.59A13.66,13.66,0,0,0,256.3,187.27Zm-62.88-11.82a26.94,26.94,0,0,0,.59,3.15,6.65,6.65,0,0,0,5.18,5.08c2.73.57,4.88-.69,6.5-2.71a13.27,13.27,0,0,0,2.48-13.24c-1.86-5.44-7.4-6.55-11.31-2.33C194.4,168.05,193.47,171.29,193.42,175.45Zm29.44,37.06c-3.1.63-6.26,1.09-9.28,2-.78.24-1.63,2-1.54,2.94.13,1.44,1.51,1.9,3,1.55.38-.09.76-.25,1.14-.33,8.15-1.73,15.73-.87,22.17,5,1.16,1.05,2.38,1.42,3.6.25a2.32,2.32,0,0,0-.07-3.6,22.57,22.57,0,0,0-3.85-3.2C233.41,214.24,228.31,213.08,222.86,212.51Zm11.65-15.08c.35-.34,1.44-.92,1.61-1.69a3.33,3.33,0,0,0-1-2.65c-2.42-2.17-2.82-3.07-1.73-6.16.45-1.27,1.4-2.42,1.61-3.71.15-1-.21-2.57-.89-3a3.16,3.16,0,0,0-3.05.53c-2.47,3.48-3.93,7.35-2.78,11.71A6.8,6.8,0,0,0,234.51,197.43Zm-29.7-50.1c-4.23.36-7.88,1-10.69,3.61a3.74,3.74,0,0,0-.59,3.31c.52,1.37,2,1.5,3.25.66a13.74,13.74,0,0,1,10.2-2.3,3.25,3.25,0,0,0,2.52-1.81,3.08,3.08,0,0,0-1.3-2.63A10.6,10.6,0,0,0,204.81,147.33Zm66.29,11.2c-.42.39-1.66,1.1-2.06,2.13a3,3,0,0,0,1.38,2.51c3.66.42,5.86,2.45,7.55,5.53a2.89,2.89,0,0,0,2.76.84,3.41,3.41,0,0,0,1.43-2.8C281.58,163,275.83,158.48,271.1,158.53Z" transform="translate(-41.6 -49.03)"/><path class="cls-2" d="M215.52,291.58a17.52,17.52,0,0,1-.52-12.92c4-12.65,18.95-21.58,31.92-18.74,3,.66,5.79,2.51,8.54,4.06,1.35.76,2.54,2.11,3.91.44s0-2.81-1.22-3.78c-7-5.66-14.94-6.63-23.32-4.56a33.37,33.37,0,0,0-21.66,16.19c-.23.4-.5.78-.74,1.16-4.51-1.92-5.6-4.15-3.8-8.39s3.81-8.62,5.94-12.81a6.12,6.12,0,0,1,3-2.81c3.29-1.17,6.67-2.45,10.1-2.76a140.1,140.1,0,0,1,20.57-.67c8,.48,15.33,3.63,21.86,8.41.58.42,1.16,1.07,1.79,1.14.84.09,2.21,0,2.48-.52.38-.69.25-2.45-.19-2.66-3.3-1.61-2.7-4.23-2.41-7.07.79-7.68-2.89-13.56-8.18-18.6-2.94-2.82-6.18-5.33-9.08-8.19a25.07,25.07,0,0,1-4.31-5.63c-.91-1.67,0-2.65,1.89-2.23a25.67,25.67,0,0,1,5.44,1.78A50.63,50.63,0,0,1,276.43,228c5.24,7,6.45,14.91,4.73,23.23-2.19,10.64-5,21.15-7.07,31.79A205.82,205.82,0,0,0,271,305.52c-.71,8.5,1.6,16.46,6,23.8,1.71,2.86,3.34,5.78,4.82,8.35l-24.09,20.24c-12.05-11.36-22.58-24-24.36-41.74a31.47,31.47,0,0,1,7.41-23.84l.78-.92c.92-1.12,1.35-2.5,0-3.27a3.13,3.13,0,0,0-3,.53,78.15,78.15,0,0,0-6.4,9.77c-1.21,2.29-1.55,5-2.47,7.48a3.06,3.06,0,0,1-1.82,1.71c-5.23,1.05-9.07-2.09-9.14-7.67-.09-8,3.81-14.19,9.67-19.26a16.39,16.39,0,0,1,10.16-4.38c1.39-.06,2.66-.5,2.61-2.15s-1.47-2.31-2.9-2a34.28,34.28,0,0,0-8,2.27c-6.24,3.11-10.48,8.26-13.44,14.5C216.37,289.71,216,290.49,215.52,291.58Z" transform="translate(-41.6 -49.03)"/><path class="cls-2" d="M327.08,572.43l-45.49-5.15c.5-5.49.94-10.56,1.42-15.62.75-7.87,1.59-15.73,2.23-23.6.16-2,.94-2.69,2.81-2.37a2.51,2.51,0,0,0,.72.06c6.59-.76,10,2.55,13.1,8.24a245.33,245.33,0,0,0,24.61,36.49c.3.36.55.76.82,1.15C327.22,571.9,327.15,572.16,327.08,572.43Z" transform="translate(-41.6 -49.03)"/><path class="cls-2" d="M210.91,277.22c-1.43,5.3-1.9,10.6.57,15.53a35,35,0,0,1,3.4,10.42c.91,5.58,5.48,8.88,11.18,8.88h2.74a28.39,28.39,0,0,1,.19,4.83,2.44,2.44,0,0,1-1.73,1.64,42.16,42.16,0,0,1-9-.61c-9.55-2.24-18-7-26.08-12.35-2.93-1.92-5.75-4-8.76-6.11,14.15-12.92,19.72-29.33,20.84-48.07l4.38,2.46c-1.41,3.46-2.65,6.73-4.06,9.93-2.74,6.24-.49,9.28,4.59,12.55A17.75,17.75,0,0,0,210.91,277.22Z" transform="translate(-41.6 -49.03)"/><path d="M256.3,187.27a13.66,13.66,0,0,1,4.57-9.69c4.41-3.94,10-2.15,11.43,3.59a13.77,13.77,0,0,1-2.11,11c-2.26,3.54-5.77,5.17-8.85,4.26S256.16,192.12,256.3,187.27Z" transform="translate(-41.6 -49.03)"/><path d="M193.42,175.45c.05-4.16,1-7.4,3.44-10,3.91-4.22,9.45-3.11,11.31,2.33A13.27,13.27,0,0,1,205.69,181c-1.62,2-3.77,3.28-6.5,2.71A6.65,6.65,0,0,1,194,178.6,26.94,26.94,0,0,1,193.42,175.45Z" transform="translate(-41.6 -49.03)"/><path d="M222.86,212.51c5.45.57,10.55,1.73,15.14,4.6a22.57,22.57,0,0,1,3.85,3.2,2.32,2.32,0,0,1,.07,3.6c-1.22,1.17-2.44.8-3.6-.25-6.44-5.85-14-6.71-22.17-5-.38.08-.76.24-1.14.33-1.46.35-2.84-.11-3-1.55-.09-1,.76-2.7,1.54-2.94C216.6,213.6,219.76,213.14,222.86,212.51Z" transform="translate(-41.6 -49.03)"/><path d="M234.51,197.43a6.8,6.8,0,0,1-6.19-5c-1.15-4.36.31-8.23,2.78-11.71a3.16,3.16,0,0,1,3.05-.53c.68.44,1,2,.89,3-.21,1.29-1.16,2.44-1.61,3.71-1.09,3.09-.69,4,1.73,6.16a3.33,3.33,0,0,1,1,2.65C236,196.51,234.86,197.09,234.51,197.43Z" transform="translate(-41.6 -49.03)"/><path d="M204.81,147.33a10.6,10.6,0,0,1,3.39.84,3.08,3.08,0,0,1,1.3,2.63,3.25,3.25,0,0,1-2.52,1.81,13.74,13.74,0,0,0-10.2,2.3c-1.22.84-2.73.71-3.25-.66a3.74,3.74,0,0,1,.59-3.31C196.93,148.33,200.58,147.69,204.81,147.33Z" transform="translate(-41.6 -49.03)"/><path d="M271.1,158.53c4.73-.05,10.48,4.42,11.06,8.21a3.41,3.41,0,0,1-1.43,2.8,2.89,2.89,0,0,1-2.76-.84c-1.69-3.08-3.89-5.11-7.55-5.53a3,3,0,0,1-1.38-2.51C269.44,159.63,270.68,158.92,271.1,158.53Z" transform="translate(-41.6 -49.03)"/></svg>