<svg id="레이어_1" data-name="레이어 1" xmlns="http://www.w3.org/2000/svg" viewBox="0 0 637.4 546.28"><defs><style>.cls-1{fill:none;stroke:#231815;stroke-linecap:round;stroke-linejoin:round;stroke-width:2.89px;}.cls-2{fill:#fff;}</style></defs><path class="cls-1" d="M532.36,481.11,130.57,579.65,32,177.87,433.81,79.32Z" transform="translate(-30.58 -77.87)"/><path class="cls-2" d="M663.29,624.15H129.66c.8-1.15,1.54-2.36,2.42-3.45,9.48-11.74,20.72-21.64,32.55-30.88,30.41-23.75,63.55-43.06,98.17-59.94,2.72-1.32,5.46-2.6,8.13-3.88a3.55,3.55,0,0,1,.41.52,7.71,7.71,0,0,1,.24.82,76.62,76.62,0,0,0,23.56,38C310,578.58,327.47,586,347.05,588.5c25.95,3.33,50.26-1.61,72.26-16,18.94-12.35,31.27-29.46,35.34-52,.64-3.59.88-7.26,1.32-10.94.37.05.65.08.92.14a488,488,0,0,1,95.6,31.1c26,11.63,50.83,25.36,73.33,43C640.44,595.24,653.7,608,663.29,624.15Z" transform="translate(-30.58 -77.87)"/><path d="M663.29,624.15c-9.59-16.14-22.85-28.91-37.47-40.36-22.5-17.62-47.31-31.35-73.33-43a488,488,0,0,0-95.6-31.1c-.27-.06-.55-.09-.92-.14-.44,3.68-.68,7.35-1.32,10.94-4.07,22.56-16.4,39.67-35.34,52-22,14.36-46.31,19.3-72.26,16-19.58-2.51-37.09-9.92-51.91-23.15a76.62,76.62,0,0,1-23.56-38,7.71,7.71,0,0,0-.24-.82,3.55,3.55,0,0,0-.41-.52c-2.67,1.28-5.41,2.56-8.13,3.88-34.62,16.88-67.76,36.19-98.17,59.94-11.83,9.24-23.07,19.14-32.55,30.88-.88,1.09-1.62,2.3-2.42,3.45h-5.55c8.66-12.6,19.71-22.9,31.4-32.56,25.67-21.22,53.85-38.62,83.13-54.32a569.41,569.41,0,0,1,63.15-29.22c1.51-.58,1.83-1.31,1.67-2.81-1-9.45-1.93-18.92-3-28.37a3.73,3.73,0,0,0-1.81-2.26c-13.85-8.1-25-18.91-32.69-33.05-1.5-2.72-2.77-5.57-3.88-7.82-4.47-.19-8.72.14-12.75-.63-15.61-3-27.94-18.7-26.85-33.81a21,21,0,0,1,9.36-16.65c.35-.23.69-.48,1.21-.86-.73-1.18-1.45-2.3-2.12-3.44-5-8.5-10.7-16.68-14.79-25.6-6.44-14-8.7-28.9-5-44.24a54.73,54.73,0,0,1,2.43-6.44,36,36,0,0,1-7-15.52,42.78,42.78,0,0,1-.82-7.81,4.29,4.29,0,0,1,1.67-3.08c1.29-.86,2.63,0,3.47,1.19,1.68,2.38,3.24,4.84,4.89,7.24.86,1.25,1.79,2.46,2.85,3.91,3.68-11.07,9.65-20.44,16.73-29.11a80.42,80.42,0,0,1,8.35-8.47c1.62-1.47,3.74-2.75,6-1.31s1.85,4,1.25,6.18-1.55,4.51-2.53,7.29l2.11-1.75c23.12-19,49.09-32.13,78.71-37.5,17.24-3.12,34.48-3.3,51.52,1.39,27.8,7.66,44.66,25.8,51.09,53.79a124.87,124.87,0,0,1,2.79,29.62c0,3.25,0,6.5,0,9.74,1.78.3,3.56.46,5.25.91,7.95,2.12,13.8,9.42,15,18.61a33.87,33.87,0,0,1-16.56,33.89c-.24.14-.46.3-.43.28,1.42,5.57,3.21,10.92,4.12,16.4,3.83,23.24-2.14,44.07-16.4,62.57-3.36,4.36-7.47,8.15-11.33,12.11a3.32,3.32,0,0,0-1.26,3.08q2,15.52,3.83,31.07c.18,1.53,1,1.55,2.14,1.71a518,518,0,0,1,96.5,23.34c34.38,12,67.17,27.33,97.41,47.79,16.41,11.11,31.8,23.46,44.33,39,3.95,4.89,7.18,10.36,10.74,15.56ZM235.48,385.66a16.36,16.36,0,0,0-8.69,13.11c-1.12,11.51,6.66,23.62,18.35,28.53,5.48,2.31,11.08,3,16.82,1,1.94-.68,2.91.23,3.56,1.93,6.55,17,17.9,30,33.42,39.35,21.84,13.11,45.42,16.48,70.17,11.07,22.15-4.84,40.75-15.87,54.18-34.34,16.75-23,20.38-48,9.28-74.66-.66-1.59-.07-2.58,1.36-3.27a38,38,0,0,0,4-2c9.21-5.85,14.57-18.58,12.45-29.31a19,19,0,0,0-5.64-10.74,13.93,13.93,0,0,0-10.2-3.79c0,.54,0,.95,0,1.36-.28,8.95-.51,17.92-3.16,26.56a16.66,16.66,0,0,1-3.49,6.19c-2.41,2.65-3.2,2.38-4.92-.84q-13.12-24.49-26.21-49c-.35-.65-.73-1.29-.84-1.47-45.67,27.06-94.3,37.39-146.76,29.4,2.56,14.57,5.14,29.31,7.74,44.05,1,5.94,2.15,11.87,3.18,17.82.44,2.52-.64,4.19-2.82,4.32-6.69.39-12.31-1.74-16.34-7.29C239,391.08,237.32,388.39,235.48,385.66ZM305,478.18c.37,3.66.74,7.24,1.1,10.82.57,5.72,1.1,11.45,1.73,17.16.44,4,.46,3.94-3.34,5.52-9.05,3.75-18,7.62-27.1,11.34-1.71.7-2.15,1.45-1.64,3.3,5.72,20.54,18.38,35.62,36.61,46.13,19.13,11,39.88,14.46,61.64,11.88,19.2-2.28,36.58-9.18,51.37-21.84,15.84-13.55,24.94-30.64,26.25-51.66.11-1.81-.41-2.44-2.2-2.74-11.34-1.85-22.66-3.84-34-5.76-2.62-.45-3.11-1.12-2.62-3.68a5.26,5.26,0,0,0,0-1.68c-.63-5.14-1.24-10.28-1.94-15.42-.63-4.66-1.37-9.31-2.06-14C376,489.88,341.55,493.44,305,478.18Z" transform="translate(-30.58 -77.87)"/><path class="cls-2" d="M235.48,385.66c1.84,2.73,3.55,5.42,5.42,8,4,5.55,9.65,7.68,16.34,7.29,2.18-.13,3.26-1.8,2.82-4.32-1-5.95-2.14-11.88-3.18-17.82-2.6-14.74-5.18-29.48-7.74-44.05,52.46,8,101.09-2.34,146.76-29.4.11.18.49.82.84,1.47q13.11,24.49,26.21,49c1.72,3.22,2.51,3.49,4.92.84a16.66,16.66,0,0,0,3.49-6.19c2.65-8.64,2.88-17.61,3.16-26.56,0-.41,0-.82,0-1.36a13.93,13.93,0,0,1,10.2,3.79,19,19,0,0,1,5.64,10.74c2.12,10.73-3.24,23.46-12.45,29.31a38,38,0,0,1-4,2c-1.43.69-2,1.68-1.36,3.27,11.1,26.64,7.47,51.63-9.28,74.66-13.43,18.47-32,29.5-54.18,34.34-24.75,5.41-48.33,2-70.17-11.07-15.52-9.31-26.87-22.34-33.42-39.35-.65-1.7-1.62-2.61-3.56-1.93-5.74,2-11.34,1.29-16.82-1-11.69-4.91-19.47-17-18.35-28.53A16.36,16.36,0,0,1,235.48,385.66Zm84.31,12.77c-.24-4.43-1.7-8.93-5.79-12.16a7.54,7.54,0,0,0-11.36,1.66c-4.37,6.27-1.85,17.51,4.78,21.29a7.42,7.42,0,0,0,9.89-2C319.16,404.81,319.76,402,319.79,398.43Zm77-16.14-.59-.19c0-4.67-1.38-9.17-3.73-11.93-3.34-3.92-7.95-3.74-10.92.42-4.07,5.69-3.28,16.59,1.55,21.66,3.48,3.65,8.22,3.36,10.65-1.07C395.22,388.47,395.8,385.27,396.78,382.29Zm-42.31,60.85c8.15-.19,13.53-2.22,17.25-7.61.81-1.19.92-2.48-.37-3.39s-2.24-.16-3,.94a13.36,13.36,0,0,1-9.09,5.38,19.15,19.15,0,0,1-11.4-1.7c-1.32-.6-2.66-1.1-3.47.57s.21,2.81,1.69,3.29C349.38,441.72,352.78,442.64,354.47,443.14Zm-.93-40.44c-2.22-.63-3.85-1-4.3,1.24-.32,1.53,1.2,2.84,3.37,3,2.39.2,4.25-1.55,4.65-4.53.6-4.53-.41-8.89-1.85-13.13-.24-.68-1.57-1-2.39-1.49-.45.86-1.3,1.74-1.26,2.57.07,1.53.79,3,1,4.54C353.12,397.38,353.27,399.87,353.54,402.7Zm-65.93-27.47c.05,1.26,0,2.83,1.93,3.07,1.37.18,2-.71,2.21-2,.73-5.4,1.38-6,6.66-7.37a2.68,2.68,0,0,0,1.64-1.82,2.56,2.56,0,0,0-1.24-2.1,5.53,5.53,0,0,0-3.08-.14C291.25,365.79,287.72,370.3,287.61,375.23Zm95.23-28.39a6.14,6.14,0,0,0-2.6.71,3.24,3.24,0,0,0-1.09,2.59c.08.54,1.48,1.36,2.2,1.27,3.61-.47,6.36.6,8.35,3.75a2.35,2.35,0,0,0,2.1.78,2.5,2.5,0,0,0,1.28-1.9,4.35,4.35,0,0,0-.9-2.51C390,348.48,386.94,347.11,382.84,346.84Z" transform="translate(-30.58 -77.87)"/><path class="cls-2" d="M305,478.18c36.59,15.26,71.05,11.7,103.8-10.61.69,4.67,1.43,9.32,2.06,14,.7,5.14,1.31,10.28,1.94,15.42a5.26,5.26,0,0,1,0,1.68c-.49,2.56,0,3.23,2.62,3.68,11.33,1.92,22.65,3.91,34,5.76,1.79.3,2.31.93,2.2,2.74-1.31,21-10.41,38.11-26.25,51.66-14.79,12.66-32.17,19.56-51.37,21.84-21.76,2.58-42.51-.87-61.64-11.88-18.23-10.51-30.89-25.59-36.61-46.13-.51-1.85-.07-2.6,1.64-3.3,9.06-3.72,18-7.59,27.1-11.34,3.8-1.58,3.78-1.49,3.34-5.52-.63-5.71-1.16-11.44-1.73-17.16C305.7,485.42,305.33,481.84,305,478.18Z" transform="translate(-30.58 -77.87)"/><path d="M319.79,398.43c0,3.57-.63,6.38-2.48,8.8a7.42,7.42,0,0,1-9.89,2c-6.63-3.78-9.15-15-4.78-21.29A7.54,7.54,0,0,1,314,386.27C318.09,389.5,319.55,394,319.79,398.43Z" transform="translate(-30.58 -77.87)"/><path d="M396.78,382.29c-1,3-1.56,6.18-3,8.89-2.43,4.43-7.17,4.72-10.65,1.07-4.83-5.07-5.62-16-1.55-21.66,3-4.16,7.58-4.34,10.92-.42,2.35,2.76,3.76,7.26,3.73,11.93Z" transform="translate(-30.58 -77.87)"/><path d="M354.47,443.14c-1.69-.5-5.09-1.42-8.42-2.52-1.48-.48-2.5-1.61-1.69-3.29s2.15-1.17,3.47-.57a19.15,19.15,0,0,0,11.4,1.7,13.36,13.36,0,0,0,9.09-5.38c.79-1.1,1.75-1.84,3-.94s1.18,2.2.37,3.39C368,440.92,362.62,443,354.47,443.14Z" transform="translate(-30.58 -77.87)"/><path d="M353.54,402.7c-.27-2.83-.42-5.32-.77-7.78-.22-1.53-.94-3-1-4.54,0-.83.81-1.71,1.26-2.57.82.49,2.15.81,2.39,1.49,1.44,4.24,2.45,8.6,1.85,13.13-.4,3-2.26,4.73-4.65,4.53-2.17-.18-3.69-1.49-3.37-3C349.69,401.74,351.32,402.07,353.54,402.7Z" transform="translate(-30.58 -77.87)"/><path d="M287.61,375.23c.11-4.93,3.64-9.44,8.12-10.38a5.53,5.53,0,0,1,3.08.14,2.56,2.56,0,0,1,1.24,2.1,2.68,2.68,0,0,1-1.64,1.82c-5.28,1.33-5.93,2-6.66,7.37-.17,1.31-.84,2.2-2.21,2C287.63,378.06,287.66,376.49,287.61,375.23Z" transform="translate(-30.58 -77.87)"/><path d="M382.84,346.84c4.1.27,7.19,1.64,9.34,4.69a4.35,4.35,0,0,1,.9,2.51,2.5,2.5,0,0,1-1.28,1.9,2.35,2.35,0,0,1-2.1-.78c-2-3.15-4.74-4.22-8.35-3.75-.72.09-2.12-.73-2.2-1.27a3.24,3.24,0,0,1,1.09-2.59A6.14,6.14,0,0,1,382.84,346.84Z" transform="translate(-30.58 -77.87)"/></svg>