<svg id="레이어_1" data-name="레이어 1" xmlns="http://www.w3.org/2000/svg" viewBox="0 0 618.88 629.31"><defs><style>.cls-1,.cls-2{fill:#fff;}.cls-1{stroke:#231815;stroke-linecap:round;stroke-linejoin:round;stroke-width:3px;}</style></defs><polyline class="cls-1" points="476.37 421.45 467.25 444.64 395.29 627.7 168.93 627.81 250.93 421.85 250.93 421.85 1.72 422.27 1.5 1.74 476.15 1.5 476.36 401.48 476.37 421.45"/><path d="M254.52,661.07C248.42,634.71,247,608,247.93,581c.6-17.73,1.38-35.44,4.31-53a6.3,6.3,0,0,0-1.32-5.44c-4.23-5.64-6.58-11.9-5.19-19.1a4.35,4.35,0,0,1,1.26-2.37c4.5-3.7,7.77-8.4,10.79-13.28,8.78-14.22,15.32-29.5,21-45.16,6.46-17.77,11.7-35.88,14.5-54.63.37-2.44.6-4.9.95-7.85a79.22,79.22,0,0,1-8,0c-11.84-1.24-22.89-5.28-33.69-10-30.41-13.26-58-31.16-84.21-51.38a4.55,4.55,0,0,1-1.63-5.77c1-2.12.6-4.13.6-6.28,0-6.26-.05-12.55.5-18.78A305.58,305.58,0,0,1,189,199.14c2.79-6.84,6.3-13.4,9.61-20.36-4.17-2.83-7.45-7.24-9.86-12.32A30.53,30.53,0,0,1,185.56,153a5.08,5.08,0,0,0-1.07-2.88c-4.55-5.91-8.68-12.08-11.45-19a21.69,21.69,0,0,1-1.55-6.26c-.26-3.22,2.24-5,5-3.36,3.05,1.86,5.67,4.45,8.41,6.8a19,19,0,0,0,2.85,2.5c-.24-.76-.53-1.51-.72-2.29-1.09-4.35-2.21-8.68-3.17-13a9.39,9.39,0,0,1,.13-3.69c.47-2.44,2.45-3.55,4.69-2.49a12.36,12.36,0,0,1,4.1,3c2.94,3.38,5.65,7,8.43,10.47a9.73,9.73,0,0,0,1.73,1.94c-.68-3.65-1.64-7.27-2-10.95a41.3,41.3,0,0,1,.16-10.6c.85-4.92,4.69-6,8.28-2.54a26.6,26.6,0,0,1,5.53,7.37c2.79,5.93,5.07,12.1,7.53,18.18a8.69,8.69,0,0,0,1.08,2.34c.42-2.24.67-4.53,1.28-6.71,1.26-4.53,2.6-9.06,4.16-13.49a17,17,0,0,1,3-5c2.78-3.36,6.11-2.76,7.51,1.4a19.09,19.09,0,0,1,1.19,6.81c-.35,6.54-1.07,13.07-1.69,19.61-.09,1-.36,1.92-.62,3.22,2.11-1.85,3.86-3.63,5.85-5.06a42.86,42.86,0,0,1,7.66-4.73c4.71-2,7.7.44,6.81,5.52a22.2,22.2,0,0,1-1.86,5.71,69.93,69.93,0,0,1-12.42,18.11,6.74,6.74,0,0,0-1.3,3.52,37.66,37.66,0,0,1-9.7,20.94,36.78,36.78,0,0,1-7.08,5.54,3,3,0,0,0-1.61,2.69q-.85,19.73-1.79,39.44c-.85,18.18-1.66,36.35-2.6,54.52a4.91,4.91,0,0,0,2.45,4.7c22.68,16.31,48.49,24.73,75.55,29.91,9.52,1.83,19.14,2.8,28.87,1.75a4.86,4.86,0,0,0,3.37-1.88,19.48,19.48,0,0,1,6.23-4.61c7.55-3.4,15.64-4.15,23.84-4,1.16,0,2.32.25,3.47.17.72-.05,1.77-.32,2-.81a2.47,2.47,0,0,0-.52-2.11A43.28,43.28,0,0,1,356,286.5c-1.41-5.12-2.1-10.44-3.06-15.68a27,27,0,0,1-.23-3c-11-1.59-14.4-14.48-12.09-24.07,1.52-6.33,4.61-11.48,10.82-13.34.3-5.72-.1-11.32,1-16.6,1.4-6.52,4-12.8,6.24-19.12.49-1.38.45-2.13-.57-3.18-4.2-4.31-7.75-9.08-9.37-15-2.18-7.92.75-14.68,8.05-18.53,5.85-3.1,12.22-3.7,18.71-3.64a3.55,3.55,0,0,1,.46,0,17.8,17.8,0,0,0,10.65-1.72c8.2-3.78,16.78-2.91,25.22-.51,12.51,3.57,23,10.51,32.19,19.57a4.93,4.93,0,0,0,2.9,1.46c13.6.57,23.49,9.58,25.45,23.19,1.31,9.13-.58,17.66-4.44,25.91a15,15,0,0,0-1.39,5.69c-.48,13.56-3.88,26.11-12.39,37.06,4.52,4.84,4,10.3,1.49,15.73-3.1,6.7-7.87,11.69-15.54,13a8.49,8.49,0,0,1-4.53-.46c-1.74-.78-2.55-.2-3.65,1-7.28,8-15.7,14.45-25.95,18.26-1.91.72-3.88,1.27-5.83,1.89l0,.65c.81.26,1.6.58,2.42.78,5.89,1.47,11.62,3.46,16.55,7.05a31.55,31.55,0,0,1,6.81,6.54c3.83,5.18,3,10.83-1.75,15.18l-1.37,1.28c12.7,3,21.13,11.79,29.26,20.89,3.49,3.92,6.6,8.18,9.87,12.29,14.17-15.52,24.62-22.42,48.71-32.08l-.76-3.42c-2.12,0-4.21-.16-6.27,0-9.38.83-17.68-2-25.36-7.19-4.29-2.9-8.51-5.93-13-8.48a54.62,54.62,0,0,0-9.82-4,7.73,7.73,0,0,0-4.07.1c-1.79.44-2.73-.12-3-1.83-1.41-8.9-.08-17.27,4.91-24.89a57.93,57.93,0,0,1,3.55-4.59c1.63-2.06,3.28-4.12,4.95-6.15A39.11,39.11,0,0,0,470.67,262a156,156,0,0,1,2-21.25c3.43-20.44,14.66-35.59,32.35-46.12,7.31-4.34,14.88-8,23.48-8.85,10.26-1,19.6,2.22,28.51,6.78,5.42,2.78,11,5.38,16.31,8.22C591,210.18,602.6,224.3,603.88,245c.51,8.31-.08,16.69-.06,25a45.49,45.49,0,0,0,5.62,21.79c4.68,8.66,9.07,17.47,10.85,27.27.61,3.34.29,6.9,1.26,10.1,1.13,3.77-1.12,5.12-3.52,6.44-5,2.73-10.11,5.25-15,7.77,2.33.35,5.17.76,8,1.21,14.55,2.33,28.9,5.48,42.54,11.2a89.4,89.4,0,0,1,9.69,5,15.5,15.5,0,0,1,8.12,12,122.53,122.53,0,0,1,.65,27.33,304,304,0,0,1-16.2,78.18,177,177,0,0,1-9.05,20.31c-2.61,5.19-3,5.13-8.42,7.3.37,1,.75,2.1,1.12,3.16,5.13,14.75,10.62,29.39,15.29,44.28,6.57,20.92,7.91,42.5,7,64.32-.51,12.14-.54,24.3-.82,36.45-.05,2.32-.25,4.64-.39,7h-2.79a10.92,10.92,0,0,1-.08-1.15c.33-14.39.41-28.8,1.08-43.18,1.14-24.47-1.68-48.37-9.53-71.59-4-11.79-8.37-23.45-12.5-35.19-1.41-4-2.71-4.63-6.59-2.57a8.16,8.16,0,0,0-2.63,2.22c-1.35,1.78-2.43,3.76-3.75,5.58a110.57,110.57,0,0,1-7.39,9.76c-2.48,2.73-5.94,1.82-7.48-1.55-.31-.67-.57-1.36-.86-2.06-2.95,1.8-5.69,4.54-9.21,2.78-3.33-1.66-2.25-5.2-2.21-8.24-3.55-.81-4.38-3.66-4.79-6.65-1-7.33,1.7-13.9,4.77-20.24,2.68-5.52,6.35-10.35,13-13.1-6.77-4.76-13.19-9.26-19.55-13.74-12.45,7.47-24.64,14.77-36.44,21.83,3.93,11,7.94,22.17,11.93,33.38a8.51,8.51,0,0,1,.6,2.92A1.88,1.88,0,0,1,565,521.7c-.45.1-1.12-.5-1.58-.93-.24-.22-.21-.72-.35-1.08q-6-16.56-12.06-33.12c-.52-1.44-1.23-1.66-2.77-1.41-4.56.73-9.17,1.27-13.78,1.64-3.05.24-6.13.05-9.22.05,1.06,8.5,2.18,17,3.15,25.51,1.59,13.95,2.54,28,1.37,41.95-1.45,17.19-3.54,34.33-5.6,51.46-2.21,18.44-3.1,36.86-.16,55.3h-3.25c-.08-1.15-.19-2.3-.24-3.46-.46-9.34-1.84-18.75-1.18-28,1.37-19,3.74-38,5.87-57,1.79-15.89,2.78-31.81,1.19-47.73-1.36-13.69-3.49-27.3-5-41a57.07,57.07,0,0,0-10.88-27.74c-3.7-5.14-7-10.55-10.56-15.83a54.72,54.72,0,0,1-8.38-20.48c-.29-1.48-.59-3-.94-4.72l-7.71,2.64c.38,1,.64,1.74.91,2.45,3.63,9.49,6.82,19.13,7.69,29.31.33,3.82,1.22,6.3,5.08,8,4.22,1.9,5,5.82,3,10-1.5,3.18-4.15,4.6-7.46,5.24a5.12,5.12,0,0,0-2.55,1.55c-2.81,3.09-5.3,6.5-8.29,9.39a201.82,201.82,0,0,1-65.15,42.4c-1.8.73-2.32,1.49-2.22,3.48.22,4.39,0,8.8-.07,13.2a26.41,26.41,0,0,1-.57,3.5,11.73,11.73,0,0,0,1.16-.18c2.64-.77,5.12-.55,7.09,1.5a6.41,6.41,0,0,1,1.16,7.56,30.75,30.75,0,0,1-4.61,6.78c-.87,1-1.38,1.63-1.08,3.1a116,116,0,0,1,2,12.13c1.28,12.78,2.72,25.56,3.47,38.37.89,15.14,1.14,30.31,1.66,45.46h-2.79a5.43,5.43,0,0,1-.09-.69c.34-27.29-2.56-54.39-5.07-81.51-.43-4.67-1.26-9.3-1.92-14.1-1.8.45-3.29.8-4.77,1.19a13.22,13.22,0,0,1-11.25-2.15c-2.35-1.63-4.66-3.33-6.84-5.18a4.28,4.28,0,0,0-3.75-1.08,204,204,0,0,1-60.82-.42c-4.1-.62-8.18-1.37-12.37-2.07-.16.7-.33,1.21-.39,1.73a102.43,102.43,0,0,0,1.62,31.63c1.78,8.63,6.22,16.11,10.19,23.79a8.87,8.87,0,0,1,1.09,2.29,5.26,5.26,0,0,1-.5,2c-.7-.27-1.78-.34-2.05-.84-4.34-8.1-9.22-16-11.3-25.09a93.81,93.81,0,0,1-1.58-36.24c-20.52-5.14-40.24-11.85-56.44-26.61-.24,2.14-.44,3.9-.65,5.66-3.95,34.23-5.5,68.5-1.2,102.81,1.05,8.34,3,16.57,4.56,24.84Zm234.7-207c-.61-4.1-1-7.8-1.73-11.4-4.35-20.24-13.11-38.59-24.21-55.91-6.66-10.4-14.23-20.09-23.56-28.28-4-3.49-8.12-6.92-13.28-8.29-3.24-.87-7.21-1.65-10.13-.55-8,3-15.74,6.88-22.33,12.6-4.15,3.6-8.27,7.24-12.53,10.72-5.19,4.25-10.8,7.82-17.58,8.94a6.48,6.48,0,0,1-3.39-.65c-3.4-1.49-5.12-4.47-6.06-7.82-1.55-5.5-2.94-11.06-4.19-16.64-2.05-9.23-3.86-18.58-9-26.67-2.2-3.45-5.27-6.41-8.24-9.29-.93-.9-2.81-1.13-4.26-1.14-5.95-.05-11.95.63-17.84.07-24.68-2.32-48.07-9.42-70.3-20.28-6.29-3.07-12.23-6.88-18.35-10.37-4.71,8.55-12.69,14-20.92,19.14s-17,9.35-27.08,11.12a22.59,22.59,0,0,0,1.78,1.49c12.54,8.53,24.85,17.42,37.68,25.47,17.4,10.92,35.61,20.35,55.21,26.8,7.51,2.48,15.14,4.43,23.17,4.19,1.95-.05,2.59-.74,2.4-2.6-.26-2.62-.48-5.25-.52-7.87,0-.72.69-1.45,1.07-2.18.6.58,1.51,1.06,1.73,1.75a12.78,12.78,0,0,1,.56,4.12c-.15,5.18,0,10.42-.74,15.52-4.94,33.45-15.83,65-31.37,94.95-3.75,7.22-7.77,14.41-13.79,20-3.16,2.92-3.47,6.05-2.68,9.57a23.48,23.48,0,0,0,2.92,7.5,48.18,48.18,0,0,0,6.82,8.45c6.55,6.42,14.41,11,22.75,14.58,30.57,13.26,62.61,17.17,95.62,14.69,3.25-.24,6.5-.71,10.45-1.16-5.59-4.32-5-9.36-3.29-14.54,1.29-3.8,2.76-7.55,4.19-11.31,1.71-4.47,3.93-8.82,5.06-13.43a30.36,30.36,0,0,1,8.09-14.87c5.46-5.37,11.16-10.49,16.71-15.78a3.94,3.94,0,0,0,1.36-2.4c-.23-16.55,3.56-32.37,8.4-48a5,5,0,0,0-.35-3.4c-2.45-4.65-5.09-9.2-7.65-13.8-.55-1-1.52-2.18-.08-3s2.11.6,2.74,1.64c.12.2.22.41.34.61q10.15,18.12,20.33,36.23c1.54,2.75,3.09,5.5,4.7,8.36C460.66,453.33,474.25,451.15,489.22,454.12ZM369.83,199.33a3.15,3.15,0,0,0-.35.63q-4.14,16.77-8.27,33.54c-.56,2.27-1.28,2.54-3.2,1.32-3.68-2.34-7.07-1.9-10.21,1.31-5.73,5.89-6.43,18.33-1.37,24.82a7.9,7.9,0,0,0,5.79,3.45c3.47.23,3.43.23,3.59,3.8A59.2,59.2,0,0,0,361.93,293c8.47,16.53,24.69,23,42.24,17,11.08-3.84,19.84-10.93,27.33-19.72,1.29-1.51,2.11-1.59,3.83-.55a8.29,8.29,0,0,0,5,.95c7.55-1.08,15-11.13,14-18.7-.48-3.9-2.93-5.94-6.8-5.64-2.58.2-3.34-.53-2.74-3,1.76-7.21,3.56-14.41,5.49-21.57,1.18-4.37,2.65-8.66,4-12.92-2.3-1-4.56-1.79-6.69-2.87A78.6,78.6,0,0,1,419,201.11c-1-1.36-1.85-1.51-3.42-1.28-6.95,1-13.91,2.15-20.9,2.62C386.28,203,378,201.54,369.83,199.33ZM560.5,345c.65,4.48,1.45,8.43,1.76,12.43.78,9.94-.61,19.51-6.25,28-6.7,10.13-18,13.68-29.06,8.79a44,44,0,0,1-11.38-7.42c-8.26-7.35-13.16-16.88-16.19-27.42-.37-1.3-.72-2.61-1.14-4.14-2.25,1.24-4.29,2.34-6.31,3.47-.8.44-1.56.95-2.34,1.43,3.63,6,5.11,9.83,5.68,15.42,1.08,10.78-.16,21.48-1.22,32.19-.23,2.3-.77,4.68-.42,6.9,1.38,8.87,4.11,17.27,9.31,24.76,4.45,6.42,8.68,13,13,19.53a47.7,47.7,0,0,1,7.52,18.58c.33,2,.69,4.07,1,6.22,4.85,0,9.49.13,14.11,0a37.75,37.75,0,0,0,17.93-5c10.42-6.09,20.72-12.4,31-18.68a2.11,2.11,0,0,0,.76-1.78,50.91,50.91,0,0,1-.34-18.7c.92-6.28,2.21-12.52,2.83-18.82,1.43-14.71-2.26-28.17-10.32-40.58A81.07,81.07,0,0,1,573.7,367c-2.75-6.71-2.9-13.57.4-20.26a14.15,14.15,0,0,0,.61-1.75ZM236.08,104.2l-1-.12c-.93,1.37-2.19,2.63-2.72,4.14-1.73,4.87-3.33,9.79-4.68,14.77-.93,3.43-1.27,7-2,10.47-.19.82-1.16,2.11-1.69,2.07a3.88,3.88,0,0,1-2.38-1.68,8.74,8.74,0,0,1-.91-2.85,80.4,80.4,0,0,0-8.37-21.79,36.91,36.91,0,0,0-4.86-6.46c-1.73-1.85-3.09-1.41-3.44,1.06a22.33,22.33,0,0,0-.23,7.37c1.55,7.47,3.51,14.86,5.24,22.3a10.55,10.55,0,0,1,0,2.57c-.89-.27-2.09-.27-2.61-.87-1.66-1.91-3.05-4.06-4.57-6.1-3.69-5-7.35-9.93-11.15-14.8a15.87,15.87,0,0,0-3.28-2.5l-.63.44a37.87,37.87,0,0,0,.29,4.53c1.42,8.23,4.61,15.87,7.86,23.48a8.27,8.27,0,0,1,.77,1.93,2.36,2.36,0,0,1-.36,1.83,2,2,0,0,1-1.85,0,7.29,7.29,0,0,1-2-2.11c-3.72-5.74-7.73-11.23-13-15.7a31.92,31.92,0,0,0-3.5-2.29l-.66.48a53.22,53.22,0,0,0,1.55,5.46c2.82,7,7,13.23,11.66,19.17a6.54,6.54,0,0,1,1.26,3.71c.15,10.15,4.13,18.25,12.62,23.93,1.58,1.06,1.95,1.81.9,3.48a109.25,109.25,0,0,0-6.45,11,247.49,247.49,0,0,0-15.36,43c-6.14,22.95-10.08,46.25-10.37,70.07,0,.8.07,1.6.11,2.54,13.62-12.43,28.47-21.88,47-24.85a9.37,9.37,0,0,0,.14-1.09q1.42-31.2,2.83-62.39.77-16.59,1.48-33.17a3.56,3.56,0,0,1,2.47-3.68,17.06,17.06,0,0,0,5-3.24c6.64-6.16,10.13-13.88,11.1-22.86a6.82,6.82,0,0,1,1.78-4,54.74,54.74,0,0,0,11.4-15.7,31.59,31.59,0,0,0,2.28-6.3c.6-2.35-.38-3.22-2.56-2.22a25.75,25.75,0,0,0-6.33,3.79c-3.66,3.2-7,6.77-10.54,10.11a6.67,6.67,0,0,1-2.34.89c-.14-.82-.34-1.64-.4-2.46,0-.36.24-.73.35-1.1,2.92-9.71,4.69-19.56,3.47-29.74A29.61,29.61,0,0,0,236.08,104.2ZM596.65,512.92l.66-.18c.27-.78.58-1.54.8-2.33a63.56,63.56,0,0,1,8-17.42,12.58,12.58,0,0,1,2.37-2.81c.42-.35,1.35-.08,2.05-.1-.05.63.13,1.41-.17,1.84a63.29,63.29,0,0,0-10.35,23.13,19,19,0,0,0-.37,5.05,2.12,2.12,0,0,0,1.52,1.42c2.75-.09,6.7-3.82,7.31-6.62a50.49,50.49,0,0,1,9.4-20.5c.48-.61,1.59-.74,2.4-1.1-.06.87.17,1.94-.24,2.59-3.49,5.43-6.5,11.09-8,17.4a26.46,26.46,0,0,0-.78,6.62c0,1.15,1,2.29,1.48,3.44,1-.62,2.27-1,2.91-1.89a119.26,119.26,0,0,0,6.75-10c2.91-4.94,6.76-8.21,12.72-8.37a9.49,9.49,0,0,0,8.89-5.65c2.8-5.85,5.87-11.62,8.09-17.7,9.17-25.06,14.42-51,16.75-77.56a120.57,120.57,0,0,0-.32-28c-.73-5-2.89-8.91-7.5-11.24-2.9-1.47-5.73-3.08-8.72-4.34-10.66-4.52-21.84-7.27-33.18-9.46a245.39,245.39,0,0,0-38.7-4.4c-.84,0-2.17.33-2.49.92-2.72,5.11-4,10.45-2.66,16.32,1.77,7.47,6,13.71,9.89,20.09a2.38,2.38,0,0,0,1.94.62,172.92,172.92,0,0,1,52.64,2.77c3.25.65,3.25.69,2.48,3.91a261.51,261.51,0,0,0-7.65,64.13c.06,4.33-.07,8.67-.43,13-.58,6.87-2.85,9.47-9.61,10.86A84.53,84.53,0,0,1,612.37,479a10.84,10.84,0,0,0-8,3.93c-5.51,6.26-8.34,13.68-9.61,21.76a17.44,17.44,0,0,0,.45,5.73A8.73,8.73,0,0,0,596.65,512.92ZM544.23,229.53l-.53-.12c-1.37,3.89-2.79,7.75-4.11,11.65-2.25,6.66-3.07,7.18-10.14,6-.3-.05-.6-.13-.91-.19-6-1.23-11.28-4.13-16.21-7.73a52.67,52.67,0,0,0-20.65-8.76c-1.07,6.62-2.18,12.92-3.09,19.26-.29,2.07-1.3,3.06-3.2,2.66-4.48-1-8.32,1.51-10.08,6.83-2.61,7.85.66,18.71,7.26,23.72a4.48,4.48,0,0,1,2,4.5,32.07,32.07,0,0,0,8.3,25.27c16.69,18.68,48.55,16.82,64.27-3.25.23-.3.58-.62.63-1,.24-2,1.44-2.06,3.15-1.93,10.09.8,18.38-2.83,24.66-10.71,2.7-3.39,4.22-7.39,2.25-11.7s-5.83-5.48-10.09-5.92l-.47,0c-2.65-.3-3.26-1.41-2.46-3.9,1.33-4.15,2.52-8.35,3.78-12.55-11.35-1.58-21.51-5.93-31.1-11.82a5.14,5.14,0,0,1-2.74-4.88C544.75,239.81,544.43,234.67,544.23,229.53Zm42.94,156c.25.63.37,1,.54,1.32a59.6,59.6,0,0,1,6.28,31A182.48,182.48,0,0,1,591.53,436c-1.18,7.31-1.87,14.6-.15,21.89a5.7,5.7,0,0,0,2.24,3.5,106.53,106.53,0,0,1,19,13.67,2.89,2.89,0,0,0,2,.77q5.61-.82,11.17-1.95a6,6,0,0,0,5.11-5.81,105.36,105.36,0,0,0,.73-12c-.5-18.81,1.55-37.38,5.12-55.81.76-3.9,1.76-7.76,2.71-11.88A192.52,192.52,0,0,0,587.17,385.52ZM487.11,473c-3.82-.58-7.25-1.08-10.67-1.63-9.18-1.48-18.35-2.94-27.69-1.61a26.89,26.89,0,0,1-3.45-.19,4.94,4.94,0,0,0-2.52.38A232.38,232.38,0,0,0,405,501c-3.57,3.55-6.59,7.5-8.18,12.49-1.92,6-4.32,11.88-6.4,17.85Q388,538.17,386,545.17a5.58,5.58,0,0,0,1.83,5.9c3.42,3.13,6.91,6.19,10.4,9.24,4.83,4.23,10.09,3.59,15.39,1.13a11.28,11.28,0,0,0,6.59-7.92c.61-2.6-.65-4.55-3-4.75s-8.8,3.66-10.31,6.66c2.44-.46,4.39-.95,6.37-1.14.73-.07,1.53.54,2.3.83-.44.64-.78,1.72-1.32,1.83a26.32,26.32,0,0,1-7.22.93c-2.83-.21-4-3.12-2.24-5.35.91-1.2,2.33-2,3.43-3.07a6,6,0,0,0,1.71-2.23c1.91-6.34,1.78-12.88,1-19.32-.28-2.45.46-3.13,2.31-3.81a159.78,159.78,0,0,0,26.71-12.88c16.56-9.88,32.08-21.05,44.93-35.62ZM509.16,326.5c.19,1,.31,1.81.49,2.59q2,8.36,3.91,16.71c.76,3.22.42,3.63-2.73,4.55s-6.4,2.16-9.72,3.3c2.62,12.14,7.52,22.67,16.48,30.9a38.78,38.78,0,0,0,10,6.63c10.45,4.75,20.65,1.34,26.62-8.48a36,36,0,0,0,4.87-14.87,55.7,55.7,0,0,0-2-22.55c-3.38.63-6.64,1.17-9.87,1.86s-3.45.61-4.37-2.62c-.73-2.52-1.42-5.06-2.14-7.59-1-3.46-2-6.93-3-10.57A48.76,48.76,0,0,1,509.16,326.5Zm-109-8.11a50.73,50.73,0,0,1-12.46,32.74c-6.94,8.19-14.5,15.85-21.88,23.66-2,2.08-3.35,1.61-3.85-1.19-.57-3.12-1-6.27-1.33-9.42-1.37-12.27-1.81-24.55.22-36.78,1-5.85,2.33-11.64,3.62-18-2.71,0-5.47-.1-8.21,0-6.68.28-13.27,1.18-19.37,4.15a38,38,0,0,0-4.86,3.44c8,4.13,11.91,10.74,15,18a62.44,62.44,0,0,1,3.19,9.19c2.1,8.31,3.91,16.71,6,25a29.8,29.8,0,0,0,2.71,6.86,4.87,4.87,0,0,0,6.47,2.48,40.64,40.64,0,0,0,8.58-4,96.59,96.59,0,0,0,11.13-8.71c8.08-7.36,16.85-13.56,27-17.81a49.66,49.66,0,0,0,8.56-4.53c5.56-3.74,6.21-8.77,1.8-13.77C416.67,323.17,408.79,320.53,400.2,318.39Zm-35.49,53.68c9.16-9.75,19-18.5,25.57-29.94A62.73,62.73,0,0,0,395.46,330,35.48,35.48,0,0,0,397,315c-14.45,0-14.45,0-28.12-7.83C361.39,328.33,361.47,349.9,364.71,372.07Zm122.37-10.48c-7.3,4.76-14.22,9.65-20,16-.72.8-1.34,1.7-2,2.57-1,1.33-.88,2.5,0,4,4.77,8.31,9.41,16.69,14,25.08,1,1.89,1.8,3.92,2.68,5.86,2.6-.94,5.09-1.78,7.5-2.78a2.4,2.4,0,0,0,1.24-1.62c1.4-11.29,2.71-22.6,1.8-34A30.56,30.56,0,0,0,487.08,361.59ZM173,316.71c3.2-.85,6.4-1.46,9.42-2.56a90,90,0,0,0,32-19.63,25.5,25.5,0,0,0,4.34-5.66c1.35-2.32.56-3.48-2.16-3.48a19.06,19.06,0,0,0-4.81.62,86.4,86.4,0,0,0-38.63,22.44,14.59,14.59,0,0,0-2.66,3.5c-.54,1-1.16,2.54-.76,3.36S171.75,316.23,173,316.71Zm273.21,150h3.34c5.46,0,11-.34,16.39.14,7.14.63,14.22,2,21.35,2.88a19.74,19.74,0,0,0,5.53-.21,6,6,0,0,0,4.72-5.12c.39-2.54-1.26-3.86-3.15-4.87a23.74,23.74,0,0,0-4.69-2,49.45,49.45,0,0,0-32.46,2C453.23,461.23,449.25,463,446.19,466.73Zm-.94-4.23q-4.67-8.33-9.71-17.28c-2.23,1.59-4.15,3-6.13,4.35a9.46,9.46,0,0,0-4.36,7.25c-.24,2.23-.94,4.4-1.2,6.62-.69,5.72-1.25,11.45-1.87,17.17l.63.23c2.41-1.87,4.89-3.66,7.22-5.62C434.9,471,441.48,468.58,445.25,462.5Zm-14.93-26.61-3.21,11.47,7-4.77C432.89,440.48,431.8,438.54,430.32,435.89Z" transform="translate(-53.62 -35)"/><path class="cls-2" d="M524,661.07c-2.94-18.44-2.05-36.86.16-55.3,2.06-17.13,4.15-34.27,5.6-51.46,1.17-14,.22-28-1.37-41.95-1-8.52-2.09-17-3.15-25.51,3.09,0,6.17.19,9.22-.05,4.61-.37,9.22-.91,13.78-1.64,1.54-.25,2.25,0,2.77,1.41q6,16.57,12.06,33.12c.14.36.11.86.35,1.08.46.43,1.13,1,1.58.93a1.88,1.88,0,0,0,1.15-1.42,8.51,8.51,0,0,0-.6-2.92c-4-11.21-8-22.4-11.93-33.38,11.8-7.06,24-14.36,36.44-21.83,6.36,4.48,12.78,9,19.55,13.74-6.63,2.75-10.3,7.58-13,13.1-3.07,6.34-5.79,12.91-4.77,20.24.41,3,1.24,5.84,4.79,6.65,0,3-1.12,6.58,2.21,8.24,3.52,1.76,6.26-1,9.21-2.78.29.7.55,1.39.86,2.06,1.54,3.37,5,4.28,7.48,1.55a110.57,110.57,0,0,0,7.39-9.76c1.32-1.82,2.4-3.8,3.75-5.58a8.16,8.16,0,0,1,2.63-2.22c3.88-2.06,5.18-1.44,6.59,2.57,4.13,11.74,8.51,23.4,12.5,35.19,7.85,23.22,10.67,47.12,9.53,71.59-.67,14.38-.75,28.79-1.08,43.18a10.92,10.92,0,0,0,.08,1.15h-65c-.33-14.07-.47-28.16-1.06-42.22A189.27,189.27,0,0,0,589.39,596c-1.6-9.66-5.62-18.62-9.4-27.59-.22-.53-1.12-.77-1.71-1.14-.27.64-.92,1.39-.76,1.91.73,2.43,1.78,4.77,2.53,7.21,2.43,8,5.7,15.82,6.94,24,1.56,10.2,1.58,20.64,2,31,.38,9.88.37,19.79.53,29.68Z" transform="translate(-53.62 -35)"/><path class="cls-2" d="M257.78,661.07c-1.54-8.27-3.51-16.5-4.56-24.84-4.3-34.31-2.75-68.58,1.2-102.81.21-1.76.41-3.52.65-5.66,16.2,14.76,35.92,21.47,56.44,26.61a93.81,93.81,0,0,0,1.58,36.24c2.08,9.1,7,17,11.3,25.09.27.5,1.35.57,2.05.84a5.26,5.26,0,0,0,.5-2,8.87,8.87,0,0,0-1.09-2.29c-4-7.68-8.41-15.16-10.19-23.79A102.43,102.43,0,0,1,314,556.79c.06-.52.23-1,.39-1.73,4.19.7,8.27,1.45,12.37,2.07a204,204,0,0,0,60.82.42,4.28,4.28,0,0,1,3.75,1.08c2.18,1.85,4.49,3.55,6.84,5.18A13.22,13.22,0,0,0,409.46,566c1.48-.39,3-.74,4.77-1.19.66,4.8,1.49,9.43,1.92,14.1,2.51,27.12,5.41,54.22,5.07,81.51a5.43,5.43,0,0,0,.09.69h-82.7c-.77-5.65-1.18-11.38-2.42-16.93-1.19-5.31-3.2-10.44-5-15.61-.21-.61-1.26-.95-1.92-1.41a9,9,0,0,0-.47,2.4,9.71,9.71,0,0,0,.81,2.4,94.28,94.28,0,0,1,5.73,29.15Z" transform="translate(-53.62 -35)"/><path d="M589.49,661.07c-.16-9.89-.15-19.8-.53-29.68-.39-10.35-.41-20.79-2-31-1.24-8.15-4.51-16-6.94-24-.75-2.44-1.8-4.78-2.53-7.21-.16-.52.49-1.27.76-1.91.59.37,1.49.61,1.71,1.14,3.78,9,7.8,17.93,9.4,27.59a189.27,189.27,0,0,1,2.29,22.81c.59,14.06.73,28.15,1.06,42.22Z" transform="translate(-53.62 -35)"/><path d="M335.36,661.07a94.28,94.28,0,0,0-5.73-29.15,9.71,9.71,0,0,1-.81-2.4,9,9,0,0,1,.47-2.4c.66.46,1.71.8,1.92,1.41,1.78,5.17,3.79,10.3,5,15.61,1.24,5.55,1.65,11.28,2.42,16.93Z" transform="translate(-53.62 -35)"/><path class="cls-2" d="M489.22,454.12c-15-3-28.56-.79-41.39,6.8-1.61-2.86-3.16-5.61-4.7-8.36Q433,434.44,422.8,416.33c-.12-.2-.22-.41-.34-.61-.63-1-1.17-2.55-2.74-1.64s-.47,2,.08,3c2.56,4.6,5.2,9.15,7.65,13.8a5,5,0,0,1,.35,3.4c-4.84,15.66-8.63,31.48-8.4,48a3.94,3.94,0,0,1-1.36,2.4c-5.55,5.29-11.25,10.41-16.71,15.78a30.36,30.36,0,0,0-8.09,14.87c-1.13,4.61-3.35,9-5.06,13.43-1.43,3.76-2.9,7.51-4.19,11.31-1.76,5.18-2.3,10.22,3.29,14.54-3.95.45-7.2.92-10.45,1.16-33,2.48-65.05-1.43-95.62-14.69-8.34-3.62-16.2-8.16-22.75-14.58a48.18,48.18,0,0,1-6.82-8.45,23.48,23.48,0,0,1-2.92-7.5c-.79-3.52-.48-6.65,2.68-9.57,6-5.56,10-12.75,13.79-20,15.54-30,26.43-61.5,31.37-94.95.75-5.1.59-10.34.74-15.52a12.78,12.78,0,0,0-.56-4.12c-.22-.69-1.13-1.17-1.73-1.75-.38.73-1.08,1.46-1.07,2.18,0,2.62.26,5.25.52,7.87.19,1.86-.45,2.55-2.4,2.6-8,.24-15.66-1.71-23.17-4.19-19.6-6.45-37.81-15.88-55.21-26.8-12.83-8.05-25.14-16.94-37.68-25.47a22.59,22.59,0,0,1-1.78-1.49c10.06-1.77,18.79-6,27.08-11.12s16.21-10.59,20.92-19.14c6.12,3.49,12.06,7.3,18.35,10.37,22.23,10.86,45.62,18,70.3,20.28,5.89.56,11.89-.12,17.84-.07,1.45,0,3.33.24,4.26,1.14,3,2.88,6,5.84,8.24,9.29,5.16,8.09,7,17.44,9,26.67,1.25,5.58,2.64,11.14,4.19,16.64.94,3.35,2.66,6.33,6.06,7.82a6.48,6.48,0,0,0,3.39.65c6.78-1.12,12.39-4.69,17.58-8.94,4.26-3.48,8.38-7.12,12.53-10.72,6.59-5.72,14.3-9.61,22.33-12.6,2.92-1.1,6.89-.32,10.13.55,5.16,1.37,9.31,4.8,13.28,8.29,9.33,8.19,16.9,17.88,23.56,28.28,11.1,17.32,19.86,35.67,24.21,55.91C488.26,446.32,488.61,450,489.22,454.12Z" transform="translate(-53.62 -35)"/><path class="cls-2" d="M369.83,199.33c8.2,2.21,16.45,3.69,24.84,3.12,7-.47,13.95-1.6,20.9-2.62,1.57-.23,2.45-.08,3.42,1.28A78.6,78.6,0,0,0,447.62,226c2.13,1.08,4.39,1.89,6.69,2.87-1.31,4.26-2.78,8.55-4,12.92-1.93,7.16-3.73,14.36-5.49,21.57-.6,2.47.16,3.2,2.74,3,3.87-.3,6.32,1.74,6.8,5.64.93,7.57-6.48,17.62-14,18.7a8.29,8.29,0,0,1-5-.95c-1.72-1-2.54-1-3.83.55-7.49,8.79-16.25,15.88-27.33,19.72-17.55,6.06-33.77-.45-42.24-17a59.2,59.2,0,0,1-6.12-24.81c-.16-3.57-.12-3.57-3.59-3.8a7.9,7.9,0,0,1-5.79-3.45c-5.06-6.49-4.36-18.93,1.37-24.82,3.14-3.21,6.53-3.65,10.21-1.31,1.92,1.22,2.64,1,3.2-1.32q4.16-16.77,8.27-33.54A3.15,3.15,0,0,1,369.83,199.33Zm15.88,41.07c0-.45,0-1-.09-1.52-.25-2.11-1-3.95-3.19-4.69s-3.94.23-5.36,1.82a12,12,0,0,0-3,10.28,4.74,4.74,0,0,0,3.22,4.15c2,.63,3.64-.24,5-1.61A12.11,12.11,0,0,0,385.71,240.4Zm39.8,13a15.93,15.93,0,0,0-.14-1.82c-.38-2-1.14-3.77-3.27-4.38s-3.79.39-5.09,2c-2.55,3-3.74,6.56-2.73,10.52,1,3.73,4.36,4.81,7.29,2.33C424.21,259.81,425.21,256.78,425.51,253.43Zm-41.8,17.06c0,4.38,2.54,7.07,6.85,7.41.78.06,2.17-.49,2.35-1,.45-1.42-.8-1.67-2-1.87-3.71-.64-4.9-2.44-3.89-6a14.06,14.06,0,0,1,1.65-3.81c1.38-2.13,3-4.08,4.42-6.22.42-.67.24-1.72.34-2.6-.86.23-2,.2-2.52.74a26.55,26.55,0,0,0-3.21,3.94C385.63,264,383.92,267.16,383.71,270.49Zm8,22.13c3.14-.08,6.07-.75,8.39-2.89.6-.55.59-1.77.86-2.67a14.12,14.12,0,0,0-2.62.34c-2,.64-4,1.84-6,2-4.3.41-7.92-1.45-11.11-4.32-.62-.56-2.2-1-2.63-.67-1.25,1-.17,2.05.66,2.86A18.5,18.5,0,0,0,391.66,292.62Zm31.41-57.89c6.09-.3,10.81,4.15,10.88,9.23a2.3,2.3,0,0,0,1.15,1.66c.32.15,1.43-.48,1.54-.92a8.09,8.09,0,0,0,.27-3.61c-1.14-5.19-7.93-10-13.19-9.31-.83.11-1.54,1.12-2.3,1.71Zm-42.61-20.59a26.14,26.14,0,0,0-5.32,1.77,18,18,0,0,0-4.44,3.88c-.32.35.15,1.43.26,2.17a10.38,10.38,0,0,0,2-.49c.37-.17.57-.71.88-1.05a9.3,9.3,0,0,1,11.89-1.6c.5.33,1.36.11,2.06.14,0-.76.25-1.74-.12-2.24C386.2,214.68,383.9,214.27,380.46,214.14Z" transform="translate(-53.62 -35)"/><path class="cls-2" d="M560.5,345h14.21a14.15,14.15,0,0,1-.61,1.75c-3.3,6.69-3.15,13.55-.4,20.26a81.07,81.07,0,0,0,6.79,13.16c8.06,12.41,11.75,25.87,10.32,40.58-.62,6.3-1.91,12.54-2.83,18.82a50.91,50.91,0,0,0,.34,18.7,2.11,2.11,0,0,1-.76,1.78c-10.31,6.28-20.61,12.59-31,18.68a37.75,37.75,0,0,1-17.93,5c-4.62.16-9.26,0-14.11,0-.36-2.15-.72-4.19-1-6.22a47.7,47.7,0,0,0-7.52-18.58c-4.3-6.53-8.53-13.11-13-19.53-5.2-7.49-7.93-15.89-9.31-24.76-.35-2.22.19-4.6.42-6.9,1.06-10.71,2.3-21.41,1.22-32.19-.57-5.59-2-9.43-5.68-15.42.78-.48,1.54-1,2.34-1.43,2-1.13,4.06-2.23,6.31-3.47.42,1.53.77,2.84,1.14,4.14,3,10.54,7.93,20.07,16.19,27.42A44,44,0,0,0,527,394.18c11.1,4.89,22.36,1.34,29.06-8.79,5.64-8.5,7-18.07,6.25-28C562,353.38,561.15,349.43,560.5,345Z" transform="translate(-53.62 -35)"/><path class="cls-2" d="M236.08,104.2a29.61,29.61,0,0,1,1.25,4.53c1.22,10.18-.55,20-3.47,29.74-.11.37-.38.74-.35,1.1.06.82.26,1.64.4,2.46a6.67,6.67,0,0,0,2.34-.89c3.55-3.34,6.88-6.91,10.54-10.11a25.75,25.75,0,0,1,6.33-3.79c2.18-1,3.16-.13,2.56,2.22a31.59,31.59,0,0,1-2.28,6.3,54.74,54.74,0,0,1-11.4,15.7,6.82,6.82,0,0,0-1.78,4c-1,9-4.46,16.7-11.1,22.86a17.06,17.06,0,0,1-5,3.24,3.56,3.56,0,0,0-2.47,3.68q-.69,16.58-1.48,33.17-1.41,31.19-2.83,62.39a9.37,9.37,0,0,1-.14,1.09c-18.54,3-33.39,12.42-47,24.85,0-.94-.12-1.74-.11-2.54.29-23.82,4.23-47.12,10.37-70.07a247.49,247.49,0,0,1,15.36-43,109.25,109.25,0,0,1,6.45-11c1.05-1.67.68-2.42-.9-3.48-8.49-5.68-12.47-13.78-12.62-23.93a6.54,6.54,0,0,0-1.26-3.71c-4.65-5.94-8.84-12.14-11.66-19.17a53.22,53.22,0,0,1-1.55-5.46l.66-.48a31.92,31.92,0,0,1,3.5,2.29c5.23,4.47,9.24,10,13,15.7a7.29,7.29,0,0,0,2,2.11,2,2,0,0,0,1.85,0,2.36,2.36,0,0,0,.36-1.83,8.27,8.27,0,0,0-.77-1.93c-3.25-7.61-6.44-15.25-7.86-23.48a37.87,37.87,0,0,1-.29-4.53l.63-.44a15.87,15.87,0,0,1,3.28,2.5c3.8,4.87,7.46,9.85,11.15,14.8,1.52,2,2.91,4.19,4.57,6.1.52.6,1.72.6,2.61.87a10.55,10.55,0,0,0,0-2.57c-1.73-7.44-3.69-14.83-5.24-22.3a22.33,22.33,0,0,1,.23-7.37c.35-2.47,1.71-2.91,3.44-1.06a36.91,36.91,0,0,1,4.86,6.46A80.4,80.4,0,0,1,220.61,131a8.74,8.74,0,0,0,.91,2.85,3.88,3.88,0,0,0,2.38,1.68c.53,0,1.5-1.25,1.69-2.07.78-3.47,1.12-7,2-10.47,1.35-5,3-9.9,4.68-14.77.53-1.51,1.79-2.77,2.72-4.14Z" transform="translate(-53.62 -35)"/><path class="cls-2" d="M596.65,512.92a8.73,8.73,0,0,1-1.46-2.54,17.44,17.44,0,0,1-.45-5.73c1.27-8.08,4.1-15.5,9.61-21.76a10.84,10.84,0,0,1,8-3.93,84.53,84.53,0,0,0,12.16-1.61c6.76-1.39,9-4,9.61-10.86.36-4.31.49-8.65.43-13a261.51,261.51,0,0,1,7.65-64.13c.77-3.22.77-3.26-2.48-3.91a172.92,172.92,0,0,0-52.64-2.77,2.38,2.38,0,0,1-1.94-.62c-3.92-6.38-8.12-12.62-9.89-20.09-1.39-5.87-.06-11.21,2.66-16.32.32-.59,1.65-.94,2.49-.92a245.39,245.39,0,0,1,38.7,4.4c11.34,2.19,22.52,4.94,33.18,9.46,3,1.26,5.82,2.87,8.72,4.34,4.61,2.33,6.77,6.22,7.5,11.24a120.57,120.57,0,0,1,.32,28c-2.33,26.55-7.58,52.5-16.75,77.56-2.22,6.08-5.29,11.85-8.09,17.7a9.49,9.49,0,0,1-8.89,5.65c-6,.16-9.81,3.43-12.72,8.37a119.26,119.26,0,0,1-6.75,10c-.64.87-1.92,1.27-2.91,1.89-.52-1.15-1.47-2.29-1.48-3.44a26.46,26.46,0,0,1,.78-6.62c1.54-6.31,4.55-12,8-17.4.41-.65.18-1.72.24-2.59-.81.36-1.92.49-2.4,1.1a50.49,50.49,0,0,0-9.4,20.5c-.61,2.8-4.56,6.53-7.31,6.62a2.12,2.12,0,0,1-1.52-1.42,19,19,0,0,1,.37-5.05,63.29,63.29,0,0,1,10.35-23.13c.3-.43.12-1.21.17-1.84-.7,0-1.63-.25-2.05.1a12.58,12.58,0,0,0-2.37,2.81,63.56,63.56,0,0,0-8,17.42c-.22.79-.53,1.55-.8,2.33Z" transform="translate(-53.62 -35)"/><path class="cls-2" d="M544.23,229.53c.2,5.14.52,10.28.54,15.42a5.14,5.14,0,0,0,2.74,4.88c9.59,5.89,19.75,10.24,31.1,11.82-1.26,4.2-2.45,8.4-3.78,12.55-.8,2.49-.19,3.6,2.46,3.9l.47,0c4.26.44,8.17,1.71,10.09,5.92s.45,8.31-2.25,11.7c-6.28,7.88-14.57,11.51-24.66,10.71-1.71-.13-2.91-.1-3.15,1.93,0,.34-.4.66-.63,1-15.72,20.07-47.58,21.93-64.27,3.25a32.07,32.07,0,0,1-8.3-25.27,4.48,4.48,0,0,0-2-4.5c-6.6-5-9.87-15.87-7.26-23.72,1.76-5.32,5.6-7.79,10.08-6.83,1.9.4,2.91-.59,3.2-2.66.91-6.34,2-12.64,3.09-19.26a52.67,52.67,0,0,1,20.65,8.76c4.93,3.6,10.17,6.5,16.21,7.73.31.06.61.14.91.19,7.07,1.19,7.89.67,10.14-6,1.32-3.9,2.74-7.76,4.11-11.65Zm7,47.6-.4-.25a30.85,30.85,0,0,0-.87-4.52c-1.3-3.68-4.79-4.32-7.11-1.2a14.67,14.67,0,0,0-2.43,13.18c.49,1.77,1.56,3.64,3.54,3.45a5.84,5.84,0,0,0,4.09-2.38C549.45,282.85,550.19,279.91,551.21,277.13Zm-50.81-5.4.56.27a21,21,0,0,0,.38,2.74c.49,1.86,1.38,3.5,3.46,3.94s3.6-.69,4.68-2.3a12,12,0,0,0,1.66-11c-1.32-3.83-5.15-4.6-7.43-1.3C502.16,266.33,501.47,269.16,500.4,271.73ZM521.61,317c3.45,0,7-1,9.3-4.31.41-.6,0-1.75,0-2.64-.78.26-1.85.29-2.28.83A8.47,8.47,0,0,1,522,314a17.3,17.3,0,0,1-10.82-3.45c-.61-.43-1.72-.13-2.6-.17.28.84.31,2,.89,2.47A18.91,18.91,0,0,0,521.61,317Zm26.21-60.89a6.34,6.34,0,0,0-2.34.42,9.17,9.17,0,0,0-2,2c.9.28,1.85.92,2.68.78a8.92,8.92,0,0,1,10.48,6.21c.27.78,1.32,1.3,2,1.93.28-.91,1-1.92.78-2.73C558.26,259.72,553.44,256.1,547.82,256.1ZM513,248.83c0-.33,0-.66.07-1a15.62,15.62,0,0,0-3.15-1.9c-4.47-1.44-12.34,1.37-14.91,5.35-.41.64-.11,1.75-.14,2.64a7.09,7.09,0,0,0,2.48-.9c3.85-3.56,7.95-5.79,13.36-3.5C511.28,249.77,512.23,249.09,513,248.83Zm6.65,36.3a4.91,4.91,0,0,0-1.11.66c-3,3.41-5.07,7.22-4.24,12a5.53,5.53,0,0,0,4.45,4.49,2.45,2.45,0,0,0,1.86-.85c.22-.29-.15-1.39-.57-1.72-3.28-2.55-3.74-3.91-2-7.67.66-1.45,1.76-2.7,2.54-4.11a2.93,2.93,0,0,0,.28-1.88C520.76,285.66,520.07,285.43,519.65,285.13Z" transform="translate(-53.62 -35)"/><path class="cls-2" d="M587.17,385.52a192.52,192.52,0,0,1,52.27,2.83c-1,4.12-2,8-2.71,11.88-3.57,18.43-5.62,37-5.12,55.81a105.36,105.36,0,0,1-.73,12,6,6,0,0,1-5.11,5.81q-5.57,1.13-11.17,1.95a2.89,2.89,0,0,1-2-.77,106.53,106.53,0,0,0-19-13.67,5.7,5.7,0,0,1-2.24-3.5c-1.72-7.29-1-14.58.15-21.89A182.48,182.48,0,0,0,594,417.85a59.6,59.6,0,0,0-6.28-31C587.54,386.51,587.42,386.15,587.17,385.52Z" transform="translate(-53.62 -35)"/><path class="cls-2" d="M487.11,473l-2.27,2.63c-12.85,14.57-28.37,25.74-44.93,35.62A159.78,159.78,0,0,1,413.2,524.1c-1.85.68-2.59,1.36-2.31,3.81.76,6.44.89,13-1,19.32a6,6,0,0,1-1.71,2.23c-1.1,1.07-2.52,1.87-3.43,3.07-1.71,2.23-.59,5.14,2.24,5.35a26.32,26.32,0,0,0,7.22-.93c.54-.11.88-1.19,1.32-1.83-.77-.29-1.57-.9-2.3-.83-2,.19-3.93.68-6.37,1.14,1.51-3,8-6.85,10.31-6.66s3.62,2.15,3,4.75a11.28,11.28,0,0,1-6.59,7.92c-5.3,2.46-10.56,3.1-15.39-1.13-3.49-3-7-6.11-10.4-9.24a5.58,5.58,0,0,1-1.83-5.9q2.08-7,4.46-13.88c2.08-6,4.48-11.83,6.4-17.85,1.59-5,4.61-8.94,8.18-12.49a232.38,232.38,0,0,1,37.79-31,4.94,4.94,0,0,1,2.52-.38,26.89,26.89,0,0,0,3.45.19c9.34-1.33,18.51.13,27.69,1.61C479.86,471.89,483.29,472.39,487.11,473Z" transform="translate(-53.62 -35)"/><path class="cls-2" d="M509.16,326.5a48.76,48.76,0,0,0,28.46-.14c1,3.64,2,7.11,3,10.57.72,2.53,1.41,5.07,2.14,7.59.92,3.23,1.17,3.31,4.37,2.62s6.49-1.23,9.87-1.86a55.7,55.7,0,0,1,2,22.55,36,36,0,0,1-4.87,14.87c-6,9.82-16.17,13.23-26.62,8.48a38.78,38.78,0,0,1-10-6.63c-9-8.23-13.86-18.76-16.48-30.9,3.32-1.14,6.48-2.34,9.72-3.3s3.49-1.33,2.73-4.55q-1.95-8.35-3.91-16.71C509.47,328.31,509.35,327.52,509.16,326.5Z" transform="translate(-53.62 -35)"/><path class="cls-2" d="M400.2,318.39c8.59,2.14,16.47,4.78,22.27,11.35,4.41,5,3.76,10-1.8,13.77a49.66,49.66,0,0,1-8.56,4.53c-10.12,4.25-18.89,10.45-27,17.81A96.59,96.59,0,0,1,374,374.56a40.64,40.64,0,0,1-8.58,4,4.87,4.87,0,0,1-6.47-2.48,29.8,29.8,0,0,1-2.71-6.86c-2.09-8.32-3.9-16.72-6-25a62.44,62.44,0,0,0-3.19-9.19c-3.07-7.23-7-13.84-15-18a38,38,0,0,1,4.86-3.44c6.1-3,12.69-3.87,19.37-4.15,2.74-.11,5.5,0,8.21,0-1.29,6.35-2.64,12.14-3.62,18-2,12.23-1.59,24.51-.22,36.78.36,3.15.76,6.3,1.33,9.42.5,2.8,1.88,3.27,3.85,1.19,7.38-7.81,14.94-15.47,21.88-23.66A50.73,50.73,0,0,0,400.2,318.39Z" transform="translate(-53.62 -35)"/><path class="cls-2" d="M364.71,372.07c-3.24-22.17-3.32-43.74,4.17-64.88C382.55,315,382.55,315,397,315a35.48,35.48,0,0,1-1.54,15,62.73,62.73,0,0,1-5.18,12.09C383.68,353.57,373.87,362.32,364.71,372.07Z" transform="translate(-53.62 -35)"/><path class="cls-2" d="M487.08,361.59a30.56,30.56,0,0,1,5.29,15.13c.91,11.4-.4,22.71-1.8,34a2.4,2.4,0,0,1-1.24,1.62c-2.41,1-4.9,1.84-7.5,2.78-.88-1.94-1.64-4-2.68-5.86-4.62-8.39-9.26-16.77-14-25.08-.87-1.51-1-2.68,0-4,.64-.87,1.26-1.77,2-2.57C472.86,371.24,479.78,366.35,487.08,361.59Z" transform="translate(-53.62 -35)"/><path class="cls-2" d="M173,316.71c-1.23-.48-2.89-.63-3.28-1.41s.22-2.35.76-3.36a14.59,14.59,0,0,1,2.66-3.5A86.4,86.4,0,0,1,211.75,286a19.06,19.06,0,0,1,4.81-.62c2.72,0,3.51,1.16,2.16,3.48a25.5,25.5,0,0,1-4.34,5.66,90,90,0,0,1-32,19.63C179.38,315.25,176.18,315.86,173,316.71Z" transform="translate(-53.62 -35)"/><path class="cls-2" d="M446.19,466.73c3.06-3.76,7-5.5,11-7.1a49.45,49.45,0,0,1,32.46-2,23.74,23.74,0,0,1,4.69,2c1.89,1,3.54,2.33,3.15,4.87a6,6,0,0,1-4.72,5.12,19.74,19.74,0,0,1-5.53.21c-7.13-.9-14.21-2.25-21.35-2.88-5.43-.48-10.93-.13-16.39-.14Z" transform="translate(-53.62 -35)"/><path class="cls-2" d="M445.25,462.5c-3.77,6.08-10.35,8.46-15.42,12.72-2.33,2-4.81,3.75-7.22,5.62l-.63-.23c.62-5.72,1.18-11.45,1.87-17.17.26-2.22,1-4.39,1.2-6.62a9.46,9.46,0,0,1,4.36-7.25c2-1.33,3.9-2.76,6.13-4.35Q440.58,454.19,445.25,462.5Z" transform="translate(-53.62 -35)"/><path class="cls-2" d="M430.32,435.89c1.48,2.65,2.57,4.59,3.76,6.7l-7,4.77Z" transform="translate(-53.62 -35)"/><path d="M385.71,240.4a12.11,12.11,0,0,1-3.44,8.43c-1.36,1.37-3,2.24-5,1.61a4.74,4.74,0,0,1-3.22-4.15,12,12,0,0,1,3-10.28c1.42-1.59,3.2-2.55,5.36-1.82s2.94,2.58,3.19,4.69C385.69,239.41,385.69,240,385.71,240.4Z" transform="translate(-53.62 -35)"/><path d="M425.51,253.43c-.3,3.35-1.3,6.38-3.94,8.6-2.93,2.48-6.34,1.4-7.29-2.33-1-4,.18-7.47,2.73-10.52,1.3-1.56,3-2.55,5.09-2s2.89,2.4,3.27,4.38A15.93,15.93,0,0,1,425.51,253.43Z" transform="translate(-53.62 -35)"/><path d="M383.71,270.49c.21-3.33,1.92-6.51,4-9.5a26.55,26.55,0,0,1,3.21-3.94c.56-.54,1.66-.51,2.52-.74-.1.88.08,1.93-.34,2.6-1.37,2.14-3,4.09-4.42,6.22a14.06,14.06,0,0,0-1.65,3.81c-1,3.6.18,5.4,3.89,6,1.15.2,2.4.45,2,1.87-.18.56-1.57,1.11-2.35,1C386.25,277.56,383.7,274.87,383.71,270.49Z" transform="translate(-53.62 -35)"/><path d="M391.66,292.62a18.5,18.5,0,0,1-12.45-5.32c-.83-.81-1.91-1.82-.66-2.86.43-.35,2,.11,2.63.67,3.19,2.87,6.81,4.73,11.11,4.32,2-.19,4-1.39,6-2a14.12,14.12,0,0,1,2.62-.34c-.27.9-.26,2.12-.86,2.67C397.73,291.87,394.8,292.54,391.66,292.62Z" transform="translate(-53.62 -35)"/><path d="M423.07,234.73l-1.65-1.24c.76-.59,1.47-1.6,2.3-1.71,5.26-.69,12,4.12,13.19,9.31a8.09,8.09,0,0,1-.27,3.61c-.11.44-1.22,1.07-1.54.92A2.3,2.3,0,0,1,434,244C433.88,238.88,429.16,234.43,423.07,234.73Z" transform="translate(-53.62 -35)"/><path d="M380.46,214.14c3.44.13,5.74.54,7.24,2.58.37.5.1,1.48.12,2.24-.7,0-1.56.19-2.06-.14a9.3,9.3,0,0,0-11.89,1.6c-.31.34-.51.88-.88,1.05a10.38,10.38,0,0,1-2,.49c-.11-.74-.58-1.82-.26-2.17a18,18,0,0,1,4.44-3.88A26.14,26.14,0,0,1,380.46,214.14Z" transform="translate(-53.62 -35)"/><path d="M551.21,277.13c-1,2.78-1.76,5.72-3.18,8.28a5.84,5.84,0,0,1-4.09,2.38c-2,.19-3.05-1.68-3.54-3.45a14.67,14.67,0,0,1,2.43-13.18c2.32-3.12,5.81-2.48,7.11,1.2a30.85,30.85,0,0,1,.87,4.52Z" transform="translate(-53.62 -35)"/><path d="M500.4,271.73c1.07-2.57,1.76-5.4,3.31-7.65,2.28-3.3,6.11-2.53,7.43,1.3a12,12,0,0,1-1.66,11c-1.08,1.61-2.59,2.74-4.68,2.3s-3-2.08-3.46-3.94A21,21,0,0,1,501,272Z" transform="translate(-53.62 -35)"/><path d="M521.61,317a18.91,18.91,0,0,1-12.19-4.17c-.58-.47-.61-1.63-.89-2.47.88,0,2-.26,2.6.17A17.3,17.3,0,0,0,522,314a8.47,8.47,0,0,0,6.71-3.1c.43-.54,1.5-.57,2.28-.83,0,.89.38,2,0,2.64C528.58,316,525.06,317,521.61,317Z" transform="translate(-53.62 -35)"/><path d="M547.82,256.1c5.62,0,10.44,3.62,11.59,8.63.18.81-.5,1.82-.78,2.73-.68-.63-1.73-1.15-2-1.93a8.92,8.92,0,0,0-10.48-6.21c-.83.14-1.78-.5-2.68-.78a9.17,9.17,0,0,1,2-2A6.34,6.34,0,0,1,547.82,256.1Z" transform="translate(-53.62 -35)"/><path d="M513,248.83c-.77.26-1.72.94-2.29.7-5.41-2.29-9.51-.06-13.36,3.5a7.09,7.09,0,0,1-2.48.9c0-.89-.27-2,.14-2.64,2.57-4,10.44-6.79,14.91-5.35a15.62,15.62,0,0,1,3.15,1.9C513.05,248.17,513,248.5,513,248.83Z" transform="translate(-53.62 -35)"/><path d="M519.65,285.13c.42.3,1.11.53,1.19.9a2.93,2.93,0,0,1-.28,1.88c-.78,1.41-1.88,2.66-2.54,4.11-1.72,3.76-1.26,5.12,2,7.67.42.33.79,1.43.57,1.72a2.45,2.45,0,0,1-1.86.85,5.53,5.53,0,0,1-4.45-4.49c-.83-4.76,1.21-8.57,4.24-12A4.91,4.91,0,0,1,519.65,285.13Z" transform="translate(-53.62 -35)"/></svg>