<!-- Generator: Adobe Illustrator 25.2.3, SVG Export Plug-In  -->
<svg version="1.1" xmlns="http://www.w3.org/2000/svg" xmlns:xlink="http://www.w3.org/1999/xlink" x="0px" y="0px"
	 width="254.14px" height="235.06px" viewBox="0 0 254.14 235.06"
	 style="overflow:visible;enable-background:new 0 0 254.14 235.06;" xml:space="preserve">
<style type="text/css">
	.st0{fill:none;stroke:#000000;stroke-width:3;stroke-miterlimit:10;}
	.st1{fill:#AAAAAA;}
</style>
<defs>
</defs>
<g>

		<ellipse transform="matrix(0.7071 -0.7071 0.7071 0.7071 -48.6828 117.5308)" class="st0" cx="117.53" cy="117.53" rx="116" ry="116"/>
	<g>
		<path d="M163.85,33.54l-19.93,7.2l-7.2-19.93l19.93-7.2L163.85,33.54z"/>
		<path d="M176.07,44.69c1.23-2.63,2.24-5.42,3.02-8.36c0.78-2.94,0.63-6.27-0.43-9.98l-8.15,2.94l-6.61-18.3l20.65-7.46l5.43,15.04
			c1.66,4.59,1.84,9.54,0.55,14.85c-1.29,5.31-3.73,10.19-7.31,14.62L176.07,44.69z"/>
	</g>
	<g>
		<path d="M154.48,120.6c0.25,0.87,0.61,2.92,1.08,6.13c0.47,3.21-0.29,6.08-2.28,8.61c-1.39,1.83-3.92,3.35-7.59,4.55
			c-3.67,1.2-5.83,1.89-6.49,2.07c-3.43,0.88-6,0.34-7.73-1.6c-1.73-1.94-2.8-3.5-3.23-4.67l-17-47.08l-15.05,5.44
			c0.19,1.68,0.5,3.48,0.96,5.4c0.45,1.92,0.66,3.67,0.63,5.25l13.93-5.03c0.02,0.05,0.91,3.26,2.66,9.63
			c1.76,6.37,2.2,12.84,1.32,19.43c-1.15,9.17-3.77,16.07-7.86,20.71c-4.09,4.64-6.15,7-6.18,7.07l-8.52-4.8
			c0.62-0.46,1.78-1.62,3.5-3.48c1.71-1.85,3.14-3.62,4.28-5.3c1.7-2.48,2.87-4.58,3.52-6.29c0.65-1.71,1.09-3,1.32-3.87
			c-1.08-0.64-2.61-1.24-4.6-1.82c-1.99-0.58-3.67-1.1-5.05-1.57l2.88-8.55c0.62,0.2,1.78,0.52,3.51,0.95
			c1.72,0.43,3.17,0.83,4.32,1.2c0.06-0.5,0.09-1.29,0.1-2.35c0.01-1.06-0.1-2.39-0.31-4c-0.13-1.04-0.29-2.01-0.46-2.91
			c-0.18-0.9-0.41-1.84-0.7-2.82l-7.53,2.72c0.04,0.77-0.11,2.29-0.44,4.55c-0.33,2.26-0.9,4.62-1.7,7.08
			c-0.55,1.83-1.14,3.44-1.78,4.85c-0.64,1.41-1.46,2.89-2.46,4.46l-7.87-4.49c0.74-1.11,1.63-2.84,2.66-5.17
			c1.03-2.33,1.8-5.28,2.32-8.85c0.46-3.24,0.54-6.57,0.24-10c-0.3-3.42-0.83-6.35-1.59-8.79l-10.65,3.85l-2.83-7.85l60.85-21.98
			l2.83,7.85l-17.77,6.42l6.85,18.97c0.09-0.09,0.52-0.64,1.31-1.65c0.78-1.01,1.42-1.93,1.9-2.77c0.76-1.06,1.7-2.57,2.8-4.54
			c1.1-1.97,1.68-3.02,1.75-3.17l8.14,5.75c-0.12,0.17-1.04,1.58-2.76,4.26c-1.72,2.67-3.14,4.72-4.25,6.15
			c-0.57,0.75-1.54,1.99-2.91,3.72c-1.37,1.73-2.08,2.67-2.15,2.81l4.6,12.73c0.71,1.98,1.38,3.15,2,3.53
			c0.62,0.38,1.41,0.49,2.38,0.32c1.04-0.13,2.26-0.51,3.66-1.14c1.4-0.63,2.18-1.39,2.34-2.29c0.36-1.34,0.35-2.71-0.04-4.11
			c-0.39-1.4-0.68-2.39-0.9-2.98L154.48,120.6z"/>
	</g>
	<g>
		<path class="st1" d="M252.43,110.79c0.16-0.02,0.2-0.08,0.28-0.22c0.08-0.14,0.17-0.48,0.2-0.79c0.14,0.02,0.34,0.06,0.41,0.09
			c0.06,0.03,0.07,0.07,0.08,0.11c0.04,0.34-0.01,1.1-0.09,1.43c-0.03,0.13-0.07,0.17-0.15,0.19l-3.77,0.46l0.06,0.5
			c0.05,0.43,0.25,1.11,0.26,1.22c0.02,0.15,0,0.21-0.13,0.23c-0.13,0.02-0.45-0.01-0.66-0.05l-0.22-1.81l-3.77,0.46
			c-0.46,0.06-1.24,0.07-1.62,0.08c-0.1,0-0.17-0.01-0.2-0.1c-0.05-0.12-0.1-0.44-0.09-0.64L252.43,110.79z M245.4,104.89
			c0.05-0.06,0.27-0.25,0.41-0.36c1.12,1.35,3.24,3.1,5.04,3.58l-0.26-2.1c-0.04-0.29-0.12-0.51-0.25-0.78
			c0.09-0.29,0.25-0.57,0.39-0.77c0.02-0.02,0.05-0.06,0.09-0.07c0.05-0.01,0.31,0.07,0.39,0.12c-0.03,0.42,0.04,0.9,0.1,1.33
			l0.25,2.07c0.03,0.27,0.13,0.73,0.16,0.94c0.03,0.22-0.14,0.32-0.4,0.28c-0.74-0.1-1.6-0.47-2.44-0.97
			c-0.82,0.94-1.25,1.46-1.99,2.41c-0.07,0.09-0.15,0.08-0.23,0.03c-0.17-0.11-0.43-0.34-0.58-0.49c0.91-0.92,1.4-1.43,2.21-2.31
			c-1.21-0.82-2.31-1.85-2.88-2.65C245.35,105.06,245.34,104.96,245.4,104.89z"/>
		<path class="st1" d="M244.54,118.39l1.78-0.05c0.16,0,0.24-0.03,0.3-0.13c0.08-0.12,0.17-0.35,0.18-0.62
			c0.14,0.01,0.3,0.04,0.37,0.07c0.06,0.03,0.07,0.08,0.07,0.12c0.01,0.34-0.02,0.96-0.12,1.27c-0.04,0.12-0.09,0.17-0.18,0.17
			l-2.32,0.07l0.09,3.26c0.01,0.42,0.16,1.25,0.16,1.36c0,0.15-0.02,0.21-0.15,0.21c-0.12,0-0.5-0.04-0.7-0.1l-0.14-4.99
			C243.87,118.56,244.1,118.4,244.54,118.39z M253.12,122.55c0.17,0,0.21-0.06,0.3-0.2c0.1-0.14,0.22-0.46,0.28-0.77
			c0.13,0.03,0.31,0.09,0.38,0.13c0.06,0.03,0.07,0.08,0.07,0.12c0.01,0.34-0.11,1.09-0.22,1.41c-0.04,0.12-0.08,0.17-0.17,0.17
			l-5.54,0.16c-0.46,0.01-1.24-0.04-1.62-0.07c-0.1-0.01-0.17-0.03-0.19-0.12c-0.04-0.12-0.06-0.45-0.03-0.65L253.12,122.55z
			 M248.16,115.46c0.93,1.07,3.26,2.96,4.03,2.94c0.24-0.01,0.43-0.36,0.57-0.75c0.12,0.06,0.26,0.15,0.34,0.21
			c0.03,0.03,0.05,0.05,0.05,0.09c0.01,0.24-0.24,1.07-0.47,1.4c-0.06,0.09-0.14,0.12-0.28,0.13c-0.32,0.01-0.8-0.22-1.35-0.57
			c-0.77,0.86-1.5,1.68-2.21,2.51c-0.07,0.09-0.15,0.08-0.23,0.01c-0.15-0.13-0.38-0.37-0.53-0.53l2.41-2.36
			c-1.09-0.77-2.25-1.85-2.71-2.42c-0.06-0.08-0.09-0.15-0.02-0.24S248.02,115.59,248.16,115.46z"/>
		<path class="st1" d="M252.71,133.72c0.17,0.01,0.21-0.04,0.32-0.17c0.11-0.13,0.26-0.44,0.34-0.74c0.13,0.04,0.32,0.12,0.39,0.17
			c0.05,0.04,0.06,0.08,0.06,0.13c-0.02,0.34-0.21,1.08-0.35,1.39c-0.05,0.12-0.1,0.16-0.19,0.15l-8.27-0.5
			c-0.46-0.03-1.24-0.15-1.61-0.22c-0.1-0.02-0.16-0.04-0.18-0.13c-0.03-0.12-0.02-0.45,0.03-0.65L252.71,133.72z M250.04,126.65
			c1.58,0.09,2.58,1.25,2.49,2.79c-0.09,1.55-1.22,2.57-2.8,2.48s-2.58-1.25-2.49-2.79C247.32,127.58,248.46,126.56,250.04,126.65z
			 M249.77,131.02c1.16,0.07,1.94-0.62,2-1.62c0.06-1-0.63-1.78-1.79-1.85c-1.17-0.07-1.94,0.62-2,1.62
			C247.92,130.17,248.6,130.95,249.77,131.02z"/>
		<path class="st1" d="M243.03,142.83l0.76,0.14c0.16,0.03,0.24,0.02,0.32-0.06c0.11-0.1,0.24-0.3,0.31-0.57
			c0.14,0.04,0.28,0.1,0.34,0.14c0.05,0.04,0.05,0.09,0.04,0.13c-0.06,0.33-0.22,0.93-0.39,1.21c-0.07,0.11-0.13,0.14-0.21,0.13
			l-1.29-0.24l-0.67,3.53c-0.08,0.41-0.11,1.25-0.13,1.36c-0.03,0.15-0.06,0.2-0.19,0.18c-0.12-0.02-0.48-0.15-0.66-0.25l0.99-5.23
			C242.35,142.85,242.6,142.75,243.03,142.83z M244.2,147.87l0.42-2.2c0.22-0.03,0.54-0.03,0.67-0.01c0.13,0.02,0.14,0.08,0.11,0.23
			c-0.02,0.11-0.23,0.79-0.31,1.21l-0.17,0.91l5.58,1.05c0.16,0.03,0.22-0.02,0.34-0.13s0.31-0.4,0.43-0.69
			c0.12,0.06,0.28,0.15,0.34,0.21c0.05,0.04,0.05,0.09,0.04,0.13c-0.06,0.33-0.34,1.04-0.52,1.33c-0.07,0.11-0.12,0.15-0.2,0.13
			l-6.18-1.17c-0.45-0.08-1.15-0.3-1.51-0.41c-0.1-0.03-0.16-0.06-0.16-0.15c-0.01-0.12,0.04-0.45,0.11-0.64L244.2,147.87z
			 M246.33,143.73l0.08-0.82c0.05-0.62,0.05-1.01,0.02-1.32c0.2-0.33,0.5-0.67,0.75-0.89c0.04-0.03,0.07-0.04,0.12-0.03
			c0.06,0.01,0.24,0.19,0.31,0.27c-0.23,0.63-0.33,1.08-0.45,1.9c-0.14,1-0.41,3.31-0.46,5.05c-0.11,0.02-0.46,0.04-0.56,0.02
			c-0.08-0.01-0.14-0.05-0.13-0.14c0.04-1.02,0.14-2.17,0.23-3.14l-0.29-0.06c-0.35-0.07-0.91-0.23-1.17-0.33
			c-0.09-0.04-0.12-0.08-0.12-0.17c-0.01-0.12,0.04-0.44,0.11-0.63L246.33,143.73z M249.99,142.59c1.04,0.2,1.85,1.22,1.58,2.65
			c-0.27,1.43-1.4,2.09-2.44,1.89c-1.04-0.2-1.85-1.22-1.58-2.65C247.82,143.06,248.95,142.4,249.99,142.59z M249.3,146.27
			c0.67,0.13,1.38-0.28,1.55-1.16c0.17-0.89-0.35-1.52-1.02-1.65c-0.67-0.13-1.38,0.28-1.55,1.16
			C248.11,145.51,248.63,146.14,249.3,146.27z"/>
		<path class="st1" d="M247.66,159.96c0.16,0.05,0.22,0.01,0.35-0.09c0.13-0.1,0.35-0.37,0.5-0.65c0.12,0.07,0.29,0.19,0.34,0.25
			c0.04,0.05,0.04,0.09,0.03,0.13c-0.09,0.33-0.44,1.01-0.64,1.28c-0.08,0.1-0.13,0.13-0.21,0.11l-3.75-1.08l-0.12,0.43
			c-0.12,0.41-0.21,1.12-0.24,1.23c-0.04,0.15-0.08,0.2-0.21,0.16c-0.13-0.04-0.41-0.19-0.59-0.31l0.49-1.7l-3.54-1.02
			c-0.44-0.13-1.17-0.42-1.52-0.56c-0.09-0.04-0.15-0.08-0.15-0.17c0-0.13,0.08-0.45,0.17-0.63L247.66,159.96z M244.88,152.64
			c1.12,0.32,1.74,1.46,1.36,2.81c-0.39,1.34-1.52,1.98-2.64,1.66c-1.12-0.32-1.74-1.46-1.36-2.81
			C242.62,152.95,243.76,152.31,244.88,152.64z M243.83,156.26c0.75,0.22,1.45-0.18,1.69-1.02c0.24-0.85-0.14-1.55-0.89-1.77
			s-1.45,0.18-1.69,1.02S243.08,156.05,243.83,156.26z M248.13,152.57c0.07-0.04,0.11-0.05,0.15-0.04c0.05,0.02,0.23,0.17,0.3,0.27
			c-0.23,0.35-0.4,0.94-0.51,1.32l-0.38,1.33l0.87,0.25c0.24,0.07,0.42-0.06,0.61-0.4c0.11,0.05,0.25,0.14,0.31,0.2
			c0.04,0.05,0.04,0.09,0.03,0.13c-0.05,0.16-0.31,0.7-0.45,0.94c-0.08,0.11-0.11,0.14-0.19,0.12l-1.41-0.41l-0.32,1.11
			c-0.09,0.3-0.22,1.08-0.25,1.2c-0.04,0.13-0.07,0.17-0.18,0.14c-0.12-0.03-0.47-0.19-0.63-0.31c0.15-0.39,0.25-0.75,0.37-1.15
			l0.93-3.21c0.05-0.17,0.13-0.62,0.08-0.92C247.64,152.91,247.93,152.68,248.13,152.57z"/>
		<path class="st1" d="M237.76,163.24l1.34,0.53c0.15,0.06,0.23,0.07,0.33,0c0.13-0.08,0.29-0.25,0.41-0.5
			c0.13,0.06,0.26,0.15,0.31,0.21c0.04,0.05,0.03,0.1,0.02,0.14c-0.12,0.32-0.4,0.89-0.61,1.13c-0.09,0.1-0.15,0.12-0.23,0.08
			l-1.89-0.75l-1.41,3.58c-0.11,0.29-0.32,1.06-0.37,1.17c-0.05,0.12-0.09,0.17-0.19,0.13c-0.11-0.04-0.45-0.24-0.6-0.37l1.94-4.94
			C236.99,163.16,237.29,163.05,237.76,163.24z M242.04,162.44c0.03-0.01,0.1-0.03,0.15-0.01c0.06,0.02,0.19,0.21,0.25,0.31
			c-0.34,0.57-0.51,0.97-0.83,1.78l-2.08,5.28c-0.31,0.79-0.55,1.66-0.6,1.8c-0.06,0.14-0.1,0.19-0.22,0.14
			c-0.12-0.05-0.46-0.25-0.63-0.39c0.21-0.47,0.47-1.04,0.68-1.57l2.13-5.4c0.15-0.37,0.19-0.76,0.24-1.23
			C241.38,162.87,241.69,162.59,242.04,162.44z M243.36,165.25l1.66,0.65c0.15,0.06,0.23,0.07,0.33,0c0.13-0.08,0.29-0.25,0.41-0.5
			c0.13,0.06,0.26,0.15,0.31,0.21c0.04,0.05,0.03,0.1,0.02,0.14c-0.13,0.32-0.4,0.89-0.61,1.13c-0.08,0.1-0.15,0.12-0.23,0.08
			l-2.21-0.87l-1.36,3.44c-0.11,0.29-0.32,1.06-0.37,1.17c-0.05,0.12-0.09,0.17-0.19,0.13c-0.11-0.04-0.45-0.24-0.6-0.37l1.89-4.79
			C242.6,165.17,242.89,165.06,243.36,165.25z"/>
		<path class="st1" d="M232.54,177.08c0.93,0.51,1.38,1.81,0.6,3.23c-0.78,1.42-2.11,1.74-3.04,1.23c-0.93-0.51-1.38-1.81-0.6-3.23
			C230.27,176.89,231.6,176.57,232.54,177.08z M230.52,180.75c0.63,0.34,1.46,0.16,1.98-0.8c0.52-0.95,0.23-1.75-0.39-2.1
			c-0.63-0.34-1.46-0.16-1.98,0.8C229.61,179.61,229.9,180.41,230.52,180.75z M236.5,176.44c0.03-0.01,0.1-0.02,0.15,0.01
			c0.06,0.03,0.15,0.22,0.2,0.34c-0.41,0.53-0.63,0.9-1.05,1.66l-1.16,2.12l1.14,0.62c0.12,0.06,0.19,0.08,0.29,0.05
			c0.17-0.07,0.32-0.17,0.53-0.41c0.11,0.09,0.23,0.21,0.28,0.29c0.03,0.06,0.02,0.1,0,0.14c-0.13,0.24-0.45,0.69-0.71,0.94
			c-0.09,0.09-0.13,0.1-0.21,0.06l-1.73-0.95l-1.16,2.11c-0.41,0.74-0.75,1.58-0.82,1.71c-0.07,0.14-0.12,0.17-0.24,0.11
			s-0.42-0.31-0.57-0.46c0.27-0.44,0.6-0.98,0.87-1.47l2.79-5.08c0.19-0.35,0.29-0.73,0.39-1.19
			C235.78,176.77,236.13,176.54,236.5,176.44z M234.04,183.02c0.61,0.45,1.63,1.14,2.46,1.64l1.83-3.33
			c0.12-0.21,0.2-0.43,0.28-0.86c0.29-0.21,0.6-0.39,0.87-0.46c0.03-0.01,0.09-0.03,0.15,0.01c0.05,0.03,0.16,0.21,0.21,0.33
			c-0.31,0.33-0.55,0.75-0.84,1.27l-1.68,3.06c-0.13,0.24-0.33,0.72-0.46,0.96c-0.08,0.15-0.21,0.2-0.4,0.09
			c-0.21-0.12-1.9-1.23-2.7-2c-0.07-0.08-0.07-0.13-0.04-0.21C233.76,183.4,233.94,183.12,234.04,183.02z"/>
		<path class="st1" d="M226.11,186.26l1.43,0.97c0.14,0.09,0.21,0.12,0.32,0.07c0.14-0.05,0.34-0.18,0.51-0.4
			c0.11,0.09,0.22,0.2,0.26,0.27c0.03,0.06,0.01,0.1-0.01,0.14c-0.19,0.28-0.57,0.77-0.84,0.96c-0.1,0.08-0.17,0.08-0.25,0.03
			l-1.88-1.27l-1.89,2.8c-0.23,0.35-0.6,1.11-0.67,1.2c-0.09,0.13-0.14,0.16-0.24,0.09c-0.1-0.07-0.38-0.32-0.51-0.49l2.86-4.23
			C225.47,186.02,225.75,186.02,226.11,186.26z M230.68,194.61c0.14,0.09,0.2,0.07,0.36,0.02c0.16-0.05,0.44-0.24,0.67-0.46
			c0.09,0.1,0.2,0.25,0.23,0.33c0.03,0.06,0.01,0.1-0.01,0.14c-0.19,0.28-0.73,0.82-1.01,1.02c-0.1,0.08-0.17,0.09-0.24,0.04
			l-2.58-1.75l-0.31,0.46c-0.24,0.35-0.54,1-0.61,1.09c-0.09,0.13-0.14,0.16-0.25,0.09c-0.11-0.07-0.33-0.3-0.46-0.47l1.05-1.55
			l-1.44-0.98c-0.38-0.26-0.99-0.76-1.27-1.01c-0.08-0.06-0.12-0.12-0.09-0.21c0.04-0.12,0.22-0.4,0.35-0.54L230.68,194.61z
			 M229.72,186.01c0.08-0.01,0.46-0.02,0.56,0.01c-0.2,1.73,0.16,4.39,0.94,5.81l1.23-1.81c0.17-0.25,0.24-0.46,0.32-0.75
			c0.25-0.16,0.57-0.27,0.8-0.32c0.03-0.01,0.08-0.01,0.11,0.01c0.05,0.03,0.19,0.26,0.23,0.35c-0.3,0.3-0.56,0.71-0.8,1.06
			l-1.26,1.86c-0.15,0.23-0.38,0.63-0.5,0.82c-0.12,0.18-0.33,0.17-0.48-0.05c-1.14-1.66-1.56-4.67-1.3-6.81
			C229.59,186.11,229.63,186.05,229.72,186.01z"/>
		<path class="st1" d="M222.98,194.04c0.03,0,0.1,0,0.14,0.03c0.05,0.04,0.11,0.25,0.14,0.37c-0.5,0.44-0.79,0.76-1.34,1.44
			l-3.61,4.38c-0.54,0.65-1.04,1.41-1.13,1.52c-0.1,0.12-0.15,0.15-0.25,0.06c-0.1-0.08-0.37-0.39-0.48-0.57
			c0.35-0.39,0.77-0.85,1.13-1.28l3.68-4.48c0.25-0.31,0.42-0.67,0.6-1.1C222.2,194.23,222.6,194.07,222.98,194.04z M224.92,198.46
			c0.96,0.79,1.24,2.35,0.1,3.74c-1.15,1.39-2.73,1.41-3.69,0.62c-0.96-0.79-1.24-2.35-0.1-3.74
			C222.37,197.69,223.96,197.67,224.92,198.46z M221.89,202.14c0.68,0.56,1.72,0.61,2.56-0.41c0.83-1.01,0.58-2.03-0.1-2.59
			c-0.68-0.56-1.72-0.61-2.56,0.4C220.96,200.56,221.21,201.58,221.89,202.14z"/>
		<path class="st1" d="M215.83,202.32c0.03,0,0.1,0.01,0.14,0.05c0.05,0.05,0.09,0.26,0.1,0.38c-0.54,0.39-0.85,0.69-1.46,1.3
			l-1.76,1.77l1.15,1.15l1.37-1.38c0.21-0.21,0.47-0.22,0.76,0.07l0.93,0.92c0.23,0.22,0.48,0.11,0.72-0.04
			c0.06,0.08,0.27,0.4,0.17,0.5c-0.19,0.19-0.61,0.51-0.81,0.71l-2.87,2.9l0.9,0.9l2.55-2.57c0.14-0.14,0.35-0.38,0.53-0.74
			c0.32-0.13,0.66-0.2,0.92-0.2c0.03,0,0.08,0,0.11,0.03c0.05,0.05,0.11,0.28,0.13,0.39c-0.36,0.24-0.64,0.5-1.06,0.93l-2.2,2.22
			c-0.19,0.2-0.67,0.73-0.86,0.93c-0.12,0.12-0.25,0.14-0.4-0.01l-1.63-1.62c-0.08-0.09-0.09-0.17-0.03-0.23l3.31-3.34l-0.94-0.93
			l-2.54,2.56c-0.29,0.3-0.82,0.95-0.9,1.03c-0.11,0.11-0.16,0.13-0.26,0.04c-0.09-0.08-0.3-0.37-0.39-0.56l1.85-1.87l-1.15-1.15
			l-1.61,1.62c-0.6,0.6-1.16,1.31-1.26,1.41c-0.11,0.11-0.16,0.13-0.26,0.04c-0.09-0.09-0.33-0.42-0.43-0.61
			c0.38-0.35,0.84-0.77,1.24-1.17l4.08-4.11c0.28-0.28,0.48-0.62,0.7-1.04C215.04,202.43,215.45,202.31,215.83,202.32z"/>
		<path class="st1" d="M205.39,212.74c0.03,0,0.1,0.02,0.13,0.06c0.04,0.05,0.05,0.27,0.05,0.39c-0.59,0.32-0.93,0.58-1.62,1.11
			l-4.48,3.5c-0.67,0.52-1.32,1.16-1.43,1.24c-0.12,0.1-0.18,0.11-0.26,0.01c-0.08-0.1-0.27-0.46-0.35-0.66
			c0.42-0.3,0.94-0.66,1.38-1.01l4.57-3.57c0.31-0.24,0.55-0.56,0.83-0.94C204.59,212.75,205.01,212.68,205.39,212.74z
			 M205.51,216.27l1.67,2.13c0.21,0.27,0.51,0.16,0.8-0.01c0.06,0.09,0.25,0.41,0.1,0.52c-0.22,0.17-0.77,0.5-1,0.68l-2.94,2.3
			c-0.24,0.19-0.81,0.75-0.91,0.82c-0.1,0.08-0.16,0.1-0.23,0.01c-0.07-0.1-0.27-0.43-0.33-0.62l3.89-3.03l-1.71-2.19l-2.86,2.23
			c-0.33,0.26-0.91,0.87-1,0.94c-0.12,0.1-0.18,0.11-0.26,0.01c-0.07-0.1-0.27-0.43-0.34-0.63l4.23-3.31
			C204.98,215.84,205.24,215.92,205.51,216.27z"/>
		<path class="st1" d="M191.63,226.22l1.14-0.73l-1.97-3.1c-0.25-0.39-0.62-1.08-0.79-1.42c-0.04-0.09-0.06-0.16,0-0.22
			c0.08-0.09,0.34-0.27,0.52-0.35l1.94,3.04c1.07-1.23,2.38-2.38,3.28-2.95c0.39-0.25,0.64-0.14,0.88,0.24l0.99,1.55
			c0.17,0.27,0.45,0.21,0.71,0.12c0.04,0.09,0.18,0.45,0.06,0.52c-0.22,0.14-0.71,0.36-0.95,0.51l-1.79,1.14l0.87,1.36l1.51-0.96
			c0.25-0.16,0.41-0.32,0.59-0.56c0.3-0.05,0.63-0.02,0.86,0.02c0.03,0.01,0.08,0.02,0.1,0.05c0.03,0.05,0.07,0.31,0.06,0.4
			c-0.39,0.16-0.8,0.43-1.16,0.66l-1.01,0.64c-0.23,0.15-0.81,0.57-1.04,0.72c-0.15,0.09-0.27,0.08-0.39-0.1l-1.42-2.24
			c-0.06-0.1-0.05-0.19,0.02-0.23l2.32-1.48l-1.01-1.59c-0.88,0.56-2.17,1.63-3.12,2.73l2.3,3.61c0.09,0.15,0.16,0.21,0.3,0.2
			c0.15-0.01,0.4-0.06,0.65-0.14c0.04,0.13,0.08,0.3,0.07,0.38c0,0.06-0.04,0.1-0.08,0.13c-0.28,0.18-0.78,0.39-1.09,0.48
			c-0.13,0.03-0.19,0-0.24-0.07l-1.6-2.51l-1.14,0.73l1.58,2.48c0.09,0.14,0.17,0.17,0.33,0.18c0.18,0.02,0.48-0.03,0.77-0.15
			c0.04,0.13,0.09,0.32,0.09,0.4c0,0.06-0.03,0.1-0.07,0.12c-0.29,0.18-0.93,0.44-1.27,0.51c-0.13,0.03-0.19,0.02-0.23-0.06l-4.46-7
			c-0.25-0.39-0.62-1.08-0.79-1.42c-0.04-0.09-0.06-0.16,0-0.22c0.08-0.09,0.36-0.28,0.54-0.36L191.63,226.22z"/>
		<path class="st1" d="M187.29,225.41c0.03,0.01,0.09,0.04,0.12,0.09c0.03,0.06,0,0.27-0.02,0.39c-0.64,0.2-1.03,0.39-1.8,0.79
			l-3.97,2.03c0.47,1.6,1.2,3.49,1.85,4.95l3.5-1.79c0.22-0.11,0.41-0.23,0.72-0.54c0.36-0.01,0.71,0.02,0.98,0.1
			c0.03,0.01,0.09,0.03,0.12,0.09c0.02,0.05,0.01,0.27-0.01,0.39c-0.44,0.1-0.88,0.31-1.41,0.58l-3.24,1.66
			c-0.24,0.12-0.68,0.41-0.93,0.54c-0.16,0.08-0.28,0.05-0.39-0.15c-0.52-1.02-1.46-3.65-1.9-5.47l-0.38,0.2
			c-0.75,0.39-1.51,0.89-1.64,0.95c-0.14,0.07-0.2,0.08-0.26-0.04c-0.06-0.12-0.18-0.5-0.22-0.72c0.47-0.22,1.04-0.47,1.54-0.73
			l5.17-2.64c0.35-0.18,0.65-0.44,0.99-0.77C186.5,225.27,186.93,225.28,187.29,225.41z"/>
	</g>
</g>
</svg>
